<?xml version="1.0" encoding="UTF-8" standalone="no"?>
<!DOCTYPE svg PUBLIC "-//W3C//DTD SVG 1.1//EN" "http://www.w3.org/Graphics/SVG/1.1/DTD/svg11.dtd">
<svg width="100%" height="100%" viewBox="0 0 196 235" version="1.1" xmlns="http://www.w3.org/2000/svg" xmlns:xlink="http://www.w3.org/1999/xlink" xml:space="preserve" xmlns:serif="http://www.serif.com/" style="fill-rule:evenodd;clip-rule:evenodd;stroke-linejoin:round;stroke-miterlimit:2;">
    <g id="アートボード2" transform="matrix(1.00966,0,0,1,-205.806,-2500.84)">
        <rect x="203.838" y="2500.84" width="193.627" height="234.554" style="fill:none;"/>
        <clipPath id="_clip1">
            <rect x="203.838" y="2500.84" width="193.627" height="234.554"/>
        </clipPath>
        <g clip-path="url(#_clip1)">
            <g transform="matrix(4.1268,0,0,4.16667,2.77964,0.837485)">
                <path d="M91.611,652.408L83.725,648.533L95.418,645.582L91.611,652.408Z" style="fill:rgb(140,26,27);fill-rule:nonzero;"/>
                <path d="M95.418,637.52L87.668,641.553L95.418,645.582L95.418,637.52Z" style="fill:rgb(244,117,32);fill-rule:nonzero;"/>
                <path d="M83.725,648.533L87.668,641.553L95.418,645.582L83.725,648.533Z" style="fill:rgb(185,33,39);fill-rule:nonzero;"/>
                <path d="M92.627,631.787L87.668,641.553L95.418,637.52L92.627,631.787Z" style="fill:rgb(239,56,42);fill-rule:nonzero;"/>
                <path d="M86.893,628.141L79.541,634.852L92.627,631.787L86.893,628.141Z" style="fill:rgb(239,56,42);fill-rule:nonzero;"/>
                <path d="M87.668,641.553L79.541,634.852L92.627,631.787L87.668,641.553Z" style="fill:rgb(244,117,32);fill-rule:nonzero;"/>
                <path d="M73.885,648.402L83.725,648.533L79.129,642.033L73.885,648.402Z" style="fill:rgb(185,33,39);fill-rule:nonzero;"/>
                <path d="M85.327,655.672L91.611,652.408L83.725,648.533L85.327,655.672Z" style="fill:rgb(185,33,39);fill-rule:nonzero;"/>
                <path d="M73.885,648.402L78.6,656.486L83.725,648.533L73.885,648.402Z" style="fill:rgb(219,33,40);fill-rule:nonzero;"/>
                <path d="M85.327,655.672L78.6,656.486L83.725,648.533L85.327,655.672Z" style="fill:rgb(140,26,27);fill-rule:nonzero;"/>
                <path d="M71.524,637.18L73.885,648.402L79.129,642.033L71.524,637.18Z" style="fill:rgb(239,56,42);fill-rule:nonzero;"/>
                <path d="M64.612,656.486L78.6,656.486L73.885,648.402L64.612,656.486Z" style="fill:rgb(185,33,39);fill-rule:nonzero;"/>
                <path d="M63.673,642.348L73.885,648.402L71.524,637.18L63.673,642.348Z" style="fill:rgb(219,33,40);fill-rule:nonzero;"/>
                <path d="M86.893,628.141L74.574,627.449L79.541,634.852L86.893,628.141Z" style="fill:rgb(241,88,35);fill-rule:nonzero;"/>
                <path d="M63.673,642.348L58.974,638.975L71.524,637.18L63.673,642.348Z" style="fill:rgb(242,102,33);fill-rule:nonzero;"/>
                <path d="M62.496,628.344L71.524,637.18L74.574,627.449L62.496,628.344Z" style="fill:rgb(239,61,35);fill-rule:nonzero;"/>
                <path d="M63.673,642.348L64.612,656.486L73.885,648.402L63.673,642.348Z" style="fill:rgb(156,28,32);fill-rule:nonzero;"/>
                <path d="M62.496,628.344L68.535,622.418L74.574,627.449L62.496,628.344Z" style="fill:rgb(247,143,30);fill-rule:nonzero;"/>
                <path d="M86.893,628.141L79.541,620.391L74.574,627.449L86.893,628.141Z" style="fill:rgb(244,117,32);fill-rule:nonzero;"/>
                <path d="M95.418,614.754L84.779,611.621L95.418,621.522L95.418,614.754Z" style="fill:rgb(251,173,23);fill-rule:nonzero;"/>
                <path d="M79.541,620.391L91.067,625.76L86.893,628.141L79.541,620.391Z" style="fill:rgb(238,45,42);fill-rule:nonzero;"/>
                <path d="M88.535,620.391L91.067,625.76L95.418,621.522L88.535,620.391Z" style="fill:rgb(244,117,32);fill-rule:nonzero;"/>
                <path d="M88.181,601.811L80.258,605.93L92.913,606.922L88.181,601.811Z" style="fill:rgb(252,194,16);fill-rule:nonzero;"/>
                <path d="M84.779,611.621L92.913,606.922L95.418,614.754L84.779,611.621Z" style="fill:rgb(251,219,78);fill-rule:nonzero;"/>
                <path d="M52.035,605.276L57.409,608.33L48.922,613.904L52.035,605.276Z" style="fill:rgb(252,180,20);fill-rule:nonzero;"/>
                <path d="M68.535,622.418L67.199,616.963L63.086,620.881L68.535,622.418Z" style="fill:rgb(241,94,35);fill-rule:nonzero;"/>
                <path d="M80.258,605.93L84.779,611.621L92.913,606.922L80.258,605.93Z" style="fill:rgb(251,173,23);fill-rule:nonzero;"/>
                <path d="M72.884,611.928L84.779,611.621L79.541,620.391L72.884,611.928Z" style="fill:rgb(247,145,29);fill-rule:nonzero;"/>
                <path d="M80.258,605.93L72.884,611.928L84.779,611.621L80.258,605.93Z" style="fill:rgb(252,194,16);fill-rule:nonzero;"/>
                <path d="M66.267,612.219L67.994,604.367L72.884,611.928L66.267,612.219Z" style="fill:rgb(251,219,78);fill-rule:nonzero;"/>
                <path d="M67.994,604.367L80.258,605.93L72.884,611.928L67.994,604.367Z" style="fill:rgb(251,173,23);fill-rule:nonzero;"/>
                <path d="M81.066,600.201L80.258,605.93L67.994,604.367L81.066,600.201Z" style="fill:rgb(252,194,16);fill-rule:nonzero;"/>
                <path d="M81.066,600.201L88.181,601.811L80.258,605.93L81.066,600.201Z" style="fill:rgb(251,219,78);fill-rule:nonzero;"/>
                <path d="M60.242,600.201L57.409,608.316L67.994,604.367L60.242,600.201Z" style="fill:rgb(251,242,125);fill-rule:nonzero;"/>
                <path d="M79.435,620.391L88.535,620.391L91.067,625.76L79.435,620.391Z" style="fill:rgb(247,143,30);fill-rule:nonzero;"/>
                <path d="M84.779,611.621L88.535,620.391L95.418,621.522L84.779,611.621Z" style="fill:rgb(247,143,30);fill-rule:nonzero;"/>
                <path d="M79.541,620.391L88.535,620.391L84.779,611.621L79.541,620.391Z" style="fill:rgb(251,219,78);fill-rule:nonzero;"/>
                <path d="M72.884,611.928L74.574,627.449L79.541,620.391L72.884,611.928Z" style="fill:rgb(252,194,16);fill-rule:nonzero;"/>
                <path d="M55.635,654.186L58.973,649.281L49.695,646.947L55.635,654.186Z" style="fill:rgb(219,33,40);fill-rule:nonzero;"/>
                <path d="M64.612,656.486L55.635,654.186L58.973,649.281L64.612,656.486Z" style="fill:rgb(140,26,27);fill-rule:nonzero;"/>
                <path d="M49.695,646.947L63.673,642.348L58.973,649.281L49.695,646.947Z" style="fill:rgb(161,29,33);fill-rule:nonzero;"/>
                <path d="M53.947,625.76L62.496,628.344L55.15,633.016L53.947,625.76Z" style="fill:rgb(240,77,34);fill-rule:nonzero;"/>
                <path d="M60.279,623.637L53.947,625.76L62.496,628.344L60.279,623.637Z" style="fill:rgb(243,113,33);fill-rule:nonzero;"/>
                <path d="M49.695,646.947L63.673,642.348L58.974,638.975L49.695,646.947Z" style="fill:rgb(239,57,36);fill-rule:nonzero;"/>
                <path d="M58.973,649.281L64.612,656.486L63.673,642.348L58.973,649.281Z" style="fill:rgb(183,32,38);fill-rule:nonzero;"/>
                <path d="M57.409,608.316L58.973,613.654L48.922,613.891L57.409,608.316Z" style="fill:rgb(247,145,29);fill-rule:nonzero;"/>
                <path d="M57.409,608.316L67.994,604.367L58.973,613.654L57.409,608.316Z" style="fill:rgb(255,200,6);fill-rule:nonzero;"/>
                <path d="M60.279,618.559L63.086,620.881L67.199,616.963L60.279,618.559Z" style="fill:rgb(247,145,29);fill-rule:nonzero;"/>
                <path d="M67.994,604.367L66.267,612.219L58.973,613.654L67.994,604.367Z" style="fill:rgb(251,173,23);fill-rule:nonzero;"/>
                <path d="M79.129,642.033L83.725,648.533L87.668,641.553L79.129,642.033Z" style="fill:rgb(163,30,33);fill-rule:nonzero;"/>
                <path d="M87.668,641.553L79.129,642.033L79.541,634.852L87.668,641.553Z" style="fill:rgb(239,56,42);fill-rule:nonzero;"/>
                <path d="M58.973,613.654L48.922,620.031L48.922,613.891L58.973,613.654Z" style="fill:rgb(251,219,78);fill-rule:nonzero;"/>
                <path d="M71.524,637.18L79.541,634.852L74.574,627.449L71.524,637.18Z" style="fill:rgb(238,39,43);fill-rule:nonzero;"/>
                <path d="M71.524,637.18L79.129,642.033L79.541,634.852L71.524,637.18Z" style="fill:rgb(241,88,35);fill-rule:nonzero;"/>
                <path d="M48.922,620.031L60.279,618.559L58.973,613.654L48.922,620.031Z" style="fill:rgb(255,200,6);fill-rule:nonzero;"/>
                <path d="M55.15,633.016L58.974,638.975L63.944,633.588L55.15,633.016Z" style="fill:rgb(241,94,39);fill-rule:nonzero;"/>
                <path d="M71.524,637.18L58.974,638.975L63.944,633.588L71.524,637.18Z" style="fill:rgb(239,56,42);fill-rule:nonzero;"/>
                <path d="M62.496,628.344L63.944,633.588L71.524,637.18L62.496,628.344Z" style="fill:rgb(244,117,32);fill-rule:nonzero;"/>
                <path d="M55.15,633.016L63.944,633.588L62.496,628.344L55.15,633.016Z" style="fill:rgb(238,39,43);fill-rule:nonzero;"/>
                <path d="M60.279,618.559L66.267,612.219L58.973,613.654L60.279,618.559Z" style="fill:rgb(251,219,78);fill-rule:nonzero;"/>
                <path d="M67.199,616.963L66.267,612.219L60.279,618.559L67.199,616.963Z" style="fill:rgb(251,173,23);fill-rule:nonzero;"/>
                <path d="M72.884,611.928L67.199,616.963L66.267,612.219L72.884,611.928Z" style="fill:rgb(252,194,16);fill-rule:nonzero;"/>
                <path d="M68.535,622.418L72.884,611.928L74.574,627.449L68.535,622.418Z" style="fill:rgb(251,219,78);fill-rule:nonzero;"/>
                <path d="M67.199,616.963L68.535,622.418L72.884,611.928L67.199,616.963Z" style="fill:rgb(251,173,23);fill-rule:nonzero;"/>
                <path d="M86.893,628.141L92.627,631.787L91.067,625.76L86.893,628.141Z" style="fill:rgb(241,88,35);fill-rule:nonzero;"/>
                <path d="M92.627,631.787L95.418,637.52L95.418,631.787L92.627,631.787Z" style="fill:rgb(241,88,35);fill-rule:nonzero;"/>
                <path d="M91.067,625.76L95.418,631.787L95.418,621.522L91.067,625.76Z" style="fill:rgb(185,33,39);fill-rule:nonzero;"/>
                <path d="M95.418,631.787L92.627,631.787L91.067,625.76L95.418,631.787Z" style="fill:rgb(239,56,42);fill-rule:nonzero;"/>
                <path d="M49.695,646.947L48.922,637.961L58.974,638.975L49.695,646.947Z" style="fill:rgb(140,26,27);fill-rule:nonzero;"/>
                <path d="M55.15,633.016L48.922,637.961L58.974,638.975L55.15,633.016Z" style="fill:rgb(244,117,32);fill-rule:nonzero;"/>
                <path d="M53.947,625.76L48.922,637.961L55.15,633.016L53.947,625.76Z" style="fill:rgb(238,39,43);fill-rule:nonzero;"/>
                <path d="M53.947,625.76L48.922,631.15L48.922,637.961L53.947,625.76Z" style="fill:rgb(239,56,42);fill-rule:nonzero;"/>
                <path d="M60.279,623.637L62.496,628.344L68.535,622.418L60.279,623.637Z" style="fill:rgb(251,219,78);fill-rule:nonzero;"/>
                <path d="M63.086,620.881L60.279,623.637L68.535,622.418L63.086,620.881Z" style="fill:rgb(252,194,16);fill-rule:nonzero;"/>
                <path d="M60.279,623.637L56.977,620.881L60.279,618.559L60.279,623.637Z" style="fill:rgb(244,117,32);fill-rule:nonzero;"/>
                <path d="M63.086,620.881L60.279,623.637L60.279,618.559L63.086,620.881Z" style="fill:rgb(251,219,78);fill-rule:nonzero;"/>
                <path d="M53.947,625.76L56.977,620.881L60.279,623.637L53.947,625.76Z" style="fill:rgb(252,194,16);fill-rule:nonzero;"/>
                <path d="M48.922,631.15L48.922,624.266L53.947,625.76L48.922,631.15Z" style="fill:rgb(244,117,32);fill-rule:nonzero;"/>
                <path d="M48.922,620.031L56.977,620.881L48.922,624.266L48.922,620.031Z" style="fill:rgb(251,219,78);fill-rule:nonzero;"/>
                <path d="M60.279,618.559L56.977,620.881L48.922,620.031L60.279,618.559Z" style="fill:rgb(251,173,23);fill-rule:nonzero;"/>
                <path d="M53.947,625.76L48.922,624.266L56.977,620.881L53.947,625.76Z" style="fill:rgb(247,145,29);fill-rule:nonzero;"/>
                <path d="M52.035,605.276L57.409,608.316L60.242,600.201L52.035,605.276Z" style="fill:rgb(255,200,6);fill-rule:nonzero;"/>
                <path d="M60.242,600.201L67.994,604.367L71.299,600.201L60.242,600.201Z" style="fill:rgb(251,219,78);fill-rule:nonzero;"/>
                <path d="M81.066,600.201L67.994,604.367L71.299,600.201L81.066,600.201Z" style="fill:rgb(251,173,23);fill-rule:nonzero;"/>
                <path d="M78.6,656.486L64.612,656.486L55.635,654.186L49.695,646.947L48.921,637.961L48.921,613.891L48.928,613.887L52.035,605.276L48.928,613.886L48.922,613.891L48.927,613.89L48.922,613.891L48.922,620.031L58.973,613.654L48.944,613.89L58.973,613.654L67.994,604.367L58.973,613.654L66.267,612.219L72.884,611.928L79.541,620.391L72.884,611.928L74.574,627.449L72.884,611.928L67.199,616.963L72.884,611.928L66.267,612.219L60.279,618.559L66.267,612.219L58.973,613.654L48.922,620.031L60.279,618.559L63.086,620.881L68.535,622.418L63.086,620.881L60.279,618.559L48.922,620.031L48.922,637.961L49.695,646.947L55.635,654.186L58.973,649.281L55.635,654.186L64.612,656.486L63.673,642.348L58.973,649.281L63.673,642.348L58.974,638.975L63.673,642.348L73.885,648.402L63.673,642.348L64.612,656.486L78.6,656.486L73.885,648.402L71.524,637.18L73.885,648.402L78.6,656.486L83.725,648.533L78.6,656.486ZM57.404,608.32L57.408,608.316L52.035,605.276L57.409,608.316L57.404,608.32Z" style="fill:rgb(3,4,4);fill-rule:nonzero;"/>
                <path d="M91.611,652.408L83.725,648.533L95.418,645.582L91.611,652.408Z" style="fill:rgb(11,80,114);fill-rule:nonzero;"/>
                <path d="M95.418,645.582L87.668,641.553L95.418,637.52L95.418,645.582Z" style="fill:rgb(50,177,230);fill-rule:nonzero;"/>
                <path d="M83.725,648.533L87.668,641.553L95.418,645.582L83.725,648.533Z" style="fill:rgb(9,106,151);fill-rule:nonzero;"/>
                <path d="M87.668,641.553L92.627,631.787L95.418,637.52L87.668,641.553Z" style="fill:rgb(11,140,196);fill-rule:nonzero;"/>
                <path d="M79.541,634.852L86.893,628.141L92.627,631.787L79.541,634.852Z" style="fill:rgb(11,140,196);fill-rule:nonzero;"/>
                <path d="M87.668,641.553L79.541,634.852L92.627,631.787L87.668,641.553Z" style="fill:rgb(50,177,230);fill-rule:nonzero;"/>
                <path d="M83.725,648.533L73.885,648.402L79.129,642.033L83.725,648.533Z" style="fill:rgb(9,106,151);fill-rule:nonzero;"/>
                <path d="M85.327,655.671L83.725,648.533L91.611,652.408L85.327,655.671Z" style="fill:rgb(9,106,151);fill-rule:nonzero;"/>
                <path d="M78.6,656.486L73.885,648.402L83.725,648.533L78.6,656.486Z" style="fill:rgb(12,118,170);fill-rule:nonzero;"/>
                <path d="M78.6,656.486L83.725,648.533L85.327,655.671L85.326,655.672L78.6,656.486Z" style="fill:rgb(11,80,114);fill-rule:nonzero;"/>
                <path d="M73.885,648.402L71.524,637.18L79.129,642.033L73.885,648.402Z" style="fill:rgb(11,140,196);fill-rule:nonzero;"/>
                <path d="M78.6,656.486L64.612,656.486L73.885,648.402L78.6,656.486Z" style="fill:rgb(9,106,151);fill-rule:nonzero;"/>
                <path d="M73.885,648.402L63.673,642.348L71.524,637.18L73.885,648.402Z" style="fill:rgb(12,118,170);fill-rule:nonzero;"/>
                <path d="M79.541,634.852L74.574,627.449L86.893,628.141L79.541,634.852Z" style="fill:rgb(26,160,216);fill-rule:nonzero;"/>
                <path d="M63.673,642.348L58.974,638.975L71.524,637.18L63.673,642.348Z" style="fill:rgb(38,168,224);fill-rule:nonzero;"/>
                <path d="M71.524,637.18L62.496,628.344L74.574,627.449L71.524,637.18Z" style="fill:rgb(13,143,199);fill-rule:nonzero;"/>
                <path d="M64.612,656.486L63.673,642.348L73.885,648.402L64.612,656.486Z" style="fill:rgb(12,86,123);fill-rule:nonzero;"/>
                <path d="M62.496,628.344L68.535,622.418L74.574,627.449L62.496,628.344Z" style="fill:rgb(76,192,238);fill-rule:nonzero;"/>
                <path d="M86.893,628.141L74.574,627.449L79.515,620.428L79.624,620.478L86.893,628.141Z" style="fill:rgb(50,177,230);fill-rule:nonzero;"/>
                <path d="M95.418,621.522L84.779,611.621L95.418,614.754L95.418,621.522Z" style="fill:rgb(106,203,244);fill-rule:nonzero;"/>
                <path d="M86.893,628.141L79.624,620.478L91.067,625.76L86.893,628.141Z" style="fill:rgb(19,134,190);fill-rule:nonzero;"/>
                <path d="M91.067,625.76L88.535,620.391L95.418,621.522L91.067,625.76Z" style="fill:rgb(50,177,230);fill-rule:nonzero;"/>
                <path d="M92.913,606.922L80.258,605.93L88.18,601.811L92.913,606.922Z" style="fill:rgb(127,212,247);fill-rule:nonzero;"/>
                <path d="M95.418,614.754L84.779,611.621L92.913,606.922L95.418,614.754Z" style="fill:rgb(173,225,250);fill-rule:nonzero;"/>
                <path d="M48.928,613.886L52.035,605.276L57.398,608.324L48.928,613.886Z" style="fill:rgb(113,207,246);fill-rule:nonzero;"/>
                <path d="M68.535,622.418L63.086,620.881L67.199,616.963L68.535,622.418Z" style="fill:rgb(28,163,219);fill-rule:nonzero;"/>
                <path d="M84.779,611.621L80.258,605.93L92.913,606.922L84.779,611.621Z" style="fill:rgb(106,203,244);fill-rule:nonzero;"/>
                <path d="M79.541,620.391L72.884,611.928L84.779,611.621L79.541,620.391Z" style="fill:rgb(78,192,238);fill-rule:nonzero;"/>
                <path d="M72.884,611.928L80.258,605.93L84.779,611.621L72.884,611.928Z" style="fill:rgb(127,212,247);fill-rule:nonzero;"/>
                <path d="M66.267,612.219L67.994,604.367L72.884,611.928L66.267,612.219Z" style="fill:rgb(173,225,250);fill-rule:nonzero;"/>
                <path d="M72.884,611.928L67.994,604.367L80.258,605.93L72.884,611.928Z" style="fill:rgb(106,203,244);fill-rule:nonzero;"/>
                <path d="M80.258,605.93L67.994,604.367L81.066,600.201L80.258,605.93Z" style="fill:rgb(127,212,247);fill-rule:nonzero;"/>
                <path d="M80.258,605.93L81.066,600.201L88.18,601.811L80.258,605.93Z" style="fill:rgb(173,225,250);fill-rule:nonzero;"/>
                <path d="M57.409,608.316L60.242,600.201L67.994,604.367L57.409,608.316Z" style="fill:rgb(206,237,252);fill-rule:nonzero;"/>
                <path d="M91.067,625.76L79.624,620.478L79.515,620.428L79.541,620.391L88.535,620.391L91.067,625.76Z" style="fill:rgb(76,192,238);fill-rule:nonzero;"/>
                <path d="M95.418,621.522L88.535,620.391L84.779,611.621L95.418,621.522Z" style="fill:rgb(76,192,238);fill-rule:nonzero;"/>
                <path d="M88.535,620.391L79.541,620.391L84.779,611.621L88.535,620.391Z" style="fill:rgb(173,225,250);fill-rule:nonzero;"/>
                <path d="M74.574,627.449L72.884,611.928L79.541,620.391L79.515,620.428L74.574,627.449Z" style="fill:rgb(127,212,247);fill-rule:nonzero;"/>
                <path d="M55.635,654.186L49.695,646.947L58.973,649.281L55.635,654.186Z" style="fill:rgb(12,118,170);fill-rule:nonzero;"/>
                <path d="M64.612,656.486L55.635,654.186L58.973,649.281L64.612,656.486Z" style="fill:rgb(11,80,114);fill-rule:nonzero;"/>
                <path d="M58.973,649.281L49.695,646.947L63.673,642.348L58.973,649.281Z" style="fill:rgb(13,89,127);fill-rule:nonzero;"/>
                <path d="M55.15,633.016L53.947,625.76L62.496,628.344L55.15,633.016Z" style="fill:rgb(27,153,209);fill-rule:nonzero;"/>
                <path d="M62.496,628.344L53.947,625.76L60.279,623.637L62.496,628.344Z" style="fill:rgb(48,174,228);fill-rule:nonzero;"/>
                <path d="M49.695,646.947L58.974,638.975L63.673,642.348L49.695,646.947Z" style="fill:rgb(11,140,196);fill-rule:nonzero;"/>
                <path d="M64.612,656.486L58.973,649.281L63.673,642.348L64.612,656.486Z" style="fill:rgb(7,103,147);fill-rule:nonzero;"/>
                <path d="M48.922,613.891L48.928,613.886L57.398,608.324L57.404,608.32L57.409,608.316L58.973,613.654L48.944,613.89L48.927,613.89L48.922,613.891Z" style="fill:rgb(78,192,238);fill-rule:nonzero;"/>
                <path d="M58.973,613.654L57.409,608.316L67.994,604.367L58.973,613.654Z" style="fill:rgb(132,213,247);fill-rule:nonzero;"/>
                <path d="M63.086,620.881L60.279,618.559L67.199,616.963L63.086,620.881Z" style="fill:rgb(78,192,238);fill-rule:nonzero;"/>
                <path d="M58.973,613.654L67.994,604.367L66.267,612.219L58.973,613.654Z" style="fill:rgb(106,203,244);fill-rule:nonzero;"/>
                <path d="M83.725,648.533L79.129,642.033L87.668,641.553L83.725,648.533Z" style="fill:rgb(13,89,127);fill-rule:nonzero;"/>
                <path d="M79.129,642.033L79.541,634.852L87.668,641.553L79.129,642.033Z" style="fill:rgb(11,140,196);fill-rule:nonzero;"/>
                <path d="M48.922,620.031L48.922,613.891L48.927,613.89L48.944,613.89L58.973,613.654L48.922,620.031Z" style="fill:rgb(173,225,250);fill-rule:nonzero;"/>
                <path d="M71.524,637.18L74.574,627.449L79.541,634.852L71.524,637.18Z" style="fill:rgb(19,130,186);fill-rule:nonzero;"/>
                <path d="M79.129,642.033L71.524,637.18L79.541,634.852L79.129,642.033Z" style="fill:rgb(26,160,216);fill-rule:nonzero;"/>
                <path d="M48.922,620.031L58.973,613.654L60.279,618.559L48.922,620.031Z" style="fill:rgb(132,213,247);fill-rule:nonzero;"/>
                <path d="M58.974,638.975L55.15,633.016L63.944,633.588L58.974,638.975Z" style="fill:rgb(30,164,220);fill-rule:nonzero;"/>
                <path d="M58.974,638.975L63.944,633.588L71.524,637.18L58.974,638.975Z" style="fill:rgb(11,140,196);fill-rule:nonzero;"/>
                <path d="M71.524,637.18L63.944,633.588L62.496,628.344L71.524,637.18Z" style="fill:rgb(50,177,230);fill-rule:nonzero;"/>
                <path d="M63.944,633.588L55.15,633.016L62.496,628.344L63.944,633.588Z" style="fill:rgb(19,130,186);fill-rule:nonzero;"/>
                <path d="M60.279,618.559L58.973,613.654L66.267,612.219L60.279,618.559Z" style="fill:rgb(173,225,250);fill-rule:nonzero;"/>
                <path d="M60.279,618.559L66.267,612.219L67.199,616.963L60.279,618.559Z" style="fill:rgb(106,203,244);fill-rule:nonzero;"/>
                <path d="M67.199,616.963L66.267,612.219L72.884,611.928L67.199,616.963Z" style="fill:rgb(127,212,247);fill-rule:nonzero;"/>
                <path d="M74.574,627.449L68.535,622.418L72.884,611.928L74.574,627.449Z" style="fill:rgb(173,225,250);fill-rule:nonzero;"/>
                <path d="M68.535,622.418L67.199,616.963L72.884,611.928L68.535,622.418Z" style="fill:rgb(106,203,244);fill-rule:nonzero;"/>
                <path d="M92.627,631.787L86.893,628.141L91.067,625.76L92.627,631.787Z" style="fill:rgb(26,160,216);fill-rule:nonzero;"/>
                <path d="M95.418,637.52L92.627,631.787L95.418,631.787L95.418,637.52Z" style="fill:rgb(26,160,216);fill-rule:nonzero;"/>
                <path d="M95.418,631.787L91.067,625.76L95.418,621.522L95.418,631.787Z" style="fill:rgb(9,106,151);fill-rule:nonzero;"/>
                <path d="M95.418,631.787L92.627,631.787L91.067,625.76L95.418,631.787Z" style="fill:rgb(11,140,196);fill-rule:nonzero;"/>
                <path d="M49.695,646.947L48.922,637.961L58.974,638.975L49.695,646.947Z" style="fill:rgb(11,80,114);fill-rule:nonzero;"/>
                <path d="M58.974,638.975L48.922,637.961L55.15,633.016L58.974,638.975Z" style="fill:rgb(50,177,230);fill-rule:nonzero;"/>
                <path d="M48.922,637.961L53.947,625.76L55.15,633.016L48.922,637.961Z" style="fill:rgb(19,130,186);fill-rule:nonzero;"/>
                <path d="M48.922,637.961L48.922,631.15L53.947,625.76L48.922,637.961Z" style="fill:rgb(11,140,196);fill-rule:nonzero;"/>
                <path d="M62.496,628.344L60.279,623.637L68.535,622.418L62.496,628.344Z" style="fill:rgb(173,225,250);fill-rule:nonzero;"/>
                <path d="M60.279,623.637L63.086,620.881L68.535,622.418L60.279,623.637Z" style="fill:rgb(127,212,247);fill-rule:nonzero;"/>
                <path d="M60.279,623.637L56.977,620.881L60.279,618.559L60.279,623.637Z" style="fill:rgb(50,177,230);fill-rule:nonzero;"/>
                <path d="M60.279,623.637L60.279,618.559L63.086,620.881L60.279,623.637Z" style="fill:rgb(173,225,250);fill-rule:nonzero;"/>
                <path d="M53.947,625.76L56.977,620.881L60.279,623.637L53.947,625.76Z" style="fill:rgb(127,212,247);fill-rule:nonzero;"/>
                <path d="M48.922,631.15L48.922,624.266L53.947,625.76L48.922,631.15Z" style="fill:rgb(50,177,230);fill-rule:nonzero;"/>
                <path d="M48.922,624.266L48.922,620.031L56.977,620.881L48.922,624.266Z" style="fill:rgb(173,225,250);fill-rule:nonzero;"/>
                <path d="M56.977,620.881L48.922,620.031L60.279,618.559L56.977,620.881Z" style="fill:rgb(106,203,244);fill-rule:nonzero;"/>
                <path d="M52.035,605.276L60.241,600.201L60.242,600.201L52.035,605.276Z" style="fill:rgb(3,4,4);fill-rule:nonzero;"/>
                <path d="M53.947,625.76L48.922,624.266L56.977,620.881L53.947,625.76Z" style="fill:rgb(78,192,238);fill-rule:nonzero;"/>
                <path d="M57.409,608.316L52.035,605.276L60.242,600.201L57.409,608.316Z" style="fill:rgb(132,213,247);fill-rule:nonzero;"/>
                <path d="M67.994,604.367L60.242,600.201L71.299,600.201L67.994,604.367Z" style="fill:rgb(173,225,250);fill-rule:nonzero;"/>
                <path d="M67.994,604.367L71.299,600.201L81.066,600.201L67.994,604.367Z" style="fill:rgb(106,203,244);fill-rule:nonzero;"/>
            </g>
        </g>
    </g>
</svg>
