<?xml version="1.0" encoding="UTF-8" standalone="no"?>
<!DOCTYPE svg PUBLIC "-//W3C//DTD SVG 1.1//EN" "http://www.w3.org/Graphics/SVG/1.1/DTD/svg11.dtd">
<svg width="100%" height="100%" viewBox="0 0 151 236" version="1.1" xmlns="http://www.w3.org/2000/svg" xmlns:xlink="http://www.w3.org/1999/xlink" xml:space="preserve" xmlns:serif="http://www.serif.com/" style="fill-rule:evenodd;clip-rule:evenodd;stroke-linejoin:round;stroke-miterlimit:2;">
    <g transform="matrix(1,0,0,1,-247,0)">
        <g id="アートボード3" transform="matrix(1,0,0,1,-203.351,-2500)">
            <rect x="450.351" y="2500" width="150.186" height="235.392" style="fill:none;"/>
            <clipPath id="_clip1">
                <rect x="450.351" y="2500" width="150.186" height="235.392"/>
            </clipPath>
            <g clip-path="url(#_clip1)">
                <g transform="matrix(4.16667,0,0,4.16667,0.351369,0)">
                    <path d="M122.926,616.471L115.254,622.574L111.018,617.545L122.926,616.471Z" style="fill:rgb(253,210,76);fill-rule:nonzero;"/>
                    <path d="M111.02,617.547L108.058,622.574L115.254,622.574L111.02,617.547Z" style="fill:rgb(250,163,26);fill-rule:nonzero;"/>
                    <path d="M120.881,622.574L127.519,628.875L120.889,636.272L120.881,622.574Z" style="fill:rgb(246,138,30);fill-rule:nonzero;"/>
                    <path d="M127.519,628.875L129.673,642.117L120.889,636.272L127.519,628.875Z" style="fill:rgb(239,72,39);fill-rule:nonzero;"/>
                    <path d="M120.889,649.217L129.673,642.117L120.889,636.272L120.889,649.217Z" style="fill:rgb(185,33,39);fill-rule:nonzero;"/>
                    <path d="M122.926,616.471L121.596,607.867L113.624,613.106L122.926,616.471Z" style="fill:rgb(250,163,26);fill-rule:nonzero;"/>
                    <path d="M117.556,606.162L121.596,607.867L113.624,613.106L117.556,606.162Z" style="fill:rgb(253,210,76);fill-rule:nonzero;"/>
                    <path d="M121.596,607.867L120.889,600.209L117.556,606.162L121.596,607.867Z" style="fill:rgb(250,224,7);fill-rule:nonzero;"/>
                    <path d="M130.007,609.965L138.522,616.748L132.512,600.209L130.007,609.965Z" style="fill:rgb(252,194,16);fill-rule:nonzero;"/>
                    <path d="M122.926,616.471L131.79,616.981L130.007,609.965L122.926,616.471Z" style="fill:rgb(253,210,76);fill-rule:nonzero;"/>
                    <path d="M131.79,616.981L127.519,628.875L122.926,616.471L131.79,616.981Z" style="fill:rgb(252,194,16);fill-rule:nonzero;"/>
                    <path d="M127.519,628.875L120.881,622.574L122.926,616.471L127.519,628.875Z" style="fill:rgb(244,117,32);fill-rule:nonzero;"/>
                    <path d="M139.761,600.209L139.87,609.58L132.512,600.209L139.761,600.209Z" style="fill:rgb(252,194,16);fill-rule:nonzero;"/>
                    <path d="M139.87,609.58L138.522,616.748L132.512,600.209L139.87,609.58Z" style="fill:rgb(251,219,78);fill-rule:nonzero;"/>
                    <path d="M144.021,600.209L139.87,609.58L139.761,600.209L144.021,600.209Z" style="fill:rgb(250,224,7);fill-rule:nonzero;"/>
                    <path d="M144.129,610.561L139.87,609.58L144.021,600.209L144.129,610.561Z" style="fill:rgb(252,194,16);fill-rule:nonzero;"/>
                    <path d="M139.87,609.58L144.129,616.699L138.522,616.748L139.87,609.58Z" style="fill:rgb(252,180,20);fill-rule:nonzero;"/>
                    <path d="M144.129,610.561L144.129,616.699L139.87,609.58L144.129,610.561Z" style="fill:rgb(247,239,109);fill-rule:nonzero;"/>
                    <path d="M144.129,616.699L144.129,629.168L138.522,616.748L144.129,616.699Z" style="fill:rgb(250,163,26);fill-rule:nonzero;"/>
                    <path d="M144.129,629.168L136.409,635.076L134.116,626.473L144.129,629.168Z" style="fill:rgb(246,138,30);fill-rule:nonzero;"/>
                    <path d="M136.409,635.076L139.87,642.625L144.129,629.168L136.409,635.076Z" style="fill:rgb(250,163,26);fill-rule:nonzero;"/>
                    <path d="M139.87,642.625L129.673,642.117L136.409,635.076L139.87,642.625Z" style="fill:rgb(239,57,36);fill-rule:nonzero;"/>
                    <path d="M144.129,651.076L144.129,643.057L139.87,642.625L144.129,651.076Z" style="fill:rgb(185,33,39);fill-rule:nonzero;"/>
                    <path d="M144.129,643.057L144.129,629.168L139.87,642.625L144.129,643.057Z" style="fill:rgb(239,65,40);fill-rule:nonzero;"/>
                    <path d="M139.87,642.625L133.711,656.494L129.673,642.117L139.87,642.625Z" style="fill:rgb(163,30,33);fill-rule:nonzero;"/>
                    <path d="M144.129,651.076L133.711,656.494L139.87,642.625L144.129,651.076Z" style="fill:rgb(219,33,40);fill-rule:nonzero;"/>
                    <path d="M144.129,656.494L144.129,651.076L133.711,656.494L144.129,656.494Z" style="fill:rgb(140,26,27);fill-rule:nonzero;"/>
                    <path d="M133.711,656.494L120.889,649.217L129.673,642.117L133.711,656.494Z" style="fill:rgb(219,33,40);fill-rule:nonzero;"/>
                    <path d="M133.711,656.494L120.889,649.217L120.882,656.486L133.711,656.494Z" style="fill:rgb(130,26,27);fill-rule:nonzero;"/>
                    <path d="M111.018,617.545L122.926,616.471L113.624,613.106L111.018,617.545Z" style="fill:rgb(250,224,7);fill-rule:nonzero;"/>
                    <path d="M132.512,600.209L130.007,609.965L121.596,607.867L132.512,600.209Z" style="fill:rgb(253,210,76);fill-rule:nonzero;"/>
                    <path d="M121.596,607.867L122.926,616.471L130.007,609.965L121.596,607.867Z" style="fill:rgb(252,180,20);fill-rule:nonzero;"/>
                    <path d="M120.889,600.209L121.596,607.867L132.512,600.209L120.889,600.209Z" style="fill:rgb(252,194,16);fill-rule:nonzero;"/>
                    <path d="M134.116,626.473L129.673,642.117L127.519,628.875L134.116,626.473Z" style="fill:rgb(250,163,26);fill-rule:nonzero;"/>
                    <path d="M134.116,626.473L136.409,635.076L129.673,642.117L134.116,626.473Z" style="fill:rgb(244,117,32);fill-rule:nonzero;"/>
                    <path d="M131.79,616.981L127.519,628.875L134.116,626.473L131.79,616.981Z" style="fill:rgb(245,127,31);fill-rule:nonzero;"/>
                    <path d="M138.522,616.748L144.129,629.168L134.116,626.473L138.522,616.748Z" style="fill:rgb(250,224,7);fill-rule:nonzero;"/>
                    <path d="M131.79,616.981L130.007,609.965L138.522,616.748L131.79,616.981Z" style="fill:rgb(247,239,109);fill-rule:nonzero;"/>
                    <path d="M131.79,616.981L134.116,626.473L138.522,616.748L131.79,616.981Z" style="fill:rgb(249,158,27);fill-rule:nonzero;"/>
                    <path d="M122.926,616.471L115.254,622.574L120.881,622.574L122.926,616.471Z" style="fill:rgb(250,163,26);fill-rule:nonzero;"/>
                    <path d="M144.129,656.494L133.711,656.494L120.881,656.486L120.889,649.217L120.882,656.486L133.711,656.494L120.889,649.217L133.711,656.494L129.673,642.117L133.711,656.494L139.87,642.625L129.673,642.117L139.87,642.625L136.409,635.076L134.116,626.473L136.409,635.076L144.129,629.168L136.409,635.076L139.87,642.625L144.129,629.168L139.87,642.625L144.129,651.076L144.129,629.168L138.522,616.748L130.007,609.965L138.522,616.748L139.87,609.58L144.02,600.211L139.87,609.58L144.129,610.561L139.87,609.58L138.522,616.748L144.129,616.699L144.129,610.561L144.129,656.494ZM144.129,651.076L133.711,656.494L144.129,656.494L144.129,651.076ZM139.87,642.625L133.711,656.494L144.129,651.076L139.87,642.625ZM144.129,616.699L138.522,616.748L144.129,629.168L144.129,616.699ZM129.673,642.117L120.889,636.272L120.881,622.574L108.057,622.574L111.02,617.547L108.058,622.574L115.254,622.574L122.926,616.471L115.254,622.574L120.881,622.574L120.889,636.272L127.519,628.875L120.889,636.272L129.673,642.117ZM113.624,613.106L117.555,606.162L120.889,600.209L117.556,606.162L113.624,613.106Z" style="fill:rgb(3,4,4);"/>
                    <path d="M115.254,622.574L111.02,617.547L111.018,617.545L122.926,616.471L115.254,622.574Z" style="fill:rgb(161,222,249);fill-rule:nonzero;"/>
                    <path d="M115.254,622.574L108.058,622.574L111.02,617.547L115.254,622.574Z" style="fill:rgb(96,200,243);fill-rule:nonzero;"/>
                    <path d="M120.889,636.272L120.881,622.574L127.519,628.875L120.889,636.272Z" style="fill:rgb(72,188,236);fill-rule:nonzero;"/>
                    <path d="M129.673,642.117L120.889,636.272L127.519,628.875L129.673,642.117Z" style="fill:rgb(24,150,206);fill-rule:nonzero;"/>
                    <path d="M120.889,649.217L120.889,636.272L129.673,642.117L120.889,649.217Z" style="fill:rgb(9,106,151);fill-rule:nonzero;"/>
                    <path d="M122.926,616.471L113.624,613.106L121.596,607.867L122.926,616.471Z" style="fill:rgb(96,200,243);fill-rule:nonzero;"/>
                    <path d="M113.624,613.106L117.556,606.162L121.596,607.867L113.624,613.106Z" style="fill:rgb(161,222,249);fill-rule:nonzero;"/>
                    <path d="M121.596,607.867L117.556,606.162L120.889,600.209L121.596,607.867Z" style="fill:rgb(162,222,249);fill-rule:nonzero;"/>
                    <path d="M138.522,616.748L130.007,609.965L132.512,600.209L138.522,616.748Z" style="fill:rgb(127,212,247);fill-rule:nonzero;"/>
                    <path d="M131.79,616.981L122.926,616.471L130.007,609.965L131.79,616.981Z" style="fill:rgb(161,222,249);fill-rule:nonzero;"/>
                    <path d="M127.519,628.875L122.926,616.471L131.79,616.981L127.519,628.875Z" style="fill:rgb(127,212,247);fill-rule:nonzero;"/>
                    <path d="M127.519,628.875L120.881,622.574L122.926,616.471L127.519,628.875Z" style="fill:rgb(50,177,230);fill-rule:nonzero;"/>
                    <path d="M139.87,609.58L132.512,600.209L139.761,600.209L139.87,609.58Z" style="fill:rgb(127,212,247);fill-rule:nonzero;"/>
                    <path d="M138.522,616.748L132.512,600.209L139.87,609.58L138.522,616.748Z" style="fill:rgb(173,225,250);fill-rule:nonzero;"/>
                    <path d="M139.87,609.58L139.761,600.209L144.02,600.209L144.02,600.211L139.87,609.58Z" style="fill:rgb(162,222,249);fill-rule:nonzero;"/>
                    <path d="M144.129,610.561L139.87,609.58L144.02,600.211L144.129,610.561Z" style="fill:rgb(127,212,247);fill-rule:nonzero;"/>
                    <path d="M138.522,616.748L139.87,609.58L144.129,616.699L138.522,616.748Z" style="fill:rgb(113,207,246);fill-rule:nonzero;"/>
                    <path d="M144.129,616.699L139.87,609.58L144.129,610.561L144.129,616.699Z" style="fill:rgb(213,239,252);fill-rule:nonzero;"/>
                    <path d="M144.129,629.168L138.522,616.748L144.129,616.699L144.129,629.168Z" style="fill:rgb(96,200,243);fill-rule:nonzero;"/>
                    <path d="M136.409,635.076L134.116,626.473L144.129,629.168L136.409,635.076Z" style="fill:rgb(72,188,236);fill-rule:nonzero;"/>
                    <path d="M139.87,642.625L136.409,635.076L144.129,629.168L139.87,642.625Z" style="fill:rgb(96,200,243);fill-rule:nonzero;"/>
                    <path d="M139.87,642.625L129.673,642.117L136.409,635.076L139.87,642.625Z" style="fill:rgb(11,140,196);fill-rule:nonzero;"/>
                    <path d="M144.129,651.076L139.87,642.625L144.129,643.057L144.129,651.076Z" style="fill:rgb(9,106,151);fill-rule:nonzero;"/>
                    <path d="M144.129,643.057L139.87,642.625L144.129,629.168L144.129,643.057Z" style="fill:rgb(17,146,202);fill-rule:nonzero;"/>
                    <path d="M133.711,656.494L129.673,642.117L139.87,642.625L133.711,656.494Z" style="fill:rgb(13,89,127);fill-rule:nonzero;"/>
                    <path d="M133.711,656.494L139.87,642.625L144.129,651.076L133.711,656.494Z" style="fill:rgb(12,118,170);fill-rule:nonzero;"/>
                    <path d="M144.129,656.494L133.711,656.494L144.129,651.076L144.129,656.494Z" style="fill:rgb(11,80,114);fill-rule:nonzero;"/>
                    <path d="M133.711,656.494L120.889,649.217L129.673,642.117L133.711,656.494Z" style="fill:rgb(12,118,170);fill-rule:nonzero;"/>
                    <path d="M133.711,656.494L120.882,656.486L120.889,649.217L133.711,656.494Z" style="fill:rgb(8,76,108);fill-rule:nonzero;"/>
                    <path d="M111.018,617.545L113.624,613.106L122.926,616.471L111.018,617.545Z" style="fill:rgb(162,222,249);fill-rule:nonzero;"/>
                    <path d="M130.007,609.965L121.596,607.867L132.512,600.209L130.007,609.965Z" style="fill:rgb(161,222,249);fill-rule:nonzero;"/>
                    <path d="M122.926,616.471L121.596,607.867L130.007,609.965L122.926,616.471Z" style="fill:rgb(113,207,246);fill-rule:nonzero;"/>
                    <path d="M121.596,607.867L120.889,600.209L132.512,600.209L121.596,607.867Z" style="fill:rgb(127,212,247);fill-rule:nonzero;"/>
                    <path d="M129.673,642.117L127.519,628.875L134.116,626.473L129.673,642.117Z" style="fill:rgb(96,200,243);fill-rule:nonzero;"/>
                    <path d="M129.673,642.117L134.116,626.473L136.409,635.076L129.673,642.117Z" style="fill:rgb(50,177,230);fill-rule:nonzero;"/>
                    <path d="M127.519,628.875L131.79,616.981L134.116,626.473L127.519,628.875Z" style="fill:rgb(63,183,233);fill-rule:nonzero;"/>
                    <path d="M144.129,629.168L134.116,626.473L138.522,616.748L144.129,629.168Z" style="fill:rgb(162,222,249);fill-rule:nonzero;"/>
                    <path d="M131.79,616.981L130.007,609.965L138.522,616.748L131.79,616.981Z" style="fill:rgb(213,239,252);fill-rule:nonzero;"/>
                    <path d="M134.116,626.473L131.79,616.981L138.522,616.748L134.116,626.473Z" style="fill:rgb(92,199,242);fill-rule:nonzero;"/>
                    <path d="M120.881,622.574L115.254,622.574L122.926,616.471L120.881,622.574Z" style="fill:rgb(96,200,243);fill-rule:nonzero;"/>
                </g>
            </g>
        </g>
    </g>
</svg>
