<?xml version="1.0" encoding="UTF-8" standalone="no"?>
<!DOCTYPE svg PUBLIC "-//W3C//DTD SVG 1.1//EN" "http://www.w3.org/Graphics/SVG/1.1/DTD/svg11.dtd">
<svg width="100%" height="100%" viewBox="0 0 198 236" version="1.1" xmlns="http://www.w3.org/2000/svg" xmlns:xlink="http://www.w3.org/1999/xlink" xml:space="preserve" xmlns:serif="http://www.serif.com/" style="fill-rule:evenodd;clip-rule:evenodd;stroke-linejoin:round;stroke-miterlimit:2;">
    <g transform="matrix(1,0,0,1,-461.494,0)">
        <g id="アートボード4" transform="matrix(0.987517,0,0,1,-192.564,-2500)">
            <rect x="662.325" y="2500" width="199.783" height="235.438" style="fill:none;"/>
            <clipPath id="_clip1">
                <rect x="662.325" y="2500" width="199.783" height="235.438"/>
            </clipPath>
            <g clip-path="url(#_clip1)">
                <g transform="matrix(4.21934,0,0,4.16667,-10.5678,0)">
                    <path d="M206.907,656.506L196.179,649.437L196.179,656.506L206.907,656.506Z" style="fill:rgb(130,26,27);fill-rule:nonzero;"/>
                    <path d="M206.907,647.205L196.179,649.437L206.907,656.506L206.907,647.205Z" style="fill:rgb(163,30,33);fill-rule:nonzero;"/>
                    <path d="M196.179,649.437L196.179,643.615L186.59,641.26L196.179,649.437Z" style="fill:rgb(239,56,42);fill-rule:nonzero;"/>
                    <path d="M206.907,647.205L202.668,638.803L196.179,643.615L206.907,647.205Z" style="fill:rgb(163,30,33);fill-rule:nonzero;"/>
                    <path d="M206.907,638.803L206.907,647.205L202.668,638.803L206.907,638.803Z" style="fill:rgb(130,26,27);fill-rule:nonzero;"/>
                    <path d="M206.907,647.205L196.179,649.437L196.179,643.615L206.907,647.205Z" style="fill:rgb(219,33,40);fill-rule:nonzero;"/>
                    <path d="M196.179,656.506L189.041,650.848L182.855,656.506L196.179,656.506Z" style="fill:rgb(163,30,33);fill-rule:nonzero;"/>
                    <path d="M186.59,641.26L196.179,649.437L189.041,650.848L186.59,641.26Z" style="fill:rgb(163,30,33);fill-rule:nonzero;"/>
                    <path d="M177.077,643.848L189.041,650.848L177.077,649.078L177.077,643.848Z" style="fill:rgb(163,30,33);fill-rule:nonzero;"/>
                    <path d="M182.855,656.506L177.077,649.078L189.041,650.848L182.855,656.506Z" style="fill:rgb(130,26,27);fill-rule:nonzero;"/>
                    <path d="M196.179,649.437L196.179,656.506L189.041,650.848L196.179,649.437Z" style="fill:rgb(219,33,40);fill-rule:nonzero;"/>
                    <path d="M170.891,651.324L182.855,656.506L177.077,649.078L170.891,651.324Z" style="fill:rgb(163,30,33);fill-rule:nonzero;"/>
                    <path d="M166.541,656.506L170.891,651.324L172.905,656.506L166.541,656.506Z" style="fill:rgb(163,30,33);fill-rule:nonzero;"/>
                    <path d="M168.715,644.543L170.891,651.324L177.077,649.078L168.715,644.543Z" style="fill:rgb(219,33,40);fill-rule:nonzero;"/>
                    <path d="M159.481,652.791L168.715,644.543L159.481,648.402L159.481,652.791Z" style="fill:rgb(130,26,27);fill-rule:nonzero;"/>
                    <path d="M170.891,651.324L159.481,652.791L168.715,644.543L170.891,651.324Z" style="fill:rgb(163,30,33);fill-rule:nonzero;"/>
                    <path d="M182.855,656.506L172.905,656.506L170.891,651.324L182.855,656.506Z" style="fill:rgb(219,33,40);fill-rule:nonzero;"/>
                    <path d="M166.541,656.506L159.481,652.791L170.891,651.324L166.541,656.506Z" style="fill:rgb(130,26,27);fill-rule:nonzero;"/>
                    <path d="M189.041,650.848L186.59,641.26L177.077,643.848L189.041,650.848Z" style="fill:rgb(219,33,40);fill-rule:nonzero;"/>
                    <path d="M159.477,643.824L163.409,642.898L159.481,648.402L159.477,643.824Z" style="fill:rgb(130,26,27);fill-rule:nonzero;"/>
                    <path d="M168.715,644.543L163.409,642.898L159.481,648.402L168.715,644.543Z" style="fill:rgb(163,30,33);fill-rule:nonzero;"/>
                    <path d="M177.077,643.848L168.715,644.543L177.077,649.078L177.077,643.848Z" style="fill:rgb(130,26,27);fill-rule:nonzero;"/>
                    <path d="M196.179,643.615L195.854,638.803L202.668,638.803L196.179,643.615Z" style="fill:rgb(130,26,27);fill-rule:nonzero;"/>
                    <path d="M189.041,634.016L186.59,641.26L196.179,643.615L189.041,634.016Z" style="fill:rgb(219,33,40);fill-rule:nonzero;"/>
                    <path d="M195.854,638.803L189.041,634.016L196.179,643.615L195.854,638.803Z" style="fill:rgb(163,30,33);fill-rule:nonzero;"/>
                    <path d="M177.077,643.848L177.486,633.582L186.59,641.26L177.077,643.848Z" style="fill:rgb(163,30,33);fill-rule:nonzero;"/>
                    <path d="M189.041,634.016L177.486,633.582L186.59,641.26L189.041,634.016Z" style="fill:rgb(130,26,27);fill-rule:nonzero;"/>
                    <path d="M168.715,644.543L168.72,639.537L163.409,642.898L168.715,644.543Z" style="fill:rgb(219,33,40);fill-rule:nonzero;"/>
                    <path d="M159.477,643.824L164.268,638.695L163.409,642.898L159.477,643.824Z" style="fill:rgb(219,33,40);fill-rule:nonzero;"/>
                    <path d="M159.477,638.787L164.268,638.695L159.477,643.824L159.477,638.787Z" style="fill:rgb(130,26,27);fill-rule:nonzero;"/>
                    <path d="M165.776,631.447L164.268,638.695L159.477,638.787L165.776,631.447Z" style="fill:rgb(239,57,36);fill-rule:nonzero;"/>
                    <path d="M174.402,622.467L172.471,630.932L165.776,631.447L174.402,622.467Z" style="fill:rgb(242,100,33);fill-rule:nonzero;"/>
                    <path d="M177.077,643.848L168.72,639.537L177.486,633.582L177.077,643.848Z" style="fill:rgb(219,33,40);fill-rule:nonzero;"/>
                    <path d="M168.715,644.543L168.72,639.537L177.077,643.848L168.715,644.543Z" style="fill:rgb(163,30,33);fill-rule:nonzero;"/>
                    <path d="M164.268,638.695L168.72,639.537L163.409,642.898L164.268,638.695Z" style="fill:rgb(239,56,42);fill-rule:nonzero;"/>
                    <path d="M172.471,630.932L168.72,639.537L165.776,631.447L172.471,630.932Z" style="fill:rgb(245,127,31);fill-rule:nonzero;"/>
                    <path d="M177.486,633.582L168.72,639.537L172.471,630.932L177.486,633.582Z" style="fill:rgb(239,72,39);fill-rule:nonzero;"/>
                    <path d="M174.402,622.467L182.77,622.059L172.471,630.932L174.402,622.467Z" style="fill:rgb(252,194,16);fill-rule:nonzero;"/>
                    <path d="M177.486,633.582L185.319,628.301L189.041,634.016L177.486,633.582Z" style="fill:rgb(239,72,39);fill-rule:nonzero;"/>
                    <path d="M182.77,622.059L177.486,633.582L172.471,630.932L182.77,622.059Z" style="fill:rgb(242,100,33);fill-rule:nonzero;"/>
                    <path d="M185.319,628.301L182.77,622.059L177.486,633.582L185.319,628.301Z" style="fill:rgb(250,163,26);fill-rule:nonzero;"/>
                    <path d="M195.854,638.803L192.762,627.209L189.041,634.016L195.854,638.803Z" style="fill:rgb(239,56,42);fill-rule:nonzero;"/>
                    <path d="M185.319,628.301L192.762,627.209L189.041,634.016L185.319,628.301Z" style="fill:rgb(242,100,33);fill-rule:nonzero;"/>
                    <path d="M182.77,622.059L188.481,622.52L185.319,628.301L182.77,622.059Z" style="fill:rgb(245,127,31);fill-rule:nonzero;"/>
                    <path d="M174.402,622.467L178.907,616.59L182.77,622.059L174.402,622.467Z" style="fill:rgb(247,239,109);fill-rule:nonzero;"/>
                    <path d="M185.625,613.545L178.907,616.6L182.77,622.059L185.625,613.545Z" style="fill:rgb(245,127,31);fill-rule:nonzero;"/>
                    <path d="M188.481,622.52L182.77,622.059L185.625,613.545L188.481,622.52Z" style="fill:rgb(253,210,76);fill-rule:nonzero;"/>
                    <path d="M192.762,627.209L196.689,620.939L196.969,629.236L192.762,627.209Z" style="fill:rgb(245,127,31);fill-rule:nonzero;"/>
                    <path d="M188.481,622.52L192.762,627.209L185.319,628.301L188.481,622.52Z" style="fill:rgb(252,194,16);fill-rule:nonzero;"/>
                    <path d="M185.625,613.545L195.771,614.361L188.481,622.52L185.625,613.545Z" style="fill:rgb(250,163,26);fill-rule:nonzero;"/>
                    <path d="M178.907,616.59L178.586,609.361L185.625,613.545L178.907,616.59Z" style="fill:rgb(253,200,13);fill-rule:nonzero;"/>
                    <path d="M172.896,615.867L174.402,622.467L178.907,616.59L172.896,615.867Z" style="fill:rgb(252,194,16);fill-rule:nonzero;"/>
                    <path d="M178.586,609.361L172.896,615.867L178.907,616.59L178.586,609.361Z" style="fill:rgb(250,163,26);fill-rule:nonzero;"/>
                    <path d="M174.402,622.467L163.409,622.467L166.733,617.336L174.402,622.467Z" style="fill:rgb(250,163,26);fill-rule:nonzero;"/>
                    <path d="M159.625,622.467L163.409,622.467L166.733,617.336L159.625,622.467Z" style="fill:rgb(242,100,33);fill-rule:nonzero;"/>
                    <path d="M161.227,614.361L159.625,622.467L166.733,617.336L161.227,614.361Z" style="fill:rgb(253,210,76);fill-rule:nonzero;"/>
                    <path d="M172.896,615.867L174.402,622.467L166.733,617.336L172.896,615.867Z" style="fill:rgb(245,127,31);fill-rule:nonzero;"/>
                    <path d="M201.572,629.975L196.689,620.939L196.969,629.236L201.572,629.975Z" style="fill:rgb(242,100,33);fill-rule:nonzero;"/>
                    <path d="M205.594,623.828L196.689,620.939L201.572,629.975L205.594,623.828Z" style="fill:rgb(252,180,20);fill-rule:nonzero;"/>
                    <path d="M206.184,614.973L195.771,614.361L205.594,623.828L206.184,614.973Z" style="fill:rgb(253,200,13);fill-rule:nonzero;"/>
                    <path d="M196.689,620.939L188.481,622.52L192.762,627.209L196.689,620.939Z" style="fill:rgb(249,158,27);fill-rule:nonzero;"/>
                    <path d="M195.771,614.361L196.689,620.939L205.594,623.828L195.771,614.361Z" style="fill:rgb(250,163,26);fill-rule:nonzero;"/>
                    <path d="M188.481,622.52L195.771,614.361L196.689,620.939L188.481,622.52Z" style="fill:rgb(252,180,20);fill-rule:nonzero;"/>
                    <path d="M178.586,609.361L184.516,606.477L185.625,613.545L178.586,609.361Z" style="fill:rgb(252,180,20);fill-rule:nonzero;"/>
                    <path d="M195.771,614.361L184.516,606.477L185.625,613.545L195.771,614.361Z" style="fill:rgb(247,239,109);fill-rule:nonzero;"/>
                    <path d="M201.969,608.68L195.771,614.361L206.184,614.973L201.969,608.68Z" style="fill:rgb(245,127,31);fill-rule:nonzero;"/>
                    <path d="M194.223,602.596L195.771,614.361L188.758,606.109L194.223,602.596Z" style="fill:rgb(253,200,13);fill-rule:nonzero;"/>
                    <path d="M184.516,606.477L188.758,606.109L195.771,614.361L184.516,606.477Z" style="fill:rgb(253,210,76);fill-rule:nonzero;"/>
                    <path d="M201.969,608.68L194.223,602.596L195.771,614.361L201.969,608.68Z" style="fill:rgb(250,163,26);fill-rule:nonzero;"/>
                    <path d="M161.227,614.361L171.045,609.162L168.361,605.113L161.227,614.361Z" style="fill:rgb(252,194,16);fill-rule:nonzero;"/>
                    <path d="M176.415,600.969L171.045,609.162L168.361,605.113L176.415,600.969Z" style="fill:rgb(247,239,109);fill-rule:nonzero;"/>
                    <path d="M166.733,617.336L161.227,614.361L171.045,609.162L166.733,617.336Z" style="fill:rgb(245,127,31);fill-rule:nonzero;"/>
                    <path d="M178.586,609.361L171.045,609.162L172.896,615.867L178.586,609.361Z" style="fill:rgb(247,239,109);fill-rule:nonzero;"/>
                    <path d="M184.516,606.477L176.415,600.969L178.586,609.361L184.516,606.477Z" style="fill:rgb(250,163,26);fill-rule:nonzero;"/>
                    <path d="M171.045,609.162L176.415,600.969L178.586,609.361L171.045,609.162Z" style="fill:rgb(253,210,76);fill-rule:nonzero;"/>
                    <path d="M183.655,600.182L184.516,606.477L176.415,600.969L183.655,600.182Z" style="fill:rgb(252,194,16);fill-rule:nonzero;"/>
                    <path d="M168.72,639.537L164.268,638.695L165.776,631.447L168.72,639.537Z" style="fill:rgb(242,100,33);fill-rule:nonzero;"/>
                    <path d="M171.045,609.162L166.733,617.336L172.896,615.867L171.045,609.162Z" style="fill:rgb(252,194,16);fill-rule:nonzero;"/>
                    <path d="M194.223,602.596L183.655,600.182L188.758,606.109L194.223,602.596Z" style="fill:rgb(250,163,26);fill-rule:nonzero;"/>
                    <path d="M183.655,600.182L184.516,606.477L188.758,606.109L183.655,600.182Z" style="fill:rgb(247,239,109);fill-rule:nonzero;"/>
                    <path d="M159.481,652.791L166.541,656.506L159.481,656.506L159.481,652.791Z" style="fill:rgb(219,33,40);fill-rule:nonzero;"/>
                    <path d="M201.572,629.975L195.854,638.803L196.969,629.236L201.572,629.975Z" style="fill:rgb(250,163,26);fill-rule:nonzero;"/>
                    <path d="M192.762,627.209L195.854,638.803L196.969,629.236L192.762,627.209Z" style="fill:rgb(252,194,16);fill-rule:nonzero;"/>
                    <path d="M165.776,631.447L174.401,622.467L159.625,622.467L174.402,622.467L165.776,631.447ZM159.625,622.467L161.226,614.361L168.36,605.113L176.415,600.969L168.361,605.113L161.227,614.361L171.045,609.162L176.415,600.969L171.045,609.162L172.896,615.867L171.045,609.162L166.733,617.336L171.045,609.162L161.227,614.361L159.625,622.467Z" style="fill:rgb(3,4,4);"/>
                    <path d="M206.906,656.506L196.179,656.506L196.179,649.437L206.906,656.505L206.906,656.506Z" style="fill:rgb(8,76,108);fill-rule:nonzero;"/>
                    <path d="M206.906,656.505L196.179,649.437L206.906,647.205L206.906,656.505Z" style="fill:rgb(13,89,127);fill-rule:nonzero;"/>
                    <path d="M196.179,649.437L186.59,641.26L196.179,643.615L196.179,649.437Z" style="fill:rgb(11,140,196);fill-rule:nonzero;"/>
                    <path d="M206.906,647.205L196.179,643.615L202.668,638.803L206.906,647.203L206.906,647.205Z" style="fill:rgb(13,89,127);fill-rule:nonzero;"/>
                    <path d="M206.906,647.203L202.668,638.803L206.906,638.803L206.906,647.203Z" style="fill:rgb(8,76,108);fill-rule:nonzero;"/>
                    <path d="M196.179,649.437L196.179,643.615L206.906,647.205L196.179,649.437Z" style="fill:rgb(12,118,170);fill-rule:nonzero;"/>
                    <path d="M196.179,656.506L182.855,656.506L189.041,650.848L196.179,656.506Z" style="fill:rgb(13,89,127);fill-rule:nonzero;"/>
                    <path d="M189.041,650.848L186.59,641.26L196.179,649.437L189.041,650.848Z" style="fill:rgb(13,89,127);fill-rule:nonzero;"/>
                    <path d="M189.041,650.848L177.077,649.078L177.077,643.848L189.041,650.848Z" style="fill:rgb(13,89,127);fill-rule:nonzero;"/>
                    <path d="M182.855,656.506L177.077,649.078L189.041,650.848L182.855,656.506Z" style="fill:rgb(8,76,108);fill-rule:nonzero;"/>
                    <path d="M196.179,656.506L189.041,650.848L196.179,649.437L196.179,656.506Z" style="fill:rgb(12,118,170);fill-rule:nonzero;"/>
                    <path d="M182.855,656.506L170.891,651.324L177.077,649.078L182.855,656.506Z" style="fill:rgb(13,89,127);fill-rule:nonzero;"/>
                    <path d="M172.905,656.506L166.541,656.506L170.891,651.324L172.905,656.506Z" style="fill:rgb(13,89,127);fill-rule:nonzero;"/>
                    <path d="M170.891,651.324L168.715,644.543L177.077,649.078L170.891,651.324Z" style="fill:rgb(12,118,170);fill-rule:nonzero;"/>
                    <path d="M159.481,652.791L159.481,648.402L168.715,644.543L159.481,652.791Z" style="fill:rgb(8,76,108);fill-rule:nonzero;"/>
                    <path d="M159.481,652.791L168.715,644.543L170.891,651.324L159.481,652.791Z" style="fill:rgb(13,89,127);fill-rule:nonzero;"/>
                    <path d="M182.855,656.506L172.905,656.506L170.891,651.324L182.855,656.506Z" style="fill:rgb(12,118,170);fill-rule:nonzero;"/>
                    <path d="M166.541,656.506L159.481,652.791L170.891,651.324L166.541,656.506Z" style="fill:rgb(8,76,108);fill-rule:nonzero;"/>
                    <path d="M189.041,650.848L177.077,643.848L186.59,641.26L189.041,650.848Z" style="fill:rgb(12,118,170);fill-rule:nonzero;"/>
                    <path d="M159.481,648.402L159.477,643.824L163.409,642.898L159.481,648.402Z" style="fill:rgb(8,76,108);fill-rule:nonzero;"/>
                    <path d="M159.481,648.402L163.409,642.898L168.715,644.543L159.481,648.402Z" style="fill:rgb(13,89,127);fill-rule:nonzero;"/>
                    <path d="M177.077,649.078L168.715,644.543L177.077,643.848L177.077,649.078Z" style="fill:rgb(8,76,108);fill-rule:nonzero;"/>
                    <path d="M196.179,643.615L195.854,638.803L202.668,638.803L196.179,643.615Z" style="fill:rgb(8,76,108);fill-rule:nonzero;"/>
                    <path d="M196.179,643.615L186.59,641.26L189.041,634.016L196.179,643.615Z" style="fill:rgb(12,118,170);fill-rule:nonzero;"/>
                    <path d="M196.179,643.615L189.041,634.016L195.854,638.803L196.179,643.615Z" style="fill:rgb(13,89,127);fill-rule:nonzero;"/>
                    <path d="M177.077,643.848L177.486,633.582L186.59,641.26L177.077,643.848Z" style="fill:rgb(13,89,127);fill-rule:nonzero;"/>
                    <path d="M186.59,641.26L177.486,633.582L189.041,634.016L186.59,641.26Z" style="fill:rgb(8,76,108);fill-rule:nonzero;"/>
                    <path d="M168.715,644.543L163.409,642.898L168.72,639.537L168.715,644.543Z" style="fill:rgb(12,118,170);fill-rule:nonzero;"/>
                    <path d="M159.477,643.824L164.268,638.695L163.409,642.898L159.477,643.824Z" style="fill:rgb(12,118,170);fill-rule:nonzero;"/>
                    <path d="M159.477,643.824L159.477,638.787L164.268,638.695L159.477,643.824Z" style="fill:rgb(8,76,108);fill-rule:nonzero;"/>
                    <path d="M159.477,638.787L165.776,631.447L164.268,638.695L159.477,638.787Z" style="fill:rgb(11,140,196);fill-rule:nonzero;"/>
                    <path d="M165.776,631.447L174.402,622.467L172.471,630.932L165.776,631.447Z" style="fill:rgb(34,166,222);fill-rule:nonzero;"/>
                    <path d="M177.077,643.848L168.72,639.537L177.486,633.582L177.077,643.848Z" style="fill:rgb(12,118,170);fill-rule:nonzero;"/>
                    <path d="M168.715,644.543L168.72,639.537L177.077,643.848L168.715,644.543Z" style="fill:rgb(13,89,127);fill-rule:nonzero;"/>
                    <path d="M163.409,642.898L164.268,638.695L168.72,639.537L163.409,642.898Z" style="fill:rgb(11,140,196);fill-rule:nonzero;"/>
                    <path d="M168.72,639.537L165.776,631.447L172.471,630.932L168.72,639.537Z" style="fill:rgb(63,183,233);fill-rule:nonzero;"/>
                    <path d="M168.72,639.537L172.471,630.932L177.486,633.582L168.72,639.537Z" style="fill:rgb(24,150,206);fill-rule:nonzero;"/>
                    <path d="M172.471,630.932L174.402,622.467L182.77,622.059L172.471,630.932Z" style="fill:rgb(127,212,247);fill-rule:nonzero;"/>
                    <path d="M189.041,634.016L177.486,633.582L185.319,628.301L189.041,634.016Z" style="fill:rgb(24,150,206);fill-rule:nonzero;"/>
                    <path d="M177.486,633.582L172.471,630.932L182.77,622.059L177.486,633.582Z" style="fill:rgb(34,166,222);fill-rule:nonzero;"/>
                    <path d="M177.486,633.582L182.77,622.059L185.319,628.301L177.486,633.582Z" style="fill:rgb(96,200,243);fill-rule:nonzero;"/>
                    <path d="M195.854,638.803L189.041,634.016L192.762,627.209L195.854,638.803Z" style="fill:rgb(11,140,196);fill-rule:nonzero;"/>
                    <path d="M189.041,634.016L185.319,628.301L192.762,627.209L189.041,634.016Z" style="fill:rgb(34,166,222);fill-rule:nonzero;"/>
                    <path d="M185.319,628.301L182.77,622.059L188.481,622.52L185.319,628.301Z" style="fill:rgb(63,183,233);fill-rule:nonzero;"/>
                    <path d="M174.402,622.467L178.907,616.59L178.911,616.598L178.907,616.6L182.77,622.059L174.402,622.467Z" style="fill:rgb(213,239,252);fill-rule:nonzero;"/>
                    <path d="M182.77,622.059L178.907,616.6L178.911,616.598L178.913,616.6L185.625,613.545L182.77,622.059Z" style="fill:rgb(63,183,233);fill-rule:nonzero;"/>
                    <path d="M188.481,622.52L182.77,622.059L185.625,613.545L188.481,622.52Z" style="fill:rgb(161,222,249);fill-rule:nonzero;"/>
                    <path d="M196.969,629.236L192.762,627.209L196.689,620.939L196.969,629.236Z" style="fill:rgb(63,183,233);fill-rule:nonzero;"/>
                    <path d="M185.319,628.301L188.481,622.52L192.762,627.209L185.319,628.301Z" style="fill:rgb(127,212,247);fill-rule:nonzero;"/>
                    <path d="M188.481,622.52L185.625,613.545L195.771,614.361L188.481,622.52Z" style="fill:rgb(96,200,243);fill-rule:nonzero;"/>
                    <path d="M178.907,616.59L178.586,609.361L185.625,613.545L178.907,616.59Z" style="fill:rgb(132,213,247);fill-rule:nonzero;"/>
                    <path d="M174.402,622.467L172.896,615.867L178.907,616.59L174.402,622.467Z" style="fill:rgb(127,212,247);fill-rule:nonzero;"/>
                    <path d="M178.907,616.59L172.896,615.867L178.586,609.361L178.907,616.59Z" style="fill:rgb(96,200,243);fill-rule:nonzero;"/>
                    <path d="M174.402,622.467L163.409,622.467L166.733,617.336L174.402,622.467Z" style="fill:rgb(96,200,243);fill-rule:nonzero;"/>
                    <path d="M163.409,622.467L159.625,622.467L166.733,617.336L163.409,622.467Z" style="fill:rgb(34,166,222);fill-rule:nonzero;"/>
                    <path d="M159.625,622.467L161.227,614.361L166.733,617.336L159.625,622.467Z" style="fill:rgb(161,222,249);fill-rule:nonzero;"/>
                    <path d="M174.402,622.467L166.733,617.336L172.896,615.867L174.402,622.467Z" style="fill:rgb(63,183,233);fill-rule:nonzero;"/>
                    <path d="M201.572,629.975L196.969,629.236L196.689,620.939L201.572,629.975Z" style="fill:rgb(34,166,222);fill-rule:nonzero;"/>
                    <path d="M201.572,629.975L196.689,620.939L205.593,623.828L201.572,629.975Z" style="fill:rgb(113,207,246);fill-rule:nonzero;"/>
                    <path d="M205.593,623.827L195.771,614.361L206.184,614.973L205.593,623.827Z" style="fill:rgb(132,213,247);fill-rule:nonzero;"/>
                    <path d="M192.762,627.209L188.481,622.52L196.689,620.939L192.762,627.209Z" style="fill:rgb(92,199,242);fill-rule:nonzero;"/>
                    <path d="M205.593,623.828L196.689,620.939L195.771,614.361L205.593,623.827L205.593,623.828Z" style="fill:rgb(96,200,243);fill-rule:nonzero;"/>
                    <path d="M188.481,622.52L195.771,614.361L196.689,620.939L188.481,622.52Z" style="fill:rgb(113,207,246);fill-rule:nonzero;"/>
                    <path d="M185.625,613.545L178.586,609.361L184.516,606.477L185.625,613.545Z" style="fill:rgb(113,207,246);fill-rule:nonzero;"/>
                    <path d="M195.771,614.361L185.625,613.545L184.516,606.477L195.771,614.361Z" style="fill:rgb(213,239,252);fill-rule:nonzero;"/>
                    <path d="M206.184,614.973L195.771,614.361L201.969,608.68L206.184,614.973Z" style="fill:rgb(63,183,233);fill-rule:nonzero;"/>
                    <path d="M195.771,614.361L188.758,606.109L194.223,602.596L195.771,614.361Z" style="fill:rgb(132,213,247);fill-rule:nonzero;"/>
                    <path d="M195.771,614.361L184.516,606.477L188.758,606.109L195.771,614.361Z" style="fill:rgb(161,222,249);fill-rule:nonzero;"/>
                    <path d="M195.771,614.361L194.223,602.596L201.969,608.68L195.771,614.361Z" style="fill:rgb(96,200,243);fill-rule:nonzero;"/>
                    <path d="M161.227,614.361L168.361,605.113L171.045,609.162L161.227,614.361Z" style="fill:rgb(127,212,247);fill-rule:nonzero;"/>
                    <path d="M171.045,609.162L168.361,605.113L176.415,600.969L171.045,609.162Z" style="fill:rgb(213,239,252);fill-rule:nonzero;"/>
                    <path d="M166.733,617.336L161.227,614.361L171.045,609.162L166.733,617.336Z" style="fill:rgb(63,183,233);fill-rule:nonzero;"/>
                    <path d="M172.896,615.867L171.045,609.162L178.586,609.361L172.896,615.867Z" style="fill:rgb(213,239,252);fill-rule:nonzero;"/>
                    <path d="M178.586,609.361L176.415,600.969L184.516,606.477L178.586,609.361Z" style="fill:rgb(96,200,243);fill-rule:nonzero;"/>
                    <path d="M178.586,609.361L171.045,609.162L176.415,600.969L178.586,609.361Z" style="fill:rgb(161,222,249);fill-rule:nonzero;"/>
                    <path d="M184.516,606.477L176.415,600.969L183.655,600.182L184.516,606.477Z" style="fill:rgb(127,212,247);fill-rule:nonzero;"/>
                    <path d="M168.72,639.537L164.268,638.695L165.776,631.447L168.72,639.537Z" style="fill:rgb(34,166,222);fill-rule:nonzero;"/>
                    <path d="M166.733,617.336L171.045,609.162L172.896,615.867L166.733,617.336Z" style="fill:rgb(127,212,247);fill-rule:nonzero;"/>
                    <path d="M188.758,606.109L183.655,600.182L194.223,602.596L188.758,606.109Z" style="fill:rgb(96,200,243);fill-rule:nonzero;"/>
                    <path d="M184.516,606.477L183.655,600.182L188.758,606.109L184.516,606.477Z" style="fill:rgb(213,239,252);fill-rule:nonzero;"/>
                    <path d="M166.541,656.506L159.481,656.506L159.481,652.791L166.541,656.506Z" style="fill:rgb(12,118,170);fill-rule:nonzero;"/>
                    <path d="M195.854,638.803L196.969,629.236L201.572,629.975L195.854,638.803Z" style="fill:rgb(96,200,243);fill-rule:nonzero;"/>
                    <path d="M195.854,638.803L192.762,627.209L196.969,629.236L195.854,638.803Z" style="fill:rgb(127,212,247);fill-rule:nonzero;"/>
                </g>
            </g>
        </g>
    </g>
</svg>
