<?xml version="1.0" encoding="UTF-8" standalone="no"?>
<!DOCTYPE svg PUBLIC "-//W3C//DTD SVG 1.1//EN" "http://www.w3.org/Graphics/SVG/1.1/DTD/svg11.dtd">
<svg width="100%" height="100%" viewBox="0 0 197 236" version="1.1" xmlns="http://www.w3.org/2000/svg" xmlns:xlink="http://www.w3.org/1999/xlink" xml:space="preserve" xmlns:serif="http://www.serif.com/" style="fill-rule:evenodd;clip-rule:evenodd;stroke-linejoin:round;stroke-miterlimit:2;">
    <g transform="matrix(1,0,0,1,-723,0)">
        <g id="アートボード5" transform="matrix(1,0,0,1,-203.108,-2500)">
            <rect x="926.108" y="2500" width="196.179" height="235.438" style="fill:none;"/>
            <g transform="matrix(4.16667,0,0,4.16667,0.10836,0)">
                <path d="M264.956,652.408L257.071,648.533L269.053,645.582L264.956,652.408Z" style="fill:rgb(140,26,27);fill-rule:nonzero;"/>
                <path d="M268.762,637.52L261.013,641.553L269.053,645.582L268.762,637.52Z" style="fill:rgb(244,117,32);fill-rule:nonzero;"/>
                <path d="M257.071,648.533L261.013,641.553L269.053,645.582L257.071,648.533Z" style="fill:rgb(185,33,39);fill-rule:nonzero;"/>
                <path d="M265.971,631.787L261.013,641.553L268.762,637.52L265.971,631.787Z" style="fill:rgb(239,56,42);fill-rule:nonzero;"/>
                <path d="M260.238,628.141L252.885,634.852L265.971,631.787L260.238,628.141Z" style="fill:rgb(239,56,42);fill-rule:nonzero;"/>
                <path d="M261.013,641.553L252.885,634.852L265.971,631.787L261.013,641.553Z" style="fill:rgb(244,117,32);fill-rule:nonzero;"/>
                <path d="M247.229,648.402L257.071,648.533L252.473,642.033L247.229,648.402Z" style="fill:rgb(185,33,39);fill-rule:nonzero;"/>
                <path d="M258.67,655.672L264.956,652.408L257.071,648.533L258.67,655.672Z" style="fill:rgb(185,33,39);fill-rule:nonzero;"/>
                <path d="M247.229,648.402L251.945,656.486L257.071,648.533L247.229,648.402Z" style="fill:rgb(219,33,40);fill-rule:nonzero;"/>
                <path d="M258.67,655.672L251.945,656.486L257.071,648.533L258.67,655.672Z" style="fill:rgb(140,26,27);fill-rule:nonzero;"/>
                <path d="M244.868,637.18L247.229,648.402L252.473,642.033L244.868,637.18Z" style="fill:rgb(239,56,42);fill-rule:nonzero;"/>
                <path d="M235.012,656.424L251.945,656.486L247.229,648.402L235.012,656.424Z" style="fill:rgb(185,33,39);fill-rule:nonzero;"/>
                <path d="M237.018,642.348L247.229,648.402L244.868,637.18L237.018,642.348Z" style="fill:rgb(219,33,40);fill-rule:nonzero;"/>
                <path d="M260.238,628.141L247.919,627.449L252.885,634.852L260.238,628.141Z" style="fill:rgb(241,88,35);fill-rule:nonzero;"/>
                <path d="M237.018,642.348L236.141,638.025L244.868,637.18L237.018,642.348Z" style="fill:rgb(242,102,33);fill-rule:nonzero;"/>
                <path d="M235.84,628.344L244.868,637.18L247.919,627.449L235.84,628.344Z" style="fill:rgb(239,61,35);fill-rule:nonzero;"/>
                <path d="M237.018,642.348L235.012,656.424L247.229,648.402L237.018,642.348Z" style="fill:rgb(156,28,32);fill-rule:nonzero;"/>
                <path d="M235.84,628.344L242.92,619.713L247.919,627.449L235.84,628.344Z" style="fill:rgb(247,143,30);fill-rule:nonzero;"/>
                <path d="M260.238,628.141L252.885,620.391L247.919,627.449L260.238,628.141Z" style="fill:rgb(244,117,32);fill-rule:nonzero;"/>
                <path d="M268.762,614.754L258.125,611.621L267.73,621.522L268.762,614.754Z" style="fill:rgb(251,173,23);fill-rule:nonzero;"/>
                <path d="M252.885,620.391L264.412,625.76L260.238,628.141L252.885,620.391Z" style="fill:rgb(238,45,42);fill-rule:nonzero;"/>
                <path d="M261.879,620.391L264.412,625.76L267.73,621.522L261.879,620.391Z" style="fill:rgb(244,117,32);fill-rule:nonzero;"/>
                <path d="M261.525,601.811L253.602,605.93L266.258,606.922L261.525,601.811Z" style="fill:rgb(252,194,16);fill-rule:nonzero;"/>
                <path d="M258.125,611.621L266.258,606.922L268.762,614.754L258.125,611.621Z" style="fill:rgb(251,219,78);fill-rule:nonzero;"/>
                <path d="M222.266,600.213L230.321,607.08L222.266,610.398L222.266,600.213Z" style="fill:rgb(252,180,20);fill-rule:nonzero;"/>
                <path d="M242.92,619.713L238.739,619.32L235.84,628.344L242.92,619.713Z" style="fill:rgb(241,94,35);fill-rule:nonzero;"/>
                <path d="M253.602,605.93L258.125,611.621L266.258,606.922L253.602,605.93Z" style="fill:rgb(251,173,23);fill-rule:nonzero;"/>
                <path d="M246.228,611.928L258.125,611.621L252.885,620.391L246.228,611.928Z" style="fill:rgb(247,145,29);fill-rule:nonzero;"/>
                <path d="M253.602,605.93L246.228,611.928L258.125,611.621L253.602,605.93Z" style="fill:rgb(252,194,16);fill-rule:nonzero;"/>
                <path d="M239.612,612.219L240.543,600.201L246.228,611.928L239.612,612.219Z" style="fill:rgb(251,219,78);fill-rule:nonzero;"/>
                <path d="M240.543,600.201L253.602,605.93L246.228,611.928L240.543,600.201Z" style="fill:rgb(251,173,23);fill-rule:nonzero;"/>
                <path d="M254.411,600.201L253.602,605.93L240.543,600.201L254.411,600.201Z" style="fill:rgb(252,194,16);fill-rule:nonzero;"/>
                <path d="M254.411,600.201L261.525,601.811L253.602,605.93L254.411,600.201Z" style="fill:rgb(251,219,78);fill-rule:nonzero;"/>
                <path d="M222.266,600.201L230.321,607.068L240.543,600.201L222.266,600.201Z" style="fill:rgb(251,242,125);fill-rule:nonzero;"/>
                <path d="M252.78,620.391L261.879,620.391L264.412,625.76L252.78,620.391Z" style="fill:rgb(247,143,30);fill-rule:nonzero;"/>
                <path d="M258.125,611.621L261.879,620.391L267.73,621.522L258.125,611.621Z" style="fill:rgb(247,143,30);fill-rule:nonzero;"/>
                <path d="M252.885,620.391L261.879,620.391L258.125,611.621L252.885,620.391Z" style="fill:rgb(251,219,78);fill-rule:nonzero;"/>
                <path d="M246.228,611.928L247.919,627.449L252.885,620.391L246.228,611.928Z" style="fill:rgb(252,194,16);fill-rule:nonzero;"/>
                <path d="M222.266,656.43L229.268,649.553L222.276,638.025L222.266,656.43Z" style="fill:rgb(219,33,40);fill-rule:nonzero;"/>
                <path d="M235.012,656.424L222.266,656.43L229.268,649.553L235.012,656.424Z" style="fill:rgb(140,26,27);fill-rule:nonzero;"/>
                <path d="M222.276,638.025L237.018,642.348L229.268,649.553L222.276,638.025Z" style="fill:rgb(161,29,33);fill-rule:nonzero;"/>
                <path d="M228.495,623.637L235.84,628.344L228.495,633.016L228.495,623.637Z" style="fill:rgb(240,77,34);fill-rule:nonzero;"/>
                <path d="M236.141,618.559L228.495,623.637L235.84,628.344L236.141,618.559Z" style="fill:rgb(243,113,33);fill-rule:nonzero;"/>
                <path d="M222.276,638.025L237.018,642.348L236.141,638.025L222.276,638.025Z" style="fill:rgb(239,57,36);fill-rule:nonzero;"/>
                <path d="M229.268,649.553L235.012,656.424L237.018,642.348L229.268,649.553Z" style="fill:rgb(183,32,38);fill-rule:nonzero;"/>
                <path d="M230.321,607.068L232.319,613.654L222.266,610.385L230.321,607.068Z" style="fill:rgb(247,145,29);fill-rule:nonzero;"/>
                <path d="M230.321,607.068L240.543,600.201L232.319,613.654L230.321,607.068Z" style="fill:rgb(255,200,6);fill-rule:nonzero;"/>
                <path d="M236.141,618.559L235.84,628.344L238.739,619.32L236.141,618.559Z" style="fill:rgb(247,145,29);fill-rule:nonzero;"/>
                <path d="M240.543,600.201L239.612,612.219L232.319,613.654L240.543,600.201Z" style="fill:rgb(251,173,23);fill-rule:nonzero;"/>
                <path d="M252.473,642.033L257.071,648.533L261.013,641.553L252.473,642.033Z" style="fill:rgb(163,30,33);fill-rule:nonzero;"/>
                <path d="M261.013,641.553L252.473,642.033L252.885,634.852L261.013,641.553Z" style="fill:rgb(239,56,42);fill-rule:nonzero;"/>
                <path d="M232.319,613.654L222.266,618.559L222.266,610.385L232.319,613.654Z" style="fill:rgb(251,219,78);fill-rule:nonzero;"/>
                <path d="M244.868,637.18L252.885,634.852L247.919,627.449L244.868,637.18Z" style="fill:rgb(238,39,43);fill-rule:nonzero;"/>
                <path d="M244.868,637.18L252.473,642.033L252.885,634.852L244.868,637.18Z" style="fill:rgb(241,88,35);fill-rule:nonzero;"/>
                <path d="M222.266,618.559L236.141,618.559L232.319,613.654L222.266,618.559Z" style="fill:rgb(255,200,6);fill-rule:nonzero;"/>
                <path d="M228.495,633.016L236.141,638.025L237.289,633.588L228.495,633.016Z" style="fill:rgb(241,94,39);fill-rule:nonzero;"/>
                <path d="M244.868,637.18L236.141,638.025L237.289,633.588L244.868,637.18Z" style="fill:rgb(239,56,42);fill-rule:nonzero;"/>
                <path d="M235.84,628.344L237.289,633.588L244.868,637.18L235.84,628.344Z" style="fill:rgb(244,117,32);fill-rule:nonzero;"/>
                <path d="M228.495,633.016L237.289,633.588L235.84,628.344L228.495,633.016Z" style="fill:rgb(238,39,43);fill-rule:nonzero;"/>
                <path d="M236.141,618.559L239.612,612.219L232.319,613.654L236.141,618.559Z" style="fill:rgb(251,219,78);fill-rule:nonzero;"/>
                <path d="M238.739,619.32L239.612,612.219L236.141,618.559L238.739,619.32Z" style="fill:rgb(251,173,23);fill-rule:nonzero;"/>
                <path d="M246.228,611.928L238.739,619.32L239.612,612.219L246.228,611.928Z" style="fill:rgb(252,194,16);fill-rule:nonzero;"/>
                <path d="M242.92,619.713L246.228,611.928L247.919,627.449L242.92,619.713Z" style="fill:rgb(251,219,78);fill-rule:nonzero;"/>
                <path d="M238.739,619.32L242.92,619.713L246.228,611.928L238.739,619.32Z" style="fill:rgb(251,173,23);fill-rule:nonzero;"/>
                <path d="M264.956,652.408L257.071,648.533L269.053,645.582L264.956,652.408Z" style="fill:rgb(11,80,114);fill-rule:nonzero;"/>
                <path d="M269.053,645.582L261.013,641.553L268.762,637.52L269.053,645.582Z" style="fill:rgb(50,177,230);fill-rule:nonzero;"/>
                <path d="M257.071,648.533L261.013,641.553L269.053,645.582L257.071,648.533Z" style="fill:rgb(9,106,151);fill-rule:nonzero;"/>
                <path d="M261.013,641.553L265.971,631.787L268.762,637.52L261.013,641.553Z" style="fill:rgb(11,140,196);fill-rule:nonzero;"/>
                <path d="M252.885,634.852L260.237,628.141L265.971,631.787L252.885,634.852Z" style="fill:rgb(11,140,196);fill-rule:nonzero;"/>
                <path d="M261.013,641.553L252.885,634.852L265.971,631.787L261.013,641.553Z" style="fill:rgb(50,177,230);fill-rule:nonzero;"/>
                <path d="M257.071,648.533L247.229,648.402L252.473,642.033L257.071,648.533Z" style="fill:rgb(9,106,151);fill-rule:nonzero;"/>
                <path d="M258.67,655.672L257.071,648.533L264.956,652.408L258.67,655.672Z" style="fill:rgb(9,106,151);fill-rule:nonzero;"/>
                <path d="M251.945,656.486L247.229,648.402L257.071,648.533L251.945,656.486Z" style="fill:rgb(12,118,170);fill-rule:nonzero;"/>
                <path d="M251.945,656.486L257.071,648.533L258.67,655.672L251.945,656.486Z" style="fill:rgb(11,80,114);fill-rule:nonzero;"/>
                <path d="M247.229,648.402L244.868,637.18L252.473,642.033L247.229,648.402Z" style="fill:rgb(11,140,196);fill-rule:nonzero;"/>
                <path d="M251.945,656.486L235.012,656.424L247.229,648.402L251.945,656.486Z" style="fill:rgb(9,106,151);fill-rule:nonzero;"/>
                <path d="M247.229,648.402L237.018,642.348L244.868,637.18L247.229,648.402Z" style="fill:rgb(12,118,170);fill-rule:nonzero;"/>
                <path d="M252.885,634.852L247.919,627.449L260.237,628.141L252.885,634.852Z" style="fill:rgb(26,160,216);fill-rule:nonzero;"/>
                <path d="M237.018,642.348L236.141,638.025L244.868,637.18L237.018,642.348Z" style="fill:rgb(38,168,224);fill-rule:nonzero;"/>
                <path d="M244.868,637.18L235.84,628.344L247.919,627.449L244.868,637.18Z" style="fill:rgb(13,143,199);fill-rule:nonzero;"/>
                <path d="M235.012,656.424L237.018,642.348L247.229,648.402L235.012,656.424Z" style="fill:rgb(12,86,123);fill-rule:nonzero;"/>
                <path d="M235.84,628.344L242.92,619.713L247.919,627.449L235.84,628.344Z" style="fill:rgb(76,192,238);fill-rule:nonzero;"/>
                <path d="M260.237,628.141L247.919,627.449L252.859,620.427L252.967,620.477L260.237,628.14L260.237,628.141Z" style="fill:rgb(50,177,230);fill-rule:nonzero;"/>
                <path d="M267.729,621.521L258.125,611.621L268.762,614.754L267.729,621.521Z" style="fill:rgb(106,203,244);fill-rule:nonzero;"/>
                <path d="M260.237,628.14L252.967,620.477L264.411,625.76L260.237,628.14Z" style="fill:rgb(19,134,190);fill-rule:nonzero;"/>
                <path d="M266.258,606.922L253.602,605.93L261.525,601.811L266.258,606.922Z" style="fill:rgb(127,212,247);fill-rule:nonzero;"/>
                <path d="M268.762,614.754L258.125,611.621L266.258,606.922L268.762,614.754Z" style="fill:rgb(173,225,250);fill-rule:nonzero;"/>
                <path d="M235.84,628.344L238.739,619.32L242.92,619.713L235.84,628.344Z" style="fill:rgb(28,163,219);fill-rule:nonzero;"/>
                <path d="M258.125,611.621L253.602,605.93L266.258,606.922L258.125,611.621Z" style="fill:rgb(106,203,244);fill-rule:nonzero;"/>
                <path d="M252.885,620.391L246.228,611.928L258.125,611.621L252.885,620.391Z" style="fill:rgb(78,192,238);fill-rule:nonzero;"/>
                <path d="M246.228,611.928L253.602,605.93L258.125,611.621L246.228,611.928Z" style="fill:rgb(127,212,247);fill-rule:nonzero;"/>
                <path d="M239.612,612.219L240.543,600.201L246.228,611.928L239.612,612.219Z" style="fill:rgb(173,225,250);fill-rule:nonzero;"/>
                <path d="M246.228,611.928L240.543,600.201L253.602,605.93L246.228,611.928Z" style="fill:rgb(106,203,244);fill-rule:nonzero;"/>
                <path d="M253.602,605.93L240.543,600.201L254.411,600.201L253.602,605.93Z" style="fill:rgb(127,212,247);fill-rule:nonzero;"/>
                <path d="M253.602,605.93L254.411,600.201L261.525,601.811L253.602,605.93Z" style="fill:rgb(173,225,250);fill-rule:nonzero;"/>
                <path d="M264.411,625.759L261.879,620.391L267.729,621.521L267.729,621.522L264.411,625.759Z" style="fill:rgb(50,177,230);fill-rule:nonzero;"/>
                <path d="M222.266,610.385L222.266,600.213L230.311,607.072L222.266,610.385Z" style="fill:rgb(113,207,246);fill-rule:nonzero;"/>
                <path d="M230.321,607.068L222.266,600.201L240.543,600.201L230.321,607.068Z" style="fill:rgb(206,237,252);fill-rule:nonzero;"/>
                <path d="M264.411,625.76L252.967,620.477L252.859,620.427L252.885,620.391L261.879,620.391L264.411,625.759L264.411,625.76Z" style="fill:rgb(76,192,238);fill-rule:nonzero;"/>
                <path d="M267.729,621.521L261.879,620.391L258.125,611.621L267.729,621.521L267.729,621.522" style="fill:rgb(76,192,238);fill-rule:nonzero;"/>
                <path d="M261.879,620.391L252.885,620.391L258.125,611.621L261.879,620.391Z" style="fill:rgb(173,225,250);fill-rule:nonzero;"/>
                <path d="M247.919,627.449L246.228,611.928L252.885,620.391L252.859,620.427L247.919,627.449Z" style="fill:rgb(127,212,247);fill-rule:nonzero;"/>
                <path d="M222.266,656.43L222.276,638.025L229.268,649.553L222.266,656.43Z" style="fill:rgb(12,118,170);fill-rule:nonzero;"/>
                <path d="M222.266,656.43L229.268,649.553L235.012,656.424L222.266,656.43Z" style="fill:rgb(11,80,114);fill-rule:nonzero;"/>
                <path d="M229.268,649.553L222.276,638.025L237.018,642.348L229.268,649.553Z" style="fill:rgb(13,89,127);fill-rule:nonzero;"/>
                <path d="M228.495,633.016L228.495,623.637L235.84,628.344L228.495,633.016Z" style="fill:rgb(27,153,209);fill-rule:nonzero;"/>
                <path d="M235.84,628.344L228.495,623.637L236.141,618.559L235.84,628.344Z" style="fill:rgb(48,174,228);fill-rule:nonzero;"/>
                <path d="M237.018,642.348L222.276,638.025L236.141,638.025L237.018,642.348Z" style="fill:rgb(11,140,196);fill-rule:nonzero;"/>
                <path d="M235.012,656.424L229.268,649.553L237.018,642.348L235.012,656.424Z" style="fill:rgb(7,103,147);fill-rule:nonzero;"/>
                <path d="M232.319,613.654L222.266,610.385L230.311,607.072L230.321,607.068L232.319,613.654Z" style="fill:rgb(78,192,238);fill-rule:nonzero;"/>
                <path d="M232.319,613.654L230.321,607.068L240.543,600.201L232.319,613.654Z" style="fill:rgb(132,213,247);fill-rule:nonzero;"/>
                <path d="M235.84,628.344L236.141,618.559L238.739,619.32L235.84,628.344Z" style="fill:rgb(78,192,238);fill-rule:nonzero;"/>
                <path d="M232.319,613.654L240.543,600.201L239.612,612.219L232.319,613.654Z" style="fill:rgb(106,203,244);fill-rule:nonzero;"/>
                <path d="M257.071,648.533L252.473,642.033L261.013,641.553L257.071,648.533Z" style="fill:rgb(13,89,127);fill-rule:nonzero;"/>
                <path d="M252.473,642.033L252.885,634.852L261.013,641.553L252.473,642.033Z" style="fill:rgb(11,140,196);fill-rule:nonzero;"/>
                <path d="M222.266,618.559L222.266,610.385L232.319,613.654L222.266,618.559Z" style="fill:rgb(173,225,250);fill-rule:nonzero;"/>
                <path d="M244.868,637.18L247.919,627.449L252.885,634.852L244.868,637.18Z" style="fill:rgb(19,130,186);fill-rule:nonzero;"/>
                <path d="M252.473,642.033L244.868,637.18L252.885,634.852L252.473,642.033Z" style="fill:rgb(26,160,216);fill-rule:nonzero;"/>
                <path d="M236.141,618.559L222.266,618.559L232.319,613.654L236.141,618.559Z" style="fill:rgb(132,213,247);fill-rule:nonzero;"/>
                <path d="M236.141,638.025L228.495,633.016L237.289,633.588L236.141,638.025Z" style="fill:rgb(30,164,220);fill-rule:nonzero;"/>
                <path d="M236.141,638.025L237.289,633.588L244.868,637.18L236.141,638.025Z" style="fill:rgb(11,140,196);fill-rule:nonzero;"/>
                <path d="M244.868,637.18L237.289,633.588L235.84,628.344L244.868,637.18Z" style="fill:rgb(50,177,230);fill-rule:nonzero;"/>
                <path d="M237.289,633.588L228.495,633.016L235.84,628.344L237.289,633.588Z" style="fill:rgb(19,130,186);fill-rule:nonzero;"/>
                <path d="M236.141,618.559L232.319,613.654L239.612,612.219L236.141,618.559Z" style="fill:rgb(173,225,250);fill-rule:nonzero;"/>
                <path d="M238.739,619.32L236.141,618.559L239.612,612.219L238.739,619.32Z" style="fill:rgb(106,203,244);fill-rule:nonzero;"/>
                <path d="M238.739,619.32L239.612,612.219L246.228,611.928L238.739,619.32Z" style="fill:rgb(127,212,247);fill-rule:nonzero;"/>
                <path d="M247.919,627.449L242.92,619.713L246.228,611.928L247.919,627.449Z" style="fill:rgb(173,225,250);fill-rule:nonzero;"/>
                <path d="M242.92,619.713L238.739,619.32L246.228,611.928L242.92,619.713Z" style="fill:rgb(106,203,244);fill-rule:nonzero;"/>
            </g>
        </g>
    </g>
</svg>
