<?xml version="1.0" encoding="UTF-8" standalone="no"?>
<!DOCTYPE svg PUBLIC "-//W3C//DTD SVG 1.1//EN" "http://www.w3.org/Graphics/SVG/1.1/DTD/svg11.dtd">
<svg width="100%" height="100%" viewBox="0 0 198 236" version="1.1" xmlns="http://www.w3.org/2000/svg" xmlns:xlink="http://www.w3.org/1999/xlink" xml:space="preserve" xmlns:serif="http://www.serif.com/" style="fill-rule:evenodd;clip-rule:evenodd;stroke-linejoin:round;stroke-miterlimit:2;">
    <g transform="matrix(1,0,0,1,-976.687,0)">
        <g id="アートボード6" transform="matrix(1.01182,0,0,1,-219.425,-2500)">
            <rect x="1182.14" y="2500" width="195.608" height="235.438" style="fill:none;"/>
            <clipPath id="_clip1">
                <rect x="1182.14" y="2500" width="195.608" height="235.438"/>
            </clipPath>
            <g clip-path="url(#_clip1)">
                <g transform="matrix(4.11798,0,0,4.16667,16.2328,0)">
                    <path d="M319.289,656.504L317.351,646.789L330.479,656.504L319.289,656.504Z" style="fill:rgb(219,33,40);fill-rule:nonzero;"/>
                    <path d="M317.351,646.789L324.131,635.711L330.479,656.504L317.351,646.789Z" style="fill:rgb(163,30,33);fill-rule:nonzero;"/>
                    <path d="M305.932,656.504L317.351,646.789L319.289,656.504L305.932,656.504Z" style="fill:rgb(130,26,27);fill-rule:nonzero;"/>
                    <path d="M305.932,643.356L310.927,645.061L305.932,656.504L305.932,643.356Z" style="fill:rgb(219,33,40);fill-rule:nonzero;"/>
                    <path d="M310.927,645.061L317.351,646.789L305.932,656.504L310.927,645.061Z" style="fill:rgb(163,30,33);fill-rule:nonzero;"/>
                    <path d="M317.351,646.789L315.618,634.869L324.131,635.711L317.351,646.789Z" style="fill:rgb(219,33,40);fill-rule:nonzero;"/>
                    <path d="M310.927,645.061L315.618,634.869L317.351,646.789L310.927,645.061Z" style="fill:rgb(239,56,42);fill-rule:nonzero;"/>
                    <path d="M305.932,643.356L315.618,634.869L310.927,645.061L305.932,643.356Z" style="fill:rgb(185,33,39);fill-rule:nonzero;"/>
                    <path d="M305.932,637.951L315.618,634.869L305.932,643.356L305.932,637.951Z" style="fill:rgb(239,56,42);fill-rule:nonzero;"/>
                    <path d="M315.618,634.869L317.888,624.346L324.131,635.711L315.618,634.869Z" style="fill:rgb(239,72,39);fill-rule:nonzero;"/>
                    <path d="M317.888,624.346L330.403,626.934L324.131,635.711L317.888,624.346Z" style="fill:rgb(242,100,33);fill-rule:nonzero;"/>
                    <path d="M330.403,626.934L323.512,614.08L317.888,624.346L330.403,626.934Z" style="fill:rgb(250,163,26);fill-rule:nonzero;"/>
                    <path d="M323.512,614.08L330.403,611.203L330.403,626.934L323.512,614.08Z" style="fill:rgb(253,200,13);fill-rule:nonzero;"/>
                    <path d="M316.426,604.371L312.414,617.078L323.512,614.08L316.426,604.371Z" style="fill:rgb(249,240,90);fill-rule:nonzero;"/>
                    <path d="M312.414,617.078L317.888,624.346L323.512,614.08L312.414,617.078Z" style="fill:rgb(252,194,16);fill-rule:nonzero;"/>
                    <path d="M323.512,614.08L330.403,600.219L330.403,611.203L323.512,614.08Z" style="fill:rgb(249,240,90);fill-rule:nonzero;"/>
                    <path d="M316.426,604.371L330.403,600.219L323.512,614.08L316.426,604.371Z" style="fill:rgb(252,194,16);fill-rule:nonzero;"/>
                    <path d="M319.569,600.219L316.426,604.371L305.932,600.219L319.569,600.219Z" style="fill:rgb(251,219,78);fill-rule:nonzero;"/>
                    <path d="M324.131,635.711L330.403,636.586L330.479,656.504L324.131,635.711Z" style="fill:rgb(130,26,27);fill-rule:nonzero;"/>
                    <path d="M330.403,636.586L330.403,626.934L324.131,635.711L330.403,636.586Z" style="fill:rgb(239,57,36);fill-rule:nonzero;"/>
                    <path d="M309.433,625.391L317.888,624.346L315.618,634.869L309.433,625.391Z" style="fill:rgb(245,127,31);fill-rule:nonzero;"/>
                    <path d="M312.414,617.078L317.888,624.346L309.433,625.391L312.414,617.078Z" style="fill:rgb(253,210,76);fill-rule:nonzero;"/>
                    <path d="M309.433,609.723L312.414,617.078L316.426,604.371L309.433,609.723Z" style="fill:rgb(249,161,26);fill-rule:nonzero;"/>
                    <path d="M309.433,625.391L312.414,617.078L309.433,609.723L309.433,625.391Z" style="fill:rgb(250,224,7);fill-rule:nonzero;"/>
                    <path d="M309.433,609.723L316.426,604.371L305.932,600.219L309.433,609.723Z" style="fill:rgb(252,194,16);fill-rule:nonzero;"/>
                    <path d="M309.433,625.391L315.618,634.869L305.932,637.951L309.433,625.391Z" style="fill:rgb(242,100,33);fill-rule:nonzero;"/>
                    <path d="M305.932,637.951L301.233,637.951L309.433,625.391L305.932,637.951Z" style="fill:rgb(249,158,27);fill-rule:nonzero;"/>
                    <path d="M293.774,637.951L301.233,628.467L301.233,637.951L293.774,637.951Z" style="fill:rgb(245,127,31);fill-rule:nonzero;"/>
                    <path d="M283.125,637.951L292.724,630.32L283.125,626.824L283.125,637.951Z" style="fill:rgb(249,158,27);fill-rule:nonzero;"/>
                    <path d="M293.774,637.951L292.724,630.32L283.125,637.951L293.774,637.951Z" style="fill:rgb(242,100,33);fill-rule:nonzero;"/>
                    <path d="M293.774,614.428L294.456,623.061L283.125,626.824L293.774,614.428Z" style="fill:rgb(252,180,20);fill-rule:nonzero;"/>
                    <path d="M301.233,628.467L292.724,630.32L293.774,637.951L301.233,628.467Z" style="fill:rgb(250,163,26);fill-rule:nonzero;"/>
                    <path d="M309.433,625.391L301.233,628.467L301.233,637.951L309.433,625.391Z" style="fill:rgb(252,194,16);fill-rule:nonzero;"/>
                    <path d="M301.17,605.771L305.332,617.557L297.866,609.602L301.17,605.771Z" style="fill:rgb(252,194,16);fill-rule:nonzero;"/>
                    <path d="M293.774,614.428L305.332,617.557L297.866,609.602L293.774,614.428Z" style="fill:rgb(250,224,7);fill-rule:nonzero;"/>
                    <path d="M305.104,604.971L309.433,609.723L305.932,600.219L305.104,604.971Z" style="fill:rgb(251,219,78);fill-rule:nonzero;"/>
                    <path d="M309.433,625.391L305.332,617.557L309.433,609.723L309.433,625.391Z" style="fill:rgb(253,210,76);fill-rule:nonzero;"/>
                    <path d="M294.456,623.061L305.332,617.557L293.774,614.428L294.456,623.061Z" style="fill:rgb(247,239,109);fill-rule:nonzero;"/>
                    <path d="M309.433,625.391L305.332,617.557L301.233,628.467L309.433,625.391Z" style="fill:rgb(247,239,109);fill-rule:nonzero;"/>
                    <path d="M294.456,623.061L292.724,630.32L283.125,626.824L294.456,623.061Z" style="fill:rgb(249,240,90);fill-rule:nonzero;"/>
                    <path d="M305.104,604.971L309.433,609.723L301.17,605.771L305.104,604.971Z" style="fill:rgb(247,239,109);fill-rule:nonzero;"/>
                    <path d="M305.332,617.557L301.233,628.467L294.456,623.061L305.332,617.557Z" style="fill:rgb(252,180,20);fill-rule:nonzero;"/>
                    <path d="M309.433,609.723L305.332,617.557L301.17,605.771L309.433,609.723Z" style="fill:rgb(250,163,26);fill-rule:nonzero;"/>
                    <path d="M301.233,628.467L292.724,630.32L294.456,623.061L301.233,628.467Z" style="fill:rgb(250,224,7);fill-rule:nonzero;"/>
                    <path d="M316.426,604.371L330.403,600.219L319.569,600.219L316.426,604.371Z" style="fill:rgb(249,161,26);fill-rule:nonzero;"/>
                    <path d="M305.932,600.219L301.17,605.771L305.104,604.971L305.932,600.219Z" style="fill:rgb(252,194,16);fill-rule:nonzero;"/>
                    <path d="M330.478,656.504L305.931,656.504L305.931,637.951L283.125,637.951L305.932,637.951L305.932,656.504L319.289,656.504L317.351,646.789L319.289,656.504L330.478,656.504Z" style="fill:rgb(3,4,4);fill-rule:nonzero;"/>
                    <path d="M330.478,656.504L319.289,656.504L317.351,646.789L330.478,656.503L330.478,656.504Z" style="fill:rgb(12,118,170);fill-rule:nonzero;"/>
                    <path d="M330.478,656.503L317.351,646.789L324.131,635.711L330.478,656.5L330.478,656.503Z" style="fill:rgb(13,89,127);fill-rule:nonzero;"/>
                    <path d="M319.289,656.504L305.932,656.504L317.351,646.789L319.289,656.504Z" style="fill:rgb(8,76,108);fill-rule:nonzero;"/>
                    <path d="M305.932,656.504L305.932,643.356L310.927,645.061L305.932,656.504Z" style="fill:rgb(12,118,170);fill-rule:nonzero;"/>
                    <path d="M305.932,656.504L310.927,645.061L317.351,646.789L305.932,656.504Z" style="fill:rgb(13,89,127);fill-rule:nonzero;"/>
                    <path d="M317.351,646.789L315.618,634.869L324.131,635.711L317.351,646.789Z" style="fill:rgb(12,118,170);fill-rule:nonzero;"/>
                    <path d="M317.351,646.789L310.927,645.061L315.618,634.869L317.351,646.789Z" style="fill:rgb(11,140,196);fill-rule:nonzero;"/>
                    <path d="M310.927,645.061L305.932,643.356L315.618,634.869L310.927,645.061Z" style="fill:rgb(9,106,151);fill-rule:nonzero;"/>
                    <path d="M305.932,643.356L305.932,637.951L315.618,634.869L305.932,643.356Z" style="fill:rgb(11,140,196);fill-rule:nonzero;"/>
                    <path d="M324.131,635.711L315.618,634.869L317.888,624.346L324.131,635.711Z" style="fill:rgb(24,150,206);fill-rule:nonzero;"/>
                    <path d="M324.131,635.711L317.888,624.346L330.403,626.934L324.131,635.711Z" style="fill:rgb(34,166,222);fill-rule:nonzero;"/>
                    <path d="M330.403,626.934L317.888,624.346L323.512,614.08L330.403,626.934Z" style="fill:rgb(96,200,243);fill-rule:nonzero;"/>
                    <path d="M330.403,626.934L323.512,614.08L330.403,611.203L330.403,626.934Z" style="fill:rgb(132,213,247);fill-rule:nonzero;"/>
                    <path d="M312.414,617.078L316.426,604.371L323.512,614.08L312.414,617.078Z" style="fill:rgb(199,234,251);fill-rule:nonzero;"/>
                    <path d="M317.888,624.346L312.414,617.078L323.512,614.08L317.888,624.346Z" style="fill:rgb(127,212,247);fill-rule:nonzero;"/>
                    <path d="M323.512,614.08L330.403,600.219L330.403,611.203L323.512,614.08Z" style="fill:rgb(199,234,251);fill-rule:nonzero;"/>
                    <path d="M323.512,614.08L316.426,604.371L330.403,600.219L323.512,614.08Z" style="fill:rgb(127,212,247);fill-rule:nonzero;"/>
                    <path d="M316.426,604.371L305.932,600.219L319.569,600.219L316.426,604.371Z" style="fill:rgb(173,225,250);fill-rule:nonzero;"/>
                    <path d="M330.478,656.5L324.131,635.711L330.403,636.586L330.478,656.5Z" style="fill:rgb(8,76,108);fill-rule:nonzero;"/>
                    <path d="M330.403,636.586L324.131,635.711L330.403,626.934L330.403,636.586Z" style="fill:rgb(11,140,196);fill-rule:nonzero;"/>
                    <path d="M315.618,634.869L309.433,625.391L317.888,624.346L315.618,634.869Z" style="fill:rgb(63,183,233);fill-rule:nonzero;"/>
                    <path d="M309.433,625.391L312.414,617.078L317.888,624.346L309.433,625.391Z" style="fill:rgb(161,222,249);fill-rule:nonzero;"/>
                    <path d="M312.414,617.078L309.433,609.723L316.426,604.371L312.414,617.078Z" style="fill:rgb(95,199,242);fill-rule:nonzero;"/>
                    <path d="M309.433,625.391L309.433,609.723L312.414,617.078L309.433,625.391Z" style="fill:rgb(162,222,249);fill-rule:nonzero;"/>
                    <path d="M309.433,609.723L305.932,600.219L316.426,604.371L309.433,609.723Z" style="fill:rgb(127,212,247);fill-rule:nonzero;"/>
                    <path d="M283.125,626.824L293.773,614.428L297.865,609.602L301.169,605.771L305.931,600.219L305.932,600.219L301.17,605.771L297.866,609.602L305.332,617.557L297.866,609.602L293.774,614.428L283.125,626.824Z" style="fill:rgb(3,4,4);fill-rule:nonzero;"/>
                    <path d="M305.932,637.951L309.433,625.391L315.618,634.869L305.932,637.951Z" style="fill:rgb(34,166,222);fill-rule:nonzero;"/>
                    <path d="M305.932,637.951L301.233,637.951L309.433,625.391L305.932,637.951Z" style="fill:rgb(92,199,242);fill-rule:nonzero;"/>
                    <path d="M301.233,637.951L293.774,637.951L301.233,628.467L301.233,637.951Z" style="fill:rgb(63,183,233);fill-rule:nonzero;"/>
                    <path d="M283.125,637.951L283.125,626.824L292.724,630.32L283.125,637.951Z" style="fill:rgb(92,199,242);fill-rule:nonzero;"/>
                    <path d="M293.774,637.951L283.125,637.951L292.724,630.32L293.774,637.951Z" style="fill:rgb(34,166,222);fill-rule:nonzero;"/>
                    <path d="M283.125,626.824L293.774,614.428L294.456,623.061L283.125,626.824Z" style="fill:rgb(113,207,246);fill-rule:nonzero;"/>
                    <path d="M293.774,637.951L292.724,630.32L301.233,628.467L293.774,637.951Z" style="fill:rgb(96,200,243);fill-rule:nonzero;"/>
                    <path d="M301.233,637.951L301.233,628.467L309.433,625.391L301.233,637.951Z" style="fill:rgb(127,212,247);fill-rule:nonzero;"/>
                    <path d="M305.332,617.557L297.866,609.602L301.17,605.771L305.332,617.557Z" style="fill:rgb(127,212,247);fill-rule:nonzero;"/>
                    <path d="M305.332,617.557L293.774,614.428L297.866,609.602L305.332,617.557Z" style="fill:rgb(162,222,249);fill-rule:nonzero;"/>
                    <path d="M309.433,609.723L305.104,604.971L305.932,600.219L309.433,609.723Z" style="fill:rgb(173,225,250);fill-rule:nonzero;"/>
                    <path d="M309.433,625.391L305.332,617.557L309.433,609.723L309.433,625.391Z" style="fill:rgb(161,222,249);fill-rule:nonzero;"/>
                    <path d="M294.456,623.061L293.774,614.428L305.332,617.557L294.456,623.061Z" style="fill:rgb(213,239,252);fill-rule:nonzero;"/>
                    <path d="M301.233,628.467L305.332,617.557L309.433,625.391L301.233,628.467Z" style="fill:rgb(213,239,252);fill-rule:nonzero;"/>
                    <path d="M292.724,630.32L283.125,626.824L294.456,623.061L292.724,630.32Z" style="fill:rgb(199,234,251);fill-rule:nonzero;"/>
                    <path d="M309.433,609.723L301.17,605.771L305.104,604.971L309.433,609.723Z" style="fill:rgb(213,239,252);fill-rule:nonzero;"/>
                    <path d="M301.233,628.467L294.456,623.061L305.332,617.557L301.233,628.467Z" style="fill:rgb(113,207,246);fill-rule:nonzero;"/>
                    <path d="M305.332,617.557L301.17,605.771L309.433,609.723L305.332,617.557Z" style="fill:rgb(96,200,243);fill-rule:nonzero;"/>
                    <path d="M292.724,630.32L294.456,623.061L301.233,628.467L292.724,630.32Z" style="fill:rgb(162,222,249);fill-rule:nonzero;"/>
                    <path d="M316.426,604.371L319.569,600.219L330.403,600.219L316.426,604.371Z" style="fill:rgb(95,199,242);fill-rule:nonzero;"/>
                    <path d="M301.17,605.771L305.932,600.219L305.104,604.971L301.17,605.771Z" style="fill:rgb(127,212,247);fill-rule:nonzero;"/>
                </g>
            </g>
        </g>
    </g>
</svg>
