<?xml version="1.0" encoding="UTF-8" standalone="no"?>
<!DOCTYPE svg PUBLIC "-//W3C//DTD SVG 1.1//EN" "http://www.w3.org/Graphics/SVG/1.1/DTD/svg11.dtd">
<svg width="100%" height="100%" viewBox="0 0 200 236" version="1.1" xmlns="http://www.w3.org/2000/svg" xmlns:xlink="http://www.w3.org/1999/xlink" xml:space="preserve" xmlns:serif="http://www.serif.com/" style="fill-rule:evenodd;clip-rule:evenodd;stroke-linejoin:round;stroke-miterlimit:2;">
    <g transform="matrix(1,0,0,1,-1240,0)">
        <g id="アートボード7" transform="matrix(1,0,0,1,-203.747,-2500)">
            <rect x="1443.75" y="2500" width="199.7" height="235.438" style="fill:none;"/>
            <clipPath id="_clip1">
                <rect x="1443.75" y="2500" width="199.7" height="235.438"/>
            </clipPath>
            <g clip-path="url(#_clip1)">
                <g transform="matrix(4.16667,0,0,4.16667,0.746669,0)">
                    <path d="M346.699,656.574L355.319,646.832L357.427,656.574L346.699,656.574Z" style="fill:rgb(130,26,27);fill-rule:nonzero;"/>
                    <path d="M346.699,643.916L355.319,646.832L346.699,656.574L346.699,643.916Z" style="fill:rgb(163,30,33);fill-rule:nonzero;"/>
                    <path d="M355.319,646.832L362.253,641.182L368.757,643.252L355.319,646.832Z" style="fill:rgb(239,56,42);fill-rule:nonzero;"/>
                    <path d="M346.699,643.916L355.134,638.076L362.253,641.182L346.699,643.916Z" style="fill:rgb(163,30,33);fill-rule:nonzero;"/>
                    <path d="M346.7,638.076L346.699,643.916L355.134,638.076L346.7,638.076Z" style="fill:rgb(130,26,27);fill-rule:nonzero;"/>
                    <path d="M346.699,643.916L355.319,646.832L362.253,641.182L346.699,643.916Z" style="fill:rgb(219,33,40);fill-rule:nonzero;"/>
                    <path d="M357.427,656.574L364.565,650.916L370.751,656.574L357.427,656.574Z" style="fill:rgb(163,30,33);fill-rule:nonzero;"/>
                    <path d="M368.757,643.252L355.319,646.832L364.565,650.916L368.757,643.252Z" style="fill:rgb(163,30,33);fill-rule:nonzero;"/>
                    <path d="M376.528,643.916L364.565,650.916L376.528,649.146L376.528,643.916Z" style="fill:rgb(163,30,33);fill-rule:nonzero;"/>
                    <path d="M370.751,656.574L376.528,649.146L364.565,650.916L370.751,656.574Z" style="fill:rgb(130,26,27);fill-rule:nonzero;"/>
                    <path d="M355.319,646.832L357.427,656.574L364.565,650.916L355.319,646.832Z" style="fill:rgb(219,33,40);fill-rule:nonzero;"/>
                    <path d="M382.716,651.393L370.751,656.574L376.528,649.146L382.716,651.393Z" style="fill:rgb(163,30,33);fill-rule:nonzero;"/>
                    <path d="M385.374,655.401L382.716,651.393L380.7,656.574L385.374,655.401Z" style="fill:rgb(163,30,33);fill-rule:nonzero;"/>
                    <path d="M384.89,642.092L382.716,651.393L376.528,649.146L384.89,642.092Z" style="fill:rgb(219,33,40);fill-rule:nonzero;"/>
                    <path d="M390.198,651.766L384.89,642.092L393.218,646.057L390.198,651.766Z" style="fill:rgb(130,26,27);fill-rule:nonzero;"/>
                    <path d="M382.716,651.393L390.198,651.766L384.89,642.092L382.716,651.393Z" style="fill:rgb(163,30,33);fill-rule:nonzero;"/>
                    <path d="M370.751,656.574L380.7,656.574L382.716,651.393L370.751,656.574Z" style="fill:rgb(219,33,40);fill-rule:nonzero;"/>
                    <path d="M385.374,655.401L390.198,651.766L382.716,651.393L385.374,655.401Z" style="fill:rgb(130,26,27);fill-rule:nonzero;"/>
                    <path d="M364.565,650.916L368.757,643.252L376.528,643.916L364.565,650.916Z" style="fill:rgb(219,33,40);fill-rule:nonzero;"/>
                    <path d="M393.979,638.506L390.198,640.449L393.218,646.057L393.979,638.506Z" style="fill:rgb(130,26,27);fill-rule:nonzero;"/>
                    <path d="M384.89,642.092L390.198,640.449L393.218,646.057L384.89,642.092Z" style="fill:rgb(163,30,33);fill-rule:nonzero;"/>
                    <path d="M376.528,643.916L384.89,642.092L376.528,649.146L376.528,643.916Z" style="fill:rgb(130,26,27);fill-rule:nonzero;"/>
                    <path d="M362.253,641.182L360.269,638.076L355.134,638.076L362.253,641.182Z" style="fill:rgb(130,26,27);fill-rule:nonzero;"/>
                    <path d="M367.083,634.084L368.757,643.252L362.253,641.182L367.083,634.084Z" style="fill:rgb(219,33,40);fill-rule:nonzero;"/>
                    <path d="M360.269,638.076L367.083,634.084L362.253,641.182L360.269,638.076Z" style="fill:rgb(163,30,33);fill-rule:nonzero;"/>
                    <path d="M376.528,643.916L376.12,633.65L368.757,643.252L376.528,643.916Z" style="fill:rgb(163,30,33);fill-rule:nonzero;"/>
                    <path d="M367.083,634.084L376.12,633.65L368.757,643.252L367.083,634.084Z" style="fill:rgb(130,26,27);fill-rule:nonzero;"/>
                    <path d="M384.89,642.092L384.89,634.926L390.198,640.449L384.89,642.092Z" style="fill:rgb(219,33,40);fill-rule:nonzero;"/>
                    <path d="M393.979,638.506L389.343,634.084L390.198,640.449L393.979,638.506Z" style="fill:rgb(219,33,40);fill-rule:nonzero;"/>
                    <path d="M391.661,629.273L389.343,634.084L393.979,638.506L391.661,629.273Z" style="fill:rgb(130,26,27);fill-rule:nonzero;"/>
                    <path d="M385.161,623.623L389.343,634.084L391.661,629.273L385.161,623.623Z" style="fill:rgb(239,57,36);fill-rule:nonzero;"/>
                    <path d="M378.251,620.109L381.136,630.998L385.161,623.623L378.251,620.109Z" style="fill:rgb(242,100,33);fill-rule:nonzero;"/>
                    <path d="M376.528,643.916L384.89,634.926L376.12,633.65L376.528,643.916Z" style="fill:rgb(219,33,40);fill-rule:nonzero;"/>
                    <path d="M384.89,642.092L384.89,634.926L376.528,643.916L384.89,642.092Z" style="fill:rgb(163,30,33);fill-rule:nonzero;"/>
                    <path d="M389.343,634.084L384.89,634.926L390.198,640.449L389.343,634.084Z" style="fill:rgb(239,56,42);fill-rule:nonzero;"/>
                    <path d="M381.136,630.998L384.89,634.926L385.161,623.623L381.136,630.998Z" style="fill:rgb(245,127,31);fill-rule:nonzero;"/>
                    <path d="M376.12,633.65L384.89,634.926L381.136,630.998L376.12,633.65Z" style="fill:rgb(239,72,39);fill-rule:nonzero;"/>
                    <path d="M378.251,620.109L370.835,622.127L381.136,630.998L378.251,620.109Z" style="fill:rgb(252,194,16);fill-rule:nonzero;"/>
                    <path d="M376.12,633.65L370.804,628.367L367.083,634.084L376.12,633.65Z" style="fill:rgb(239,72,39);fill-rule:nonzero;"/>
                    <path d="M370.835,622.127L376.12,633.65L381.136,630.998L370.835,622.127Z" style="fill:rgb(242,100,33);fill-rule:nonzero;"/>
                    <path d="M370.804,628.367L370.835,622.127L376.12,633.65L370.804,628.367Z" style="fill:rgb(250,163,26);fill-rule:nonzero;"/>
                    <path d="M360.269,638.076L360.843,627.277L367.083,634.084L360.269,638.076Z" style="fill:rgb(239,56,42);fill-rule:nonzero;"/>
                    <path d="M370.804,628.367L360.843,627.277L367.083,634.084L370.804,628.367Z" style="fill:rgb(242,100,33);fill-rule:nonzero;"/>
                    <path d="M370.835,622.127L365.124,622.588L370.804,628.367L370.835,622.127Z" style="fill:rgb(245,127,31);fill-rule:nonzero;"/>
                    <path d="M378.251,620.109L372.466,617L370.835,622.127L378.251,620.109Z" style="fill:rgb(247,239,109);fill-rule:nonzero;"/>
                    <path d="M367.98,613.613L372.466,617L370.835,622.127L367.98,613.613Z" style="fill:rgb(245,127,31);fill-rule:nonzero;"/>
                    <path d="M365.124,622.588L370.835,622.127L367.98,613.613L365.124,622.588Z" style="fill:rgb(253,210,76);fill-rule:nonzero;"/>
                    <path d="M360.843,627.277L356.917,621.006L360.269,638.076L360.843,627.277Z" style="fill:rgb(245,127,31);fill-rule:nonzero;"/>
                    <path d="M365.124,622.588L360.843,627.277L370.804,628.367L365.124,622.588Z" style="fill:rgb(252,194,16);fill-rule:nonzero;"/>
                    <path d="M367.98,613.613L357.835,614.43L365.124,622.588L367.98,613.613Z" style="fill:rgb(250,163,26);fill-rule:nonzero;"/>
                    <path d="M372.466,617L379.45,609.231L367.98,613.613L372.466,617Z" style="fill:rgb(253,200,13);fill-rule:nonzero;"/>
                    <path d="M379.45,609.231L382.815,613.613L372.466,617L379.45,609.231Z" style="fill:rgb(250,163,26);fill-rule:nonzero;"/>
                    <path d="M378.251,620.109L385.161,617.871L388.026,613.92L378.251,620.109Z" style="fill:rgb(250,163,26);fill-rule:nonzero;"/>
                    <path d="M393.979,617.871L385.161,617.871L388.026,613.92L393.979,617.871Z" style="fill:rgb(242,100,33);fill-rule:nonzero;"/>
                    <path d="M393.979,611.014L393.979,617.871L388.026,613.92L393.979,611.014Z" style="fill:rgb(253,210,76);fill-rule:nonzero;"/>
                    <path d="M382.815,613.613L378.251,620.109L388.026,613.92L382.815,613.613Z" style="fill:rgb(245,127,31);fill-rule:nonzero;"/>
                    <path d="M351.481,632.676L356.917,621.006L360.269,638.076L351.481,632.676Z" style="fill:rgb(242,100,33);fill-rule:nonzero;"/>
                    <path d="M348.012,623.896L356.917,621.006L351.481,632.676L348.012,623.896Z" style="fill:rgb(252,180,20);fill-rule:nonzero;"/>
                    <path d="M346.699,615.041L357.835,614.43L348.012,623.896L346.699,615.041Z" style="fill:rgb(253,200,13);fill-rule:nonzero;"/>
                    <path d="M356.917,621.006L365.124,622.588L360.843,627.277L356.917,621.006Z" style="fill:rgb(249,158,27);fill-rule:nonzero;"/>
                    <path d="M357.835,614.43L356.917,621.006L348.012,623.896L357.835,614.43Z" style="fill:rgb(250,163,26);fill-rule:nonzero;"/>
                    <path d="M365.124,622.588L357.835,614.43L356.917,621.006L365.124,622.588Z" style="fill:rgb(252,180,20);fill-rule:nonzero;"/>
                    <path d="M379.45,609.231L367.368,603.061L367.98,613.613L379.45,609.231Z" style="fill:rgb(252,180,20);fill-rule:nonzero;"/>
                    <path d="M357.835,614.43L367.368,603.061L367.98,613.613L357.835,614.43Z" style="fill:rgb(247,239,109);fill-rule:nonzero;"/>
                    <path d="M349.421,605.914L357.835,614.43L346.699,615.041L349.421,605.914Z" style="fill:rgb(247,239,109);fill-rule:nonzero;"/>
                    <path d="M353.858,602.295L357.835,614.43L359.823,600.115L353.858,602.295Z" style="fill:rgb(253,200,13);fill-rule:nonzero;"/>
                    <path d="M367.368,603.061L359.823,600.115L357.835,614.43L367.368,603.061Z" style="fill:rgb(253,210,76);fill-rule:nonzero;"/>
                    <path d="M349.421,605.914L353.858,602.295L357.835,614.43L349.421,605.914Z" style="fill:rgb(250,163,26);fill-rule:nonzero;"/>
                    <path d="M393.979,611.014L384.347,607.037L393.931,600.256L393.979,611.014Z" style="fill:rgb(252,194,16);fill-rule:nonzero;"/>
                    <path d="M377.36,600.115L384.347,607.037L393.931,600.256L377.36,600.115Z" style="fill:rgb(247,239,109);fill-rule:nonzero;"/>
                    <path d="M388.026,613.92L393.979,611.014L384.347,607.037L388.026,613.92Z" style="fill:rgb(245,127,31);fill-rule:nonzero;"/>
                    <path d="M379.45,609.231L384.347,607.037L382.815,613.613L379.45,609.231Z" style="fill:rgb(247,239,109);fill-rule:nonzero;"/>
                    <path d="M367.368,603.061L377.36,600.115L379.45,609.231L367.368,603.061Z" style="fill:rgb(250,163,26);fill-rule:nonzero;"/>
                    <path d="M384.347,607.037L377.36,600.115L379.45,609.231L384.347,607.037Z" style="fill:rgb(253,210,76);fill-rule:nonzero;"/>
                    <path d="M359.823,600.115L367.368,603.061L377.36,600.115L359.823,600.115Z" style="fill:rgb(252,194,16);fill-rule:nonzero;"/>
                    <path d="M384.89,634.926L389.343,634.084L385.161,623.623L384.89,634.926Z" style="fill:rgb(242,100,33);fill-rule:nonzero;"/>
                    <path d="M384.347,607.037L388.026,613.92L382.815,613.613L384.347,607.037Z" style="fill:rgb(252,194,16);fill-rule:nonzero;"/>
                    <path d="M346.699,615.041L349.421,605.914L346.7,600.115L346.699,615.041Z" style="fill:rgb(250,163,26);fill-rule:nonzero;"/>
                    <path d="M346.7,600.115L349.421,605.914L353.858,602.295L346.7,600.115Z" style="fill:rgb(252,180,20);fill-rule:nonzero;"/>
                    <path d="M359.823,600.115L353.858,602.295L346.7,600.115L359.823,600.115Z" style="fill:rgb(245,127,31);fill-rule:nonzero;"/>
                    <path d="M378.251,620.109L372.466,617L382.815,613.613L378.251,620.109Z" style="fill:rgb(253,210,76);fill-rule:nonzero;"/>
                    <path d="M380.7,656.574L346.698,656.574L346.698,643.916L346.7,638.076L346.699,643.916L346.699,656.574L370.751,656.574L376.528,649.146L364.565,650.916L376.528,649.146L376.528,643.916L376.528,649.146L370.751,656.574L382.716,651.393L370.751,656.574L380.7,656.574L385.374,655.401L390.198,651.766L382.716,651.393L390.198,651.766L384.89,642.092L390.198,651.766L393.218,646.057L393.979,638.506L393.218,646.057L390.198,651.766L385.374,655.401L380.7,656.574ZM360.269,638.076L351.481,632.676L348.011,623.896L346.698,615.041L346.7,600.115L346.699,615.041L348.012,623.896L351.481,632.676L360.269,638.076Z" style="fill:rgb(3,4,4);fill-rule:nonzero;"/>
                    <path d="M357.427,656.574L346.699,656.574L355.319,646.832L357.427,656.574Z" style="fill:rgb(8,76,108);fill-rule:nonzero;"/>
                    <path d="M346.699,656.574L346.699,643.916L355.319,646.832L346.699,656.574Z" style="fill:rgb(13,89,127);fill-rule:nonzero;"/>
                    <path d="M355.319,646.832L362.253,641.182L368.757,643.252L355.319,646.832Z" style="fill:rgb(11,140,196);fill-rule:nonzero;"/>
                    <path d="M346.699,643.916L355.134,638.076L362.253,641.182L346.699,643.916Z" style="fill:rgb(13,89,127);fill-rule:nonzero;"/>
                    <path d="M346.699,643.916L346.7,638.076L355.134,638.076L346.699,643.916Z" style="fill:rgb(8,76,108);fill-rule:nonzero;"/>
                    <path d="M355.319,646.832L346.699,643.916L362.253,641.182L355.319,646.832Z" style="fill:rgb(12,118,170);fill-rule:nonzero;"/>
                    <path d="M370.751,656.574L357.427,656.574L364.565,650.916L370.751,656.574Z" style="fill:rgb(13,89,127);fill-rule:nonzero;"/>
                    <path d="M364.565,650.916L355.319,646.832L368.757,643.252L364.565,650.916Z" style="fill:rgb(13,89,127);fill-rule:nonzero;"/>
                    <path d="M364.565,650.916L376.528,643.916L376.528,649.146L364.565,650.916Z" style="fill:rgb(13,89,127);fill-rule:nonzero;"/>
                    <path d="M370.751,656.574L364.565,650.916L376.528,649.146L370.751,656.574Z" style="fill:rgb(8,76,108);fill-rule:nonzero;"/>
                    <path d="M357.427,656.574L355.319,646.832L364.565,650.916L357.427,656.574Z" style="fill:rgb(12,118,170);fill-rule:nonzero;"/>
                    <path d="M370.751,656.574L376.528,649.146L382.716,651.393L370.751,656.574Z" style="fill:rgb(13,89,127);fill-rule:nonzero;"/>
                    <path d="M380.7,656.574L382.716,651.393L385.374,655.401L380.7,656.574Z" style="fill:rgb(13,89,127);fill-rule:nonzero;"/>
                    <path d="M382.716,651.393L376.528,649.146L384.89,642.092L382.716,651.393Z" style="fill:rgb(12,118,170);fill-rule:nonzero;"/>
                    <path d="M390.198,651.766L384.89,642.092L393.218,646.057L390.198,651.766Z" style="fill:rgb(8,76,108);fill-rule:nonzero;"/>
                    <path d="M390.198,651.766L382.716,651.393L384.89,642.092L390.198,651.766Z" style="fill:rgb(13,89,127);fill-rule:nonzero;"/>
                    <path d="M380.7,656.574L370.751,656.574L382.716,651.393L380.7,656.574Z" style="fill:rgb(12,118,170);fill-rule:nonzero;"/>
                    <path d="M385.374,655.401L382.716,651.393L390.198,651.766L385.374,655.401Z" style="fill:rgb(8,76,108);fill-rule:nonzero;"/>
                    <path d="M364.565,650.916L368.757,643.252L376.528,643.916L364.565,650.916Z" style="fill:rgb(12,118,170);fill-rule:nonzero;"/>
                    <path d="M393.218,646.057L390.198,640.449L393.979,638.506L393.218,646.057Z" style="fill:rgb(8,76,108);fill-rule:nonzero;"/>
                    <path d="M393.218,646.057L384.89,642.092L390.198,640.449L393.218,646.057Z" style="fill:rgb(13,89,127);fill-rule:nonzero;"/>
                    <path d="M376.528,649.146L376.528,643.916L384.89,642.092L376.528,649.146Z" style="fill:rgb(8,76,108);fill-rule:nonzero;"/>
                    <path d="M362.253,641.182L355.134,638.076L360.269,638.076L362.253,641.182Z" style="fill:rgb(8,76,108);fill-rule:nonzero;"/>
                    <path d="M368.757,643.252L362.253,641.182L367.083,634.084L368.757,643.252Z" style="fill:rgb(12,118,170);fill-rule:nonzero;"/>
                    <path d="M362.253,641.182L360.269,638.076L367.083,634.084L362.253,641.182Z" style="fill:rgb(13,89,127);fill-rule:nonzero;"/>
                    <path d="M376.528,643.916L368.757,643.252L376.12,633.65L376.528,643.916Z" style="fill:rgb(13,89,127);fill-rule:nonzero;"/>
                    <path d="M368.757,643.252L367.083,634.084L376.12,633.65L368.757,643.252Z" style="fill:rgb(8,76,108);fill-rule:nonzero;"/>
                    <path d="M384.89,642.092L384.89,634.926L390.198,640.449L384.89,642.092Z" style="fill:rgb(12,118,170);fill-rule:nonzero;"/>
                    <path d="M390.198,640.449L389.343,634.084L393.979,638.506L390.198,640.449Z" style="fill:rgb(12,118,170);fill-rule:nonzero;"/>
                    <path d="M393.979,638.506L389.343,634.084L391.661,629.273L393.979,638.506Z" style="fill:rgb(8,76,108);fill-rule:nonzero;"/>
                    <path d="M389.343,634.084L385.161,623.623L391.661,629.273L389.343,634.084Z" style="fill:rgb(11,140,196);fill-rule:nonzero;"/>
                    <path d="M381.136,630.998L378.251,620.109L385.161,623.623L381.136,630.998Z" style="fill:rgb(34,166,222);fill-rule:nonzero;"/>
                    <path d="M376.528,643.916L376.12,633.65L384.89,634.926L376.528,643.916Z" style="fill:rgb(12,118,170);fill-rule:nonzero;"/>
                    <path d="M376.528,643.916L384.89,634.926L384.89,642.092L376.528,643.916Z" style="fill:rgb(13,89,127);fill-rule:nonzero;"/>
                    <path d="M390.198,640.449L384.89,634.926L389.343,634.084L390.198,640.449Z" style="fill:rgb(11,140,196);fill-rule:nonzero;"/>
                    <path d="M384.89,634.926L381.136,630.998L385.161,623.623L384.89,634.926Z" style="fill:rgb(63,183,233);fill-rule:nonzero;"/>
                    <path d="M384.89,634.926L376.12,633.65L381.136,630.998L384.89,634.926Z" style="fill:rgb(24,150,206);fill-rule:nonzero;"/>
                    <path d="M381.136,630.998L370.835,622.127L378.251,620.109L381.136,630.998Z" style="fill:rgb(127,212,247);fill-rule:nonzero;"/>
                    <path d="M367.083,634.084L370.804,628.367L376.12,633.65L367.083,634.084Z" style="fill:rgb(24,150,206);fill-rule:nonzero;"/>
                    <path d="M376.12,633.65L370.835,622.127L381.136,630.998L376.12,633.65Z" style="fill:rgb(34,166,222);fill-rule:nonzero;"/>
                    <path d="M376.12,633.65L370.804,628.367L370.835,622.127L376.12,633.65Z" style="fill:rgb(96,200,243);fill-rule:nonzero;"/>
                    <path d="M360.269,638.076L360.843,627.277L367.083,634.084L360.269,638.076Z" style="fill:rgb(11,140,196);fill-rule:nonzero;"/>
                    <path d="M367.083,634.084L360.843,627.277L370.804,628.367L367.083,634.084Z" style="fill:rgb(34,166,222);fill-rule:nonzero;"/>
                    <path d="M370.804,628.367L365.124,622.588L370.835,622.127L370.804,628.367Z" style="fill:rgb(63,183,233);fill-rule:nonzero;"/>
                    <path d="M370.835,622.127L372.466,617L378.251,620.109L370.835,622.127Z" style="fill:rgb(213,239,252);fill-rule:nonzero;"/>
                    <path d="M370.835,622.127L367.98,613.613L372.466,617L370.835,622.127Z" style="fill:rgb(63,183,233);fill-rule:nonzero;"/>
                    <path d="M365.124,622.588L367.98,613.613L370.835,622.127L365.124,622.588Z" style="fill:rgb(161,222,249);fill-rule:nonzero;"/>
                    <path d="M360.269,638.076L356.917,621.006L360.843,627.277L360.269,638.076Z" style="fill:rgb(63,183,233);fill-rule:nonzero;"/>
                    <path d="M370.804,628.367L360.843,627.277L365.124,622.588L370.804,628.367Z" style="fill:rgb(127,212,247);fill-rule:nonzero;"/>
                    <path d="M365.124,622.588L357.835,614.43L367.98,613.613L365.124,622.588Z" style="fill:rgb(96,200,243);fill-rule:nonzero;"/>
                    <path d="M372.466,617L367.98,613.613L379.45,609.231L372.466,617Z" style="fill:rgb(132,213,247);fill-rule:nonzero;"/>
                    <path d="M372.466,617L379.45,609.231L382.815,613.613L372.466,617Z" style="fill:rgb(96,200,243);fill-rule:nonzero;"/>
                    <path d="M378.251,620.109L388.026,613.92L385.161,617.871L378.251,620.109Z" style="fill:rgb(96,200,243);fill-rule:nonzero;"/>
                    <path d="M393.979,617.871L385.161,617.871L388.026,613.92L393.979,617.871Z" style="fill:rgb(34,166,222);fill-rule:nonzero;"/>
                    <path d="M393.979,617.871L388.026,613.92L393.979,611.014L393.979,617.871Z" style="fill:rgb(161,222,249);fill-rule:nonzero;"/>
                    <path d="M378.251,620.109L382.815,613.613L388.026,613.92L378.251,620.109Z" style="fill:rgb(63,183,233);fill-rule:nonzero;"/>
                    <path d="M360.269,638.076L351.481,632.676L356.917,621.006L360.269,638.076Z" style="fill:rgb(34,166,222);fill-rule:nonzero;"/>
                    <path d="M351.481,632.676L348.012,623.896L356.917,621.006L351.481,632.676Z" style="fill:rgb(113,207,246);fill-rule:nonzero;"/>
                    <path d="M348.012,623.896L346.699,615.041L357.835,614.43L348.012,623.896Z" style="fill:rgb(132,213,247);fill-rule:nonzero;"/>
                    <path d="M360.843,627.277L356.917,621.006L365.124,622.588L360.843,627.277Z" style="fill:rgb(92,199,242);fill-rule:nonzero;"/>
                    <path d="M348.012,623.896L357.835,614.43L356.917,621.006L348.012,623.896Z" style="fill:rgb(96,200,243);fill-rule:nonzero;"/>
                    <path d="M365.124,622.588L356.917,621.006L357.835,614.43L365.124,622.588Z" style="fill:rgb(113,207,246);fill-rule:nonzero;"/>
                    <path d="M367.98,613.613L367.368,603.061L379.45,609.231L367.98,613.613Z" style="fill:rgb(113,207,246);fill-rule:nonzero;"/>
                    <path d="M357.835,614.43L367.368,603.061L367.98,613.613L357.835,614.43Z" style="fill:rgb(213,239,252);fill-rule:nonzero;"/>
                    <path d="M346.699,615.041L349.421,605.914L357.835,614.43L346.699,615.041Z" style="fill:rgb(213,239,252);fill-rule:nonzero;"/>
                    <path d="M357.835,614.43L353.858,602.295L359.823,600.115L357.835,614.43Z" style="fill:rgb(132,213,247);fill-rule:nonzero;"/>
                    <path d="M357.835,614.43L359.823,600.115L367.368,603.061L357.835,614.43Z" style="fill:rgb(161,222,249);fill-rule:nonzero;"/>
                    <path d="M357.835,614.43L349.421,605.914L353.858,602.295L357.835,614.43Z" style="fill:rgb(96,200,243);fill-rule:nonzero;"/>
                    <path d="M393.979,611.014L384.347,607.037L393.931,600.256L393.979,611.014Z" style="fill:rgb(127,212,247);fill-rule:nonzero;"/>
                    <path d="M384.347,607.037L377.36,600.115L393.931,600.256L384.347,607.037Z" style="fill:rgb(213,239,252);fill-rule:nonzero;"/>
                    <path d="M388.026,613.92L384.347,607.037L393.979,611.014L388.026,613.92Z" style="fill:rgb(63,183,233);fill-rule:nonzero;"/>
                    <path d="M382.815,613.613L379.45,609.231L384.347,607.037L382.815,613.613Z" style="fill:rgb(213,239,252);fill-rule:nonzero;"/>
                    <path d="M379.45,609.231L367.368,603.061L377.36,600.115L379.45,609.231Z" style="fill:rgb(96,200,243);fill-rule:nonzero;"/>
                    <path d="M379.45,609.231L377.36,600.115L384.347,607.037L379.45,609.231Z" style="fill:rgb(161,222,249);fill-rule:nonzero;"/>
                    <path d="M367.368,603.061L359.823,600.115L377.36,600.115L367.368,603.061Z" style="fill:rgb(127,212,247);fill-rule:nonzero;"/>
                    <path d="M384.89,634.926L385.161,623.623L389.343,634.084L384.89,634.926Z" style="fill:rgb(34,166,222);fill-rule:nonzero;"/>
                    <path d="M388.026,613.92L382.815,613.613L384.347,607.037L388.026,613.92Z" style="fill:rgb(127,212,247);fill-rule:nonzero;"/>
                    <path d="M346.699,615.041L346.7,600.115L349.421,605.914L346.699,615.041Z" style="fill:rgb(96,200,243);fill-rule:nonzero;"/>
                    <path d="M349.421,605.914L346.7,600.115L353.858,602.295L349.421,605.914Z" style="fill:rgb(113,207,246);fill-rule:nonzero;"/>
                    <path d="M353.858,602.295L346.7,600.115L359.823,600.115L353.858,602.295Z" style="fill:rgb(63,183,233);fill-rule:nonzero;"/>
                    <path d="M378.251,620.109L372.466,617L382.815,613.613L378.251,620.109Z" style="fill:rgb(161,222,249);fill-rule:nonzero;"/>
                </g>
            </g>
        </g>
    </g>
</svg>
