<?xml version="1.0" encoding="UTF-8" standalone="no"?>
<!DOCTYPE svg PUBLIC "-//W3C//DTD SVG 1.1//EN" "http://www.w3.org/Graphics/SVG/1.1/DTD/svg11.dtd">
<svg width="100%" height="100%" viewBox="0 0 195 236" version="1.1" xmlns="http://www.w3.org/2000/svg" xmlns:xlink="http://www.w3.org/1999/xlink" xml:space="preserve" xmlns:serif="http://www.serif.com/" style="fill-rule:evenodd;clip-rule:evenodd;stroke-linejoin:round;stroke-miterlimit:2;">
    <g transform="matrix(1,0,0,1,-1515.95,0)">
        <g id="アートボード8" transform="matrix(0.990099,0,0,1,-184.528,-2500)">
            <rect x="1717.48" y="2500" width="196.777" height="235.438" style="fill:none;"/>
            <g transform="matrix(4.20833,0,0,4.16667,-18.6562,0)">
                <path d="M455.315,652.408L447.429,648.533L459.122,645.582L455.315,652.408Z" style="fill:rgb(140,26,27);fill-rule:nonzero;"/>
                <path d="M459.122,637.52L451.372,641.553L459.122,645.582L459.122,637.52Z" style="fill:rgb(244,117,32);fill-rule:nonzero;"/>
                <path d="M447.429,648.533L451.372,641.553L459.122,645.582L447.429,648.533Z" style="fill:rgb(185,33,39);fill-rule:nonzero;"/>
                <path d="M456.329,631.787L451.372,641.553L459.122,637.52L456.329,631.787Z" style="fill:rgb(239,56,42);fill-rule:nonzero;"/>
                <path d="M450.595,628.141L443.243,634.852L456.329,631.787L450.595,628.141Z" style="fill:rgb(239,56,42);fill-rule:nonzero;"/>
                <path d="M451.372,641.553L443.243,634.852L456.329,631.787L451.372,641.553Z" style="fill:rgb(244,117,32);fill-rule:nonzero;"/>
                <path d="M437.587,648.402L447.429,648.533L442.833,642.033L437.587,648.402Z" style="fill:rgb(185,33,39);fill-rule:nonzero;"/>
                <path d="M449.03,655.672L455.315,652.408L447.429,648.533L449.03,655.672Z" style="fill:rgb(185,33,39);fill-rule:nonzero;"/>
                <path d="M437.587,648.402L442.304,656.486L447.429,648.533L437.587,648.402Z" style="fill:rgb(219,33,40);fill-rule:nonzero;"/>
                <path d="M449.03,655.672L442.304,656.486L447.429,648.533L449.03,655.672Z" style="fill:rgb(140,26,27);fill-rule:nonzero;"/>
                <path d="M435.228,637.18L437.587,648.402L442.833,642.033L435.228,637.18Z" style="fill:rgb(239,56,42);fill-rule:nonzero;"/>
                <path d="M428.315,656.486L442.304,656.486L437.587,648.402L428.315,656.486Z" style="fill:rgb(185,33,39);fill-rule:nonzero;"/>
                <path d="M427.376,642.348L437.587,648.402L435.228,637.18L427.376,642.348Z" style="fill:rgb(219,33,40);fill-rule:nonzero;"/>
                <path d="M450.595,628.141L438.278,627.449L443.243,634.852L450.595,628.141Z" style="fill:rgb(241,88,35);fill-rule:nonzero;"/>
                <path d="M427.376,642.348L422.677,638.975L435.228,637.18L427.376,642.348Z" style="fill:rgb(242,102,33);fill-rule:nonzero;"/>
                <path d="M426.198,628.344L435.228,637.18L438.278,627.449L426.198,628.344Z" style="fill:rgb(239,61,35);fill-rule:nonzero;"/>
                <path d="M427.376,642.348L428.315,656.486L437.587,648.402L427.376,642.348Z" style="fill:rgb(156,28,32);fill-rule:nonzero;"/>
                <path d="M426.198,628.344L432.239,622.418L438.278,627.449L426.198,628.344Z" style="fill:rgb(247,143,30);fill-rule:nonzero;"/>
                <path d="M450.595,628.141L443.243,620.391L438.278,627.449L450.595,628.141Z" style="fill:rgb(244,117,32);fill-rule:nonzero;"/>
                <path d="M459.122,614.754L448.483,611.621L459.122,621.522L459.122,614.754Z" style="fill:rgb(251,173,23);fill-rule:nonzero;"/>
                <path d="M443.243,620.391L454.771,625.76L450.595,628.141L443.243,620.391Z" style="fill:rgb(238,45,42);fill-rule:nonzero;"/>
                <path d="M452.239,620.391L454.771,625.76L459.122,621.522L452.239,620.391Z" style="fill:rgb(244,117,32);fill-rule:nonzero;"/>
                <path d="M451.884,601.811L443.96,605.93L456.616,606.922L451.884,601.811Z" style="fill:rgb(252,194,16);fill-rule:nonzero;"/>
                <path d="M448.483,611.621L456.616,606.922L459.122,614.754L448.483,611.621Z" style="fill:rgb(251,219,78);fill-rule:nonzero;"/>
                <path d="M419.339,600.213L420.681,607.08L412.626,607.879L419.339,600.213Z" style="fill:rgb(252,180,20);fill-rule:nonzero;"/>
                <path d="M432.239,622.418L430.903,616.963L428.952,620.881L432.239,622.418Z" style="fill:rgb(241,94,35);fill-rule:nonzero;"/>
                <path d="M443.96,605.93L448.483,611.621L456.616,606.922L443.96,605.93Z" style="fill:rgb(251,173,23);fill-rule:nonzero;"/>
                <path d="M436.587,611.928L448.483,611.621L443.243,620.391L436.587,611.928Z" style="fill:rgb(247,145,29);fill-rule:nonzero;"/>
                <path d="M443.96,605.93L436.587,611.928L448.483,611.621L443.96,605.93Z" style="fill:rgb(252,194,16);fill-rule:nonzero;"/>
                <path d="M429.97,612.219L430.903,600.201L436.587,611.928L429.97,612.219Z" style="fill:rgb(251,219,78);fill-rule:nonzero;"/>
                <path d="M430.903,600.201L443.96,605.93L436.587,611.928L430.903,600.201Z" style="fill:rgb(251,173,23);fill-rule:nonzero;"/>
                <path d="M444.771,600.201L443.96,605.93L430.903,600.201L444.771,600.201Z" style="fill:rgb(252,194,16);fill-rule:nonzero;"/>
                <path d="M444.771,600.201L451.884,601.811L443.96,605.93L444.771,600.201Z" style="fill:rgb(251,219,78);fill-rule:nonzero;"/>
                <path d="M419.339,600.201L420.681,607.068L430.903,600.201L419.339,600.201Z" style="fill:rgb(251,242,125);fill-rule:nonzero;"/>
                <path d="M443.138,620.391L452.239,620.391L454.771,625.76L443.138,620.391Z" style="fill:rgb(247,143,30);fill-rule:nonzero;"/>
                <path d="M448.483,611.621L452.239,620.391L459.122,621.522L448.483,611.621Z" style="fill:rgb(247,143,30);fill-rule:nonzero;"/>
                <path d="M443.243,620.391L452.239,620.391L448.483,611.621L443.243,620.391Z" style="fill:rgb(251,219,78);fill-rule:nonzero;"/>
                <path d="M436.587,611.928L438.278,627.449L443.243,620.391L436.587,611.928Z" style="fill:rgb(252,194,16);fill-rule:nonzero;"/>
                <path d="M418.304,652.51L422.677,649.281L413.399,645.043L418.304,652.51Z" style="fill:rgb(219,33,40);fill-rule:nonzero;"/>
                <path d="M428.315,656.486L418.304,652.51L422.677,649.281L428.315,656.486Z" style="fill:rgb(140,26,27);fill-rule:nonzero;"/>
                <path d="M413.399,645.043L427.376,642.348L422.677,649.281L413.399,645.043Z" style="fill:rgb(161,29,33);fill-rule:nonzero;"/>
                <path d="M418.304,624.266L426.198,628.344L418.854,633.016L418.304,624.266Z" style="fill:rgb(240,77,34);fill-rule:nonzero;"/>
                <path d="M423.983,623.637L418.304,624.266L426.198,628.344L423.983,623.637Z" style="fill:rgb(243,113,33);fill-rule:nonzero;"/>
                <path d="M413.399,645.043L427.376,642.348L422.677,638.975L413.399,645.043Z" style="fill:rgb(239,57,36);fill-rule:nonzero;"/>
                <path d="M422.677,649.281L428.315,656.486L427.376,642.348L422.677,649.281Z" style="fill:rgb(183,32,38);fill-rule:nonzero;"/>
                <path d="M420.681,607.068L422.677,613.654L412.626,607.867L420.681,607.068Z" style="fill:rgb(247,145,29);fill-rule:nonzero;"/>
                <path d="M420.681,607.068L430.903,600.201L422.677,613.654L420.681,607.068Z" style="fill:rgb(255,200,6);fill-rule:nonzero;"/>
                <path d="M423.983,618.559L428.952,620.881L430.903,616.963L423.983,618.559Z" style="fill:rgb(247,145,29);fill-rule:nonzero;"/>
                <path d="M430.903,600.201L429.97,612.219L422.677,613.654L430.903,600.201Z" style="fill:rgb(251,173,23);fill-rule:nonzero;"/>
                <path d="M442.833,642.033L447.429,648.533L451.372,641.553L442.833,642.033Z" style="fill:rgb(163,30,33);fill-rule:nonzero;"/>
                <path d="M451.372,641.553L442.833,642.033L443.243,634.852L451.372,641.553Z" style="fill:rgb(239,56,42);fill-rule:nonzero;"/>
                <path d="M422.677,613.654L412.626,618.559L412.626,607.867L422.677,613.654Z" style="fill:rgb(251,219,78);fill-rule:nonzero;"/>
                <path d="M435.228,637.18L443.243,634.852L438.278,627.449L435.228,637.18Z" style="fill:rgb(238,39,43);fill-rule:nonzero;"/>
                <path d="M435.228,637.18L442.833,642.033L443.243,634.852L435.228,637.18Z" style="fill:rgb(241,88,35);fill-rule:nonzero;"/>
                <path d="M412.626,618.559L423.983,618.559L422.677,613.654L412.626,618.559Z" style="fill:rgb(255,200,6);fill-rule:nonzero;"/>
                <path d="M418.854,633.016L422.677,638.975L427.649,633.588L418.854,633.016Z" style="fill:rgb(241,94,39);fill-rule:nonzero;"/>
                <path d="M435.228,637.18L422.677,638.975L427.649,633.588L435.228,637.18Z" style="fill:rgb(239,56,42);fill-rule:nonzero;"/>
                <path d="M426.198,628.344L427.649,633.588L435.228,637.18L426.198,628.344Z" style="fill:rgb(244,117,32);fill-rule:nonzero;"/>
                <path d="M418.854,633.016L427.649,633.588L426.198,628.344L418.854,633.016Z" style="fill:rgb(238,39,43);fill-rule:nonzero;"/>
                <path d="M423.983,618.559L429.97,612.219L422.677,613.654L423.983,618.559Z" style="fill:rgb(251,219,78);fill-rule:nonzero;"/>
                <path d="M430.903,616.963L429.97,612.219L423.983,618.559L430.903,616.963Z" style="fill:rgb(251,173,23);fill-rule:nonzero;"/>
                <path d="M436.587,611.928L430.903,616.963L429.97,612.219L436.587,611.928Z" style="fill:rgb(252,194,16);fill-rule:nonzero;"/>
                <path d="M432.239,622.418L436.587,611.928L438.278,627.449L432.239,622.418Z" style="fill:rgb(251,219,78);fill-rule:nonzero;"/>
                <path d="M430.903,616.963L432.239,622.418L436.587,611.928L430.903,616.963Z" style="fill:rgb(251,173,23);fill-rule:nonzero;"/>
                <path d="M450.595,628.141L456.329,631.787L454.771,625.76L450.595,628.141Z" style="fill:rgb(241,88,35);fill-rule:nonzero;"/>
                <path d="M456.329,631.787L459.122,637.52L459.122,631.787L456.329,631.787Z" style="fill:rgb(241,88,35);fill-rule:nonzero;"/>
                <path d="M454.771,625.76L459.122,631.787L459.122,621.522L454.771,625.76Z" style="fill:rgb(185,33,39);fill-rule:nonzero;"/>
                <path d="M459.122,631.787L456.329,631.787L454.771,625.76L459.122,631.787Z" style="fill:rgb(239,56,42);fill-rule:nonzero;"/>
                <path d="M413.399,645.043L412.626,637.961L422.677,638.975L413.399,645.043Z" style="fill:rgb(140,26,27);fill-rule:nonzero;"/>
                <path d="M418.854,633.016L412.626,637.961L422.677,638.975L418.854,633.016Z" style="fill:rgb(244,117,32);fill-rule:nonzero;"/>
                <path d="M418.304,624.266L412.626,637.961L418.854,633.016L418.304,624.266Z" style="fill:rgb(238,39,43);fill-rule:nonzero;"/>
                <path d="M418.304,624.266L413.679,630.49L412.626,637.961L418.304,624.266Z" style="fill:rgb(239,56,42);fill-rule:nonzero;"/>
                <path d="M423.983,623.637L426.198,628.344L432.239,622.418L423.983,623.637Z" style="fill:rgb(251,219,78);fill-rule:nonzero;"/>
                <path d="M428.952,620.881L423.983,623.637L432.239,622.418L428.952,620.881Z" style="fill:rgb(252,194,16);fill-rule:nonzero;"/>
                <path d="M412.626,607.867L412.636,607.865L419.339,600.213L412.637,607.866L412.626,607.867ZM420.678,607.069L420.678,607.068L420.681,607.068L420.678,607.069Z" style="fill:rgb(3,4,4);fill-rule:nonzero;"/>
                <path d="M455.315,652.408L447.429,648.533L459.122,645.582L455.315,652.408Z" style="fill:rgb(11,80,114);fill-rule:nonzero;"/>
                <path d="M459.122,645.582L451.372,641.553L459.122,637.52L459.122,645.582Z" style="fill:rgb(50,177,230);fill-rule:nonzero;"/>
                <path d="M447.429,648.533L451.372,641.553L459.122,645.582L447.429,648.533Z" style="fill:rgb(9,106,151);fill-rule:nonzero;"/>
                <path d="M451.372,641.553L456.329,631.787L459.122,637.52L451.372,641.553Z" style="fill:rgb(11,140,196);fill-rule:nonzero;"/>
                <path d="M443.243,634.852L450.595,628.141L456.329,631.787L443.243,634.852Z" style="fill:rgb(11,140,196);fill-rule:nonzero;"/>
                <path d="M451.372,641.553L443.243,634.852L456.329,631.787L451.372,641.553Z" style="fill:rgb(50,177,230);fill-rule:nonzero;"/>
                <path d="M447.429,648.533L437.587,648.402L442.833,642.033L447.429,648.533Z" style="fill:rgb(9,106,151);fill-rule:nonzero;"/>
                <path d="M449.03,655.672L447.429,648.533L455.315,652.408L449.03,655.672Z" style="fill:rgb(9,106,151);fill-rule:nonzero;"/>
                <path d="M442.304,656.486L437.587,648.402L447.429,648.533L442.304,656.486Z" style="fill:rgb(12,118,170);fill-rule:nonzero;"/>
                <path d="M442.304,656.486L447.429,648.533L449.03,655.672L442.304,656.486Z" style="fill:rgb(11,80,114);fill-rule:nonzero;"/>
                <path d="M437.587,648.402L435.228,637.18L442.833,642.033L437.587,648.402Z" style="fill:rgb(11,140,196);fill-rule:nonzero;"/>
                <path d="M442.304,656.486L428.315,656.486L437.587,648.402L442.304,656.486Z" style="fill:rgb(9,106,151);fill-rule:nonzero;"/>
                <path d="M437.587,648.402L427.376,642.348L435.228,637.18L437.587,648.402Z" style="fill:rgb(12,118,170);fill-rule:nonzero;"/>
                <path d="M443.243,634.852L438.278,627.449L450.595,628.141L443.243,634.852Z" style="fill:rgb(26,160,216);fill-rule:nonzero;"/>
                <path d="M427.376,642.348L422.677,638.975L435.228,637.18L427.376,642.348Z" style="fill:rgb(38,168,224);fill-rule:nonzero;"/>
                <path d="M435.228,637.18L426.198,628.344L438.278,627.449L435.228,637.18Z" style="fill:rgb(13,143,199);fill-rule:nonzero;"/>
                <path d="M428.315,656.486L427.376,642.348L437.587,648.402L428.315,656.486Z" style="fill:rgb(12,86,123);fill-rule:nonzero;"/>
                <path d="M426.198,628.344L432.239,622.418L438.278,627.449L426.198,628.344Z" style="fill:rgb(76,192,238);fill-rule:nonzero;"/>
                <path d="M450.595,628.141L438.278,627.449L443.217,620.427L443.325,620.477L450.595,628.141Z" style="fill:rgb(50,177,230);fill-rule:nonzero;"/>
                <path d="M459.122,621.522L448.483,611.621L459.122,614.754L459.122,621.522Z" style="fill:rgb(106,203,244);fill-rule:nonzero;"/>
                <path d="M450.595,628.141L443.325,620.477L454.771,625.76L450.595,628.141Z" style="fill:rgb(19,134,190);fill-rule:nonzero;"/>
                <path d="M454.771,625.76L452.239,620.391L459.122,621.522L454.771,625.76Z" style="fill:rgb(50,177,230);fill-rule:nonzero;"/>
                <path d="M456.616,606.922L443.96,605.93L451.884,601.811L456.616,606.922Z" style="fill:rgb(127,212,247);fill-rule:nonzero;"/>
                <path d="M459.122,614.754L448.483,611.621L456.616,606.922L459.122,614.754Z" style="fill:rgb(173,225,250);fill-rule:nonzero;"/>
                <path d="M412.637,607.866L419.339,600.213L420.677,607.068L420.678,607.068L420.678,607.069L412.637,607.866Z" style="fill:rgb(113,207,246);fill-rule:nonzero;"/>
                <path d="M432.239,622.418L428.952,620.881L430.903,616.963L432.239,622.418Z" style="fill:rgb(28,163,219);fill-rule:nonzero;"/>
                <path d="M448.483,611.621L443.96,605.93L456.616,606.922L448.483,611.621Z" style="fill:rgb(106,203,244);fill-rule:nonzero;"/>
                <path d="M443.243,620.391L436.587,611.928L448.483,611.621L443.243,620.391Z" style="fill:rgb(78,192,238);fill-rule:nonzero;"/>
                <path d="M436.587,611.928L443.96,605.93L448.483,611.621L436.587,611.928Z" style="fill:rgb(127,212,247);fill-rule:nonzero;"/>
                <path d="M429.97,612.219L430.903,600.201L436.587,611.928L429.97,612.219Z" style="fill:rgb(173,225,250);fill-rule:nonzero;"/>
                <path d="M436.587,611.928L430.903,600.201L443.96,605.93L436.587,611.928Z" style="fill:rgb(106,203,244);fill-rule:nonzero;"/>
                <path d="M443.96,605.93L430.903,600.201L444.771,600.201L443.96,605.93Z" style="fill:rgb(127,212,247);fill-rule:nonzero;"/>
                <path d="M443.96,605.93L444.771,600.201L451.884,601.811L443.96,605.93Z" style="fill:rgb(173,225,250);fill-rule:nonzero;"/>
                <path d="M420.681,607.068L419.339,600.201L430.903,600.201L420.681,607.068Z" style="fill:rgb(206,237,252);fill-rule:nonzero;"/>
                <path d="M454.771,625.76L443.325,620.477L443.217,620.427L443.243,620.391L452.239,620.391L454.771,625.76Z" style="fill:rgb(76,192,238);fill-rule:nonzero;"/>
                <path d="M459.122,621.522L452.239,620.391L448.483,611.621L459.122,621.522Z" style="fill:rgb(76,192,238);fill-rule:nonzero;"/>
                <path d="M452.239,620.391L443.243,620.391L448.483,611.621L452.239,620.391Z" style="fill:rgb(173,225,250);fill-rule:nonzero;"/>
                <path d="M438.278,627.449L436.587,611.928L443.243,620.391L443.217,620.427L438.278,627.449Z" style="fill:rgb(127,212,247);fill-rule:nonzero;"/>
                <path d="M418.304,652.51L413.399,645.043L422.677,649.281L418.304,652.51Z" style="fill:rgb(12,118,170);fill-rule:nonzero;"/>
                <path d="M428.315,656.486L418.304,652.51L422.677,649.281L428.315,656.486Z" style="fill:rgb(11,80,114);fill-rule:nonzero;"/>
                <path d="M422.677,649.281L413.399,645.043L427.376,642.348L422.677,649.281Z" style="fill:rgb(13,89,127);fill-rule:nonzero;"/>
                <path d="M418.854,633.016L418.304,624.266L426.198,628.344L418.854,633.016Z" style="fill:rgb(27,153,209);fill-rule:nonzero;"/>
                <path d="M426.198,628.344L418.304,624.266L423.983,623.637L426.198,628.344Z" style="fill:rgb(48,174,228);fill-rule:nonzero;"/>
                <path d="M413.399,645.043L422.677,638.975L427.376,642.348L413.399,645.043Z" style="fill:rgb(11,140,196);fill-rule:nonzero;"/>
                <path d="M428.315,656.486L422.677,649.281L427.376,642.348L428.315,656.486Z" style="fill:rgb(7,103,147);fill-rule:nonzero;"/>
                <path d="M422.677,613.654L412.626,607.867L412.637,607.866L420.678,607.069L420.681,607.068L422.677,613.654Z" style="fill:rgb(78,192,238);fill-rule:nonzero;"/>
                <path d="M422.677,613.654L420.681,607.068L430.903,600.201L422.677,613.654Z" style="fill:rgb(132,213,247);fill-rule:nonzero;"/>
                <path d="M428.952,620.881L423.983,618.559L430.903,616.963L428.952,620.881Z" style="fill:rgb(78,192,238);fill-rule:nonzero;"/>
                <path d="M422.677,613.654L430.903,600.201L429.97,612.219L422.677,613.654Z" style="fill:rgb(106,203,244);fill-rule:nonzero;"/>
                <path d="M447.429,648.533L442.833,642.033L451.372,641.553L447.429,648.533Z" style="fill:rgb(13,89,127);fill-rule:nonzero;"/>
                <path d="M442.833,642.033L443.243,634.852L451.372,641.553L442.833,642.033Z" style="fill:rgb(11,140,196);fill-rule:nonzero;"/>
                <path d="M412.626,618.559L412.626,607.867L422.677,613.654L412.626,618.559Z" style="fill:rgb(173,225,250);fill-rule:nonzero;"/>
                <path d="M435.228,637.18L438.278,627.449L443.243,634.852L435.228,637.18Z" style="fill:rgb(19,130,186);fill-rule:nonzero;"/>
                <path d="M442.833,642.033L435.228,637.18L443.243,634.852L442.833,642.033Z" style="fill:rgb(26,160,216);fill-rule:nonzero;"/>
                <path d="M423.983,618.559L412.626,618.559L422.677,613.654L423.983,618.559Z" style="fill:rgb(132,213,247);fill-rule:nonzero;"/>
                <path d="M422.677,638.975L418.854,633.016L427.649,633.588L422.677,638.975Z" style="fill:rgb(30,164,220);fill-rule:nonzero;"/>
                <path d="M422.677,638.975L427.649,633.588L435.228,637.18L422.677,638.975Z" style="fill:rgb(11,140,196);fill-rule:nonzero;"/>
                <path d="M435.228,637.18L427.649,633.588L426.198,628.344L435.228,637.18Z" style="fill:rgb(50,177,230);fill-rule:nonzero;"/>
                <path d="M427.649,633.588L418.854,633.016L426.198,628.344L427.649,633.588Z" style="fill:rgb(19,130,186);fill-rule:nonzero;"/>
                <path d="M423.983,618.559L422.677,613.654L429.97,612.219L423.983,618.559Z" style="fill:rgb(173,225,250);fill-rule:nonzero;"/>
                <path d="M423.983,618.559L429.97,612.219L430.903,616.963L423.983,618.559Z" style="fill:rgb(106,203,244);fill-rule:nonzero;"/>
                <path d="M430.903,616.963L429.97,612.219L436.587,611.928L430.903,616.963Z" style="fill:rgb(127,212,247);fill-rule:nonzero;"/>
                <path d="M438.278,627.449L432.239,622.418L436.587,611.928L438.278,627.449Z" style="fill:rgb(173,225,250);fill-rule:nonzero;"/>
                <path d="M432.239,622.418L430.903,616.963L436.587,611.928L432.239,622.418Z" style="fill:rgb(106,203,244);fill-rule:nonzero;"/>
                <path d="M456.329,631.787L450.595,628.141L454.771,625.76L456.329,631.787Z" style="fill:rgb(26,160,216);fill-rule:nonzero;"/>
                <path d="M459.122,637.52L456.329,631.787L459.122,631.787L459.122,637.52Z" style="fill:rgb(26,160,216);fill-rule:nonzero;"/>
                <path d="M459.122,631.787L454.771,625.76L459.122,621.522L459.122,631.787Z" style="fill:rgb(9,106,151);fill-rule:nonzero;"/>
                <path d="M459.122,631.787L456.329,631.787L454.771,625.76L459.122,631.787Z" style="fill:rgb(11,140,196);fill-rule:nonzero;"/>
                <path d="M413.399,645.043L412.626,637.961L422.677,638.975L413.399,645.043Z" style="fill:rgb(11,80,114);fill-rule:nonzero;"/>
                <path d="M422.677,638.975L412.626,637.961L418.854,633.016L422.677,638.975Z" style="fill:rgb(50,177,230);fill-rule:nonzero;"/>
                <path d="M412.626,637.961L418.304,624.266L418.854,633.016L412.626,637.961Z" style="fill:rgb(19,130,186);fill-rule:nonzero;"/>
                <path d="M412.626,637.961L413.679,630.49L418.304,624.266L412.626,637.961Z" style="fill:rgb(11,140,196);fill-rule:nonzero;"/>
                <path d="M426.198,628.344L423.983,623.637L432.239,622.418L426.198,628.344Z" style="fill:rgb(173,225,250);fill-rule:nonzero;"/>
                <path d="M423.983,623.637L428.952,620.881L432.239,622.418L423.983,623.637Z" style="fill:rgb(127,212,247);fill-rule:nonzero;"/>
            </g>
        </g>
    </g>
</svg>
