<?xml version="1.0" encoding="UTF-8" standalone="no"?>
<!DOCTYPE svg PUBLIC "-//W3C//DTD SVG 1.1//EN" "http://www.w3.org/Graphics/SVG/1.1/DTD/svg11.dtd">
<svg width="100%" height="100%" viewBox="0 0 183 236" version="1.1" xmlns="http://www.w3.org/2000/svg" xmlns:xlink="http://www.w3.org/1999/xlink" xml:space="preserve" xmlns:serif="http://www.serif.com/" style="fill-rule:evenodd;clip-rule:evenodd;stroke-linejoin:round;stroke-miterlimit:2;">
    <g transform="matrix(1,0,0,1,-1778,0)">
        <g id="アートボード9" transform="matrix(1,0,0,1,-203.125,-2500)">
            <rect x="1981.13" y="2500" width="182.355" height="235.392" style="fill:none;"/>
            <clipPath id="_clip1">
                <rect x="1981.13" y="2500" width="182.355" height="235.392"/>
            </clipPath>
            <g clip-path="url(#_clip1)">
                <g transform="matrix(4.16667,0,0,4.16667,0.125005,0)">
                    <path d="M498.019,616.471L491.345,622.574L487.11,617.545L498.019,616.471Z" style="fill:rgb(253,210,76);fill-rule:nonzero;"/>
                    <path d="M487.112,617.547L486.812,622.574L491.345,622.574L487.112,617.547Z" style="fill:rgb(250,163,26);fill-rule:nonzero;"/>
                    <path d="M495.976,622.574L502.612,628.875L495.983,636.272L495.976,622.574Z" style="fill:rgb(246,138,30);fill-rule:nonzero;"/>
                    <path d="M502.612,628.875L504.767,642.117L495.983,636.272L502.612,628.875Z" style="fill:rgb(239,72,39);fill-rule:nonzero;"/>
                    <path d="M495.983,649.217L504.767,642.117L495.983,636.272L495.983,649.217Z" style="fill:rgb(185,33,39);fill-rule:nonzero;"/>
                    <path d="M498.019,616.471L496.69,607.867L489.714,613.106L498.019,616.471Z" style="fill:rgb(250,163,26);fill-rule:nonzero;"/>
                    <path d="M493.647,606.162L496.69,607.867L489.714,613.106L493.647,606.162Z" style="fill:rgb(253,210,76);fill-rule:nonzero;"/>
                    <path d="M496.69,607.867L495.983,600.209L493.647,606.162L496.69,607.867Z" style="fill:rgb(250,224,7);fill-rule:nonzero;"/>
                    <path d="M505.101,609.965L513.614,616.748L507.607,600.209L505.101,609.965Z" style="fill:rgb(252,194,16);fill-rule:nonzero;"/>
                    <path d="M498.019,616.471L506.882,616.981L505.101,609.965L498.019,616.471Z" style="fill:rgb(253,210,76);fill-rule:nonzero;"/>
                    <path d="M506.882,616.981L502.612,628.875L498.019,616.471L506.882,616.981Z" style="fill:rgb(252,194,16);fill-rule:nonzero;"/>
                    <path d="M502.612,628.875L495.976,622.574L498.019,616.471L502.612,628.875Z" style="fill:rgb(244,117,32);fill-rule:nonzero;"/>
                    <path d="M514.852,600.209L514.964,609.58L507.607,600.209L514.852,600.209Z" style="fill:rgb(252,194,16);fill-rule:nonzero;"/>
                    <path d="M514.964,609.58L513.614,616.748L507.607,600.209L514.964,609.58Z" style="fill:rgb(251,219,78);fill-rule:nonzero;"/>
                    <path d="M519.114,600.209L514.964,609.58L514.852,600.209L519.114,600.209Z" style="fill:rgb(250,224,7);fill-rule:nonzero;"/>
                    <path d="M519.222,610.561L514.964,609.58L519.114,600.209L519.222,610.561Z" style="fill:rgb(252,194,16);fill-rule:nonzero;"/>
                    <path d="M514.964,609.58L519.222,616.699L513.614,616.748L514.964,609.58Z" style="fill:rgb(252,180,20);fill-rule:nonzero;"/>
                    <path d="M519.222,610.561L519.222,616.699L514.964,609.58L519.222,610.561Z" style="fill:rgb(247,239,109);fill-rule:nonzero;"/>
                    <path d="M519.222,616.699L519.222,629.168L513.614,616.748L519.222,616.699Z" style="fill:rgb(250,163,26);fill-rule:nonzero;"/>
                    <path d="M519.222,629.168L511.501,635.076L509.21,626.473L519.222,629.168Z" style="fill:rgb(246,138,30);fill-rule:nonzero;"/>
                    <path d="M511.501,635.076L514.964,642.625L519.222,629.168L511.501,635.076Z" style="fill:rgb(250,163,26);fill-rule:nonzero;"/>
                    <path d="M514.964,642.625L504.767,642.117L511.501,635.076L514.964,642.625Z" style="fill:rgb(239,57,36);fill-rule:nonzero;"/>
                    <path d="M519.222,651.076L519.222,643.057L514.964,642.625L519.222,651.076Z" style="fill:rgb(185,33,39);fill-rule:nonzero;"/>
                    <path d="M519.222,643.057L519.222,629.168L514.964,642.625L519.222,643.057Z" style="fill:rgb(239,65,40);fill-rule:nonzero;"/>
                    <path d="M514.964,642.625L508.804,656.494L504.767,642.117L514.964,642.625Z" style="fill:rgb(163,30,33);fill-rule:nonzero;"/>
                    <path d="M519.222,651.076L508.804,656.494L514.964,642.625L519.222,651.076Z" style="fill:rgb(219,33,40);fill-rule:nonzero;"/>
                    <path d="M519.222,656.494L519.222,651.076L508.804,656.494L519.222,656.494Z" style="fill:rgb(140,26,27);fill-rule:nonzero;"/>
                    <path d="M508.804,656.494L495.983,649.217L504.767,642.117L508.804,656.494Z" style="fill:rgb(219,33,40);fill-rule:nonzero;"/>
                    <path d="M508.804,656.494L495.983,649.217L495.976,656.486L508.804,656.494Z" style="fill:rgb(130,26,27);fill-rule:nonzero;"/>
                    <path d="M487.11,617.545L498.019,616.471L489.714,613.106L487.11,617.545Z" style="fill:rgb(250,224,7);fill-rule:nonzero;"/>
                    <path d="M507.607,600.209L505.101,609.965L496.69,607.867L507.607,600.209Z" style="fill:rgb(253,210,76);fill-rule:nonzero;"/>
                    <path d="M496.69,607.867L498.019,616.471L505.101,609.965L496.69,607.867Z" style="fill:rgb(252,180,20);fill-rule:nonzero;"/>
                    <path d="M495.983,600.209L496.69,607.867L507.607,600.209L495.983,600.209Z" style="fill:rgb(252,194,16);fill-rule:nonzero;"/>
                    <path d="M509.21,626.473L504.767,642.117L502.612,628.875L509.21,626.473Z" style="fill:rgb(250,163,26);fill-rule:nonzero;"/>
                    <path d="M509.21,626.473L511.501,635.076L504.767,642.117L509.21,626.473Z" style="fill:rgb(244,117,32);fill-rule:nonzero;"/>
                    <path d="M506.882,616.981L502.612,628.875L509.21,626.473L506.882,616.981Z" style="fill:rgb(245,127,31);fill-rule:nonzero;"/>
                    <path d="M513.614,616.748L519.222,629.168L509.21,626.473L513.614,616.748Z" style="fill:rgb(250,224,7);fill-rule:nonzero;"/>
                    <path d="M506.882,616.981L505.101,609.965L513.614,616.748L506.882,616.981Z" style="fill:rgb(247,239,109);fill-rule:nonzero;"/>
                    <path d="M506.882,616.981L509.21,626.473L513.614,616.748L506.882,616.981Z" style="fill:rgb(249,158,27);fill-rule:nonzero;"/>
                    <path d="M498.019,616.471L491.345,622.574L495.976,622.574L498.019,616.471Z" style="fill:rgb(250,163,26);fill-rule:nonzero;"/>
                    <path d="M486.812,622.574L481.817,614.543L487.11,617.545L486.812,622.574Z" style="fill:rgb(253,210,76);fill-rule:nonzero;"/>
                    <path d="M489.714,613.106L481.817,614.543L485.923,606.535L489.714,613.106Z" style="fill:rgb(252,180,20);fill-rule:nonzero;"/>
                    <path d="M495.983,600.209L485.923,606.535L493.647,606.162L495.983,600.209Z" style="fill:rgb(247,239,109);fill-rule:nonzero;"/>
                    <path d="M482.456,600.193L485.923,606.535L496.981,600.209L482.456,600.193Z" style="fill:rgb(252,180,20);fill-rule:nonzero;"/>
                    <path d="M481.817,614.543L485.923,606.535L482.456,600.193L481.817,614.543Z" style="fill:rgb(247,239,109);fill-rule:nonzero;"/>
                    <path d="M487.11,617.545L489.714,613.106L481.817,614.543L487.11,617.545Z" style="fill:rgb(249,158,27);fill-rule:nonzero;"/>
                    <path d="M493.647,606.162L489.714,613.106L485.923,606.535L493.647,606.162Z" style="fill:rgb(252,194,16);fill-rule:nonzero;"/>
                    <path d="M486.812,622.574L475.47,622.559L481.817,614.543L486.812,622.574Z" style="fill:rgb(244,117,32);fill-rule:nonzero;"/>
                    <path d="M482.456,600.193L477.954,605.824L481.817,614.543L482.456,600.193Z" style="fill:rgb(250,224,7);fill-rule:nonzero;"/>
                    <path d="M475.47,611.645L477.954,605.824L481.817,614.543L475.47,611.645Z" style="fill:rgb(253,210,76);fill-rule:nonzero;"/>
                    <path d="M475.47,622.559L481.817,614.543L475.47,611.645L475.47,622.559Z" style="fill:rgb(249,158,27);fill-rule:nonzero;"/>
                    <path d="M475.47,611.645L477.954,605.824L475.47,600.209L475.47,611.645Z" style="fill:rgb(252,180,20);fill-rule:nonzero;"/>
                    <path d="M475.47,600.209L477.954,605.824L482.456,600.193L475.47,600.209Z" style="fill:rgb(247,239,109);fill-rule:nonzero;"/>
                    <path d="M491.345,622.574L487.112,617.547L487.11,617.545L498.019,616.471L491.345,622.574Z" style="fill:rgb(161,222,249);fill-rule:nonzero;"/>
                    <path d="M491.345,622.574L486.812,622.574L487.112,617.547L491.345,622.574Z" style="fill:rgb(96,200,243);fill-rule:nonzero;"/>
                    <path d="M495.983,636.272L495.976,622.574L502.612,628.875L495.983,636.272Z" style="fill:rgb(72,188,236);fill-rule:nonzero;"/>
                    <path d="M504.767,642.117L495.983,636.272L502.612,628.875L504.767,642.117Z" style="fill:rgb(24,150,206);fill-rule:nonzero;"/>
                    <path d="M495.983,649.217L495.983,636.272L504.767,642.117L495.983,649.217Z" style="fill:rgb(9,106,151);fill-rule:nonzero;"/>
                    <path d="M498.019,616.471L489.714,613.106L496.69,607.867L498.019,616.471Z" style="fill:rgb(96,200,243);fill-rule:nonzero;"/>
                    <path d="M489.714,613.106L493.647,606.162L496.69,607.867L489.714,613.106Z" style="fill:rgb(161,222,249);fill-rule:nonzero;"/>
                    <path d="M496.69,607.867L493.647,606.162L495.694,600.945L496.033,600.751L496.69,607.867Z" style="fill:rgb(162,222,249);fill-rule:nonzero;"/>
                    <path d="M513.614,616.748L505.101,609.965L507.607,600.209L513.614,616.748Z" style="fill:rgb(127,212,247);fill-rule:nonzero;"/>
                    <path d="M506.882,616.981L498.019,616.471L505.101,609.965L506.882,616.981Z" style="fill:rgb(161,222,249);fill-rule:nonzero;"/>
                    <path d="M502.612,628.875L498.019,616.471L506.882,616.981L502.612,628.875Z" style="fill:rgb(127,212,247);fill-rule:nonzero;"/>
                    <path d="M502.612,628.875L495.976,622.574L498.019,616.471L502.612,628.875Z" style="fill:rgb(50,177,230);fill-rule:nonzero;"/>
                    <path d="M514.964,609.58L507.607,600.209L514.852,600.209L514.964,609.58Z" style="fill:rgb(127,212,247);fill-rule:nonzero;"/>
                    <path d="M513.614,616.748L507.607,600.209L514.964,609.58L513.614,616.748Z" style="fill:rgb(173,225,250);fill-rule:nonzero;"/>
                    <path d="M514.964,609.58L514.852,600.209L519.114,600.209L514.964,609.58Z" style="fill:rgb(162,222,249);fill-rule:nonzero;"/>
                    <path d="M519.222,610.561L514.964,609.58L519.114,600.209L519.222,610.561Z" style="fill:rgb(127,212,247);fill-rule:nonzero;"/>
                    <path d="M513.614,616.748L514.964,609.58L519.222,616.699L513.614,616.748Z" style="fill:rgb(113,207,246);fill-rule:nonzero;"/>
                    <path d="M519.222,616.699L514.964,609.58L519.222,610.561L519.222,616.699Z" style="fill:rgb(213,239,252);fill-rule:nonzero;"/>
                    <path d="M519.222,629.168L513.614,616.748L519.222,616.699L519.222,629.168Z" style="fill:rgb(96,200,243);fill-rule:nonzero;"/>
                    <path d="M511.501,635.076L509.21,626.473L519.222,629.168L511.501,635.076Z" style="fill:rgb(72,188,236);fill-rule:nonzero;"/>
                    <path d="M514.964,642.625L511.501,635.076L519.222,629.168L514.964,642.625Z" style="fill:rgb(96,200,243);fill-rule:nonzero;"/>
                    <path d="M514.964,642.625L504.767,642.117L511.501,635.076L514.964,642.625Z" style="fill:rgb(11,140,196);fill-rule:nonzero;"/>
                    <path d="M519.222,651.076L514.964,642.625L519.222,643.057L519.222,651.076Z" style="fill:rgb(9,106,151);fill-rule:nonzero;"/>
                    <path d="M519.222,643.057L514.964,642.625L519.222,629.168L519.222,643.057Z" style="fill:rgb(17,146,202);fill-rule:nonzero;"/>
                    <path d="M508.804,656.494L504.767,642.117L514.964,642.625L508.804,656.494Z" style="fill:rgb(13,89,127);fill-rule:nonzero;"/>
                    <path d="M508.804,656.494L514.964,642.625L519.222,651.076L508.804,656.494Z" style="fill:rgb(12,118,170);fill-rule:nonzero;"/>
                    <path d="M519.222,656.494L508.804,656.494L519.222,651.076L519.222,656.494Z" style="fill:rgb(11,80,114);fill-rule:nonzero;"/>
                    <path d="M508.804,656.494L495.983,649.217L504.767,642.117L508.804,656.494Z" style="fill:rgb(12,118,170);fill-rule:nonzero;"/>
                    <path d="M508.804,656.494L495.976,656.486L495.983,649.217L508.804,656.494Z" style="fill:rgb(8,76,108);fill-rule:nonzero;"/>
                    <path d="M487.11,617.545L489.714,613.106L498.019,616.471L487.11,617.545Z" style="fill:rgb(162,222,249);fill-rule:nonzero;"/>
                    <path d="M505.101,609.965L496.69,607.867L507.607,600.209L505.101,609.965Z" style="fill:rgb(161,222,249);fill-rule:nonzero;"/>
                    <path d="M498.019,616.471L496.69,607.867L505.101,609.965L498.019,616.471Z" style="fill:rgb(113,207,246);fill-rule:nonzero;"/>
                    <path d="M496.69,607.867L496.033,600.751L496.981,600.209L507.607,600.209L496.69,607.867Z" style="fill:rgb(127,212,247);fill-rule:nonzero;"/>
                    <path d="M504.767,642.117L502.612,628.875L509.21,626.473L504.767,642.117Z" style="fill:rgb(96,200,243);fill-rule:nonzero;"/>
                    <path d="M504.767,642.117L509.21,626.473L511.501,635.076L504.767,642.117Z" style="fill:rgb(50,177,230);fill-rule:nonzero;"/>
                    <path d="M502.612,628.875L506.882,616.981L509.21,626.473L502.612,628.875Z" style="fill:rgb(63,183,233);fill-rule:nonzero;"/>
                    <path d="M519.222,629.168L509.21,626.473L513.614,616.748L519.222,629.168Z" style="fill:rgb(162,222,249);fill-rule:nonzero;"/>
                    <path d="M506.882,616.981L505.101,609.965L513.614,616.748L506.882,616.981Z" style="fill:rgb(213,239,252);fill-rule:nonzero;"/>
                    <path d="M509.21,626.473L506.882,616.981L513.614,616.748L509.21,626.473Z" style="fill:rgb(92,199,242);fill-rule:nonzero;"/>
                    <path d="M495.976,622.574L491.345,622.574L498.019,616.471L495.976,622.574Z" style="fill:rgb(96,200,243);fill-rule:nonzero;"/>
                    <path d="M486.812,622.574L481.817,614.543L487.11,617.545L486.812,622.574Z" style="fill:rgb(161,222,249);fill-rule:nonzero;"/>
                    <path d="M481.817,614.543L485.923,606.535L489.714,613.106L481.817,614.543Z" style="fill:rgb(113,207,246);fill-rule:nonzero;"/>
                    <path d="M485.923,606.535L495.694,600.945L493.647,606.162L485.923,606.535Z" style="fill:rgb(213,239,252);fill-rule:nonzero;"/>
                    <path d="M485.923,606.535L482.456,600.193L496.981,600.209L496.033,600.751L495.694,600.945L485.923,606.535Z" style="fill:rgb(113,207,246);fill-rule:nonzero;"/>
                    <path d="M481.817,614.543L482.456,600.193L485.923,606.535L481.817,614.543Z" style="fill:rgb(213,239,252);fill-rule:nonzero;"/>
                    <path d="M487.11,617.545L481.817,614.543L489.714,613.106L487.11,617.545Z" style="fill:rgb(92,199,242);fill-rule:nonzero;"/>
                    <path d="M489.714,613.106L485.923,606.535L493.647,606.162L489.714,613.106Z" style="fill:rgb(127,212,247);fill-rule:nonzero;"/>
                    <path d="M486.812,622.574L475.47,622.559L481.817,614.543L486.812,622.574Z" style="fill:rgb(50,177,230);fill-rule:nonzero;"/>
                    <path d="M481.817,614.543L477.954,605.824L482.456,600.193L481.817,614.543Z" style="fill:rgb(162,222,249);fill-rule:nonzero;"/>
                    <path d="M481.817,614.543L475.47,611.645L477.954,605.824L481.817,614.543Z" style="fill:rgb(161,222,249);fill-rule:nonzero;"/>
                    <path d="M475.47,622.559L475.47,611.645L481.817,614.543L475.47,622.559Z" style="fill:rgb(92,199,242);fill-rule:nonzero;"/>
                    <path d="M475.47,611.645L475.47,600.209L477.954,605.824L475.47,611.645Z" style="fill:rgb(113,207,246);fill-rule:nonzero;"/>
                    <path d="M477.954,605.824L475.47,600.209L482.456,600.193L477.954,605.824Z" style="fill:rgb(213,239,252);fill-rule:nonzero;"/>
                </g>
            </g>
        </g>
    </g>
</svg>
