<?xml version="1.0" encoding="UTF-8" standalone="no"?>
<!DOCTYPE svg PUBLIC "-//W3C//DTD SVG 1.1//EN" "http://www.w3.org/Graphics/SVG/1.1/DTD/svg11.dtd">
<svg width="100%" height="100%" viewBox="0 0 195 236" version="1.1" xmlns="http://www.w3.org/2000/svg" xmlns:xlink="http://www.w3.org/1999/xlink" xml:space="preserve" xmlns:serif="http://www.serif.com/" style="fill-rule:evenodd;clip-rule:evenodd;stroke-linejoin:round;stroke-miterlimit:2;">
    <g transform="matrix(1,0,0,1,-2024.34,0)">
        <g id="アートボード10" transform="matrix(0.988095,0,0,1,-174.22,-2500)">
            <rect x="2225.05" y="2500" width="196.388" height="235.438" style="fill:none;"/>
            <clipPath id="_clip1">
                <rect x="2225.05" y="2500" width="196.388" height="235.438"/>
            </clipPath>
            <g clip-path="url(#_clip1)">
                <g transform="matrix(4.21687,0,0,4.16667,-29.127,0)">
                    <path d="M538.325,652.408L546.212,648.535L534.518,645.584L538.325,652.408Z" style="fill:rgb(140,26,27);fill-rule:nonzero;"/>
                    <path d="M534.518,637.522L542.267,641.553L534.518,645.584L534.518,637.522Z" style="fill:rgb(244,117,32);fill-rule:nonzero;"/>
                    <path d="M546.212,648.535L542.267,641.553L534.518,645.584L546.212,648.535Z" style="fill:rgb(185,33,39);fill-rule:nonzero;"/>
                    <path d="M540.974,635.842L542.267,641.553L534.518,637.522L540.974,635.842Z" style="fill:rgb(239,56,42);fill-rule:nonzero;"/>
                    <path d="M543.042,629.818L550.396,634.854L540.974,635.842L543.042,629.818Z" style="fill:rgb(239,56,42);fill-rule:nonzero;"/>
                    <path d="M542.267,641.553L550.396,634.854L540.974,635.842L542.267,641.553Z" style="fill:rgb(244,117,32);fill-rule:nonzero;"/>
                    <path d="M556.052,648.402L546.212,648.535L550.808,642.033L556.052,648.402Z" style="fill:rgb(185,33,39);fill-rule:nonzero;"/>
                    <path d="M544.61,655.672L538.325,652.408L546.212,648.535L544.61,655.672Z" style="fill:rgb(185,33,39);fill-rule:nonzero;"/>
                    <path d="M556.052,648.402L548.817,656.488L546.212,648.535L556.052,648.402Z" style="fill:rgb(219,33,40);fill-rule:nonzero;"/>
                    <path d="M544.61,655.672L548.817,656.488L546.212,648.535L544.61,655.672Z" style="fill:rgb(140,26,27);fill-rule:nonzero;"/>
                    <path d="M558.411,637.182L556.052,648.402L550.808,642.033L558.411,637.182Z" style="fill:rgb(239,56,42);fill-rule:nonzero;"/>
                    <path d="M565.323,656.488L548.817,656.488L556.052,648.402L565.323,656.488Z" style="fill:rgb(185,33,39);fill-rule:nonzero;"/>
                    <path d="M566.265,642.35L556.052,648.402L558.411,637.182L566.265,642.35Z" style="fill:rgb(219,33,40);fill-rule:nonzero;"/>
                    <path d="M543.042,629.818L555.362,627.451L550.396,634.854L543.042,629.818Z" style="fill:rgb(241,88,35);fill-rule:nonzero;"/>
                    <path d="M566.265,642.35L570.962,638.977L558.411,637.182L566.265,642.35Z" style="fill:rgb(242,102,33);fill-rule:nonzero;"/>
                    <path d="M567.44,628.344L558.411,637.182L555.362,627.451L567.44,628.344Z" style="fill:rgb(239,61,35);fill-rule:nonzero;"/>
                    <path d="M566.265,642.35L565.323,656.488L556.052,648.402L566.265,642.35Z" style="fill:rgb(156,28,32);fill-rule:nonzero;"/>
                    <path d="M567.44,628.344L561.399,622.42L555.362,627.451L567.44,628.344Z" style="fill:rgb(247,143,30);fill-rule:nonzero;"/>
                    <path d="M543.042,629.818L550.396,620.391L555.362,627.451L543.042,629.818Z" style="fill:rgb(244,117,32);fill-rule:nonzero;"/>
                    <path d="M534.518,614.756L545.157,611.623L536.198,623.201L534.518,614.756Z" style="fill:rgb(251,173,23);fill-rule:nonzero;"/>
                    <path d="M550.396,620.391L539.503,628.346L543.042,629.818L550.396,620.391Z" style="fill:rgb(238,45,42);fill-rule:nonzero;"/>
                    <path d="M541.401,622.07L539.503,628.346L536.198,623.201L541.401,622.07Z" style="fill:rgb(244,117,32);fill-rule:nonzero;"/>
                    <path d="M542.595,601.811L549.679,605.932L537.022,606.924L542.595,601.811Z" style="fill:rgb(252,194,16);fill-rule:nonzero;"/>
                    <path d="M545.157,611.623L537.022,606.924L534.518,614.756L545.157,611.623Z" style="fill:rgb(251,219,78);fill-rule:nonzero;"/>
                    <path d="M578.46,606.924L572.528,608.33L581.017,613.904L578.46,606.924Z" style="fill:rgb(252,180,20);fill-rule:nonzero;"/>
                    <path d="M561.399,622.42L562.737,616.965L566.851,620.881L561.399,622.42Z" style="fill:rgb(241,94,35);fill-rule:nonzero;"/>
                    <path d="M549.679,605.932L545.157,611.623L537.022,606.924L549.679,605.932Z" style="fill:rgb(251,173,23);fill-rule:nonzero;"/>
                    <path d="M557.054,611.928L545.157,611.623L550.396,620.391L557.054,611.928Z" style="fill:rgb(247,145,29);fill-rule:nonzero;"/>
                    <path d="M549.679,605.932L557.054,611.928L545.157,611.623L549.679,605.932Z" style="fill:rgb(252,194,16);fill-rule:nonzero;"/>
                    <path d="M563.669,612.221L559.895,605.207L557.054,611.928L563.669,612.221Z" style="fill:rgb(251,219,78);fill-rule:nonzero;"/>
                    <path d="M559.895,605.207L549.679,605.932L557.054,611.928L559.895,605.207Z" style="fill:rgb(251,173,23);fill-rule:nonzero;"/>
                    <path d="M548.87,600.201L549.679,605.932L559.895,605.207L548.87,600.201Z" style="fill:rgb(252,194,16);fill-rule:nonzero;"/>
                    <path d="M548.87,600.201L542.595,601.811L549.679,605.932L548.87,600.201Z" style="fill:rgb(251,219,78);fill-rule:nonzero;"/>
                    <path d="M565.442,600.201L572.528,608.318L559.895,605.207L565.442,600.201Z" style="fill:rgb(251,242,125);fill-rule:nonzero;"/>
                    <path d="M550.501,620.391L541.401,622.07L539.503,628.346L550.501,620.391Z" style="fill:rgb(247,143,30);fill-rule:nonzero;"/>
                    <path d="M545.157,611.623L541.401,622.07L536.198,623.201L545.157,611.623Z" style="fill:rgb(247,143,30);fill-rule:nonzero;"/>
                    <path d="M550.396,620.391L541.401,622.07L545.157,611.623L550.396,620.391Z" style="fill:rgb(251,219,78);fill-rule:nonzero;"/>
                    <path d="M557.054,611.928L555.362,627.451L550.396,620.391L557.054,611.928Z" style="fill:rgb(252,194,16);fill-rule:nonzero;"/>
                    <path d="M574.438,654.795L570.964,649.281L580.239,646.947L574.438,654.795Z" style="fill:rgb(219,33,40);fill-rule:nonzero;"/>
                    <path d="M565.323,656.488L574.438,654.795L570.964,649.281L565.323,656.488Z" style="fill:rgb(140,26,27);fill-rule:nonzero;"/>
                    <path d="M580.239,646.947L566.265,642.35L570.964,649.281L580.239,646.947Z" style="fill:rgb(161,29,33);fill-rule:nonzero;"/>
                    <path d="M574.438,628.252L567.44,628.344L574.786,633.016L574.438,628.252Z" style="fill:rgb(240,77,34);fill-rule:nonzero;"/>
                    <path d="M569.657,623.639L574.438,628.252L567.44,628.344L569.657,623.639Z" style="fill:rgb(243,113,33);fill-rule:nonzero;"/>
                    <path d="M580.239,646.947L566.265,642.35L570.962,638.977L580.239,646.947Z" style="fill:rgb(239,57,36);fill-rule:nonzero;"/>
                    <path d="M570.964,649.281L565.323,656.488L566.265,642.35L570.964,649.281Z" style="fill:rgb(183,32,38);fill-rule:nonzero;"/>
                    <path d="M572.528,608.318L570.964,613.656L581.017,613.893L572.528,608.318Z" style="fill:rgb(247,145,29);fill-rule:nonzero;"/>
                    <path d="M572.528,608.318L559.895,605.207L570.964,613.656L572.528,608.318Z" style="fill:rgb(255,200,6);fill-rule:nonzero;"/>
                    <path d="M569.657,618.561L566.851,620.881L562.737,616.965L569.657,618.561Z" style="fill:rgb(247,145,29);fill-rule:nonzero;"/>
                    <path d="M559.895,605.207L563.669,612.221L570.964,613.656L559.895,605.207Z" style="fill:rgb(251,173,23);fill-rule:nonzero;"/>
                    <path d="M550.808,642.033L546.212,648.535L542.267,641.553L550.808,642.033Z" style="fill:rgb(163,30,33);fill-rule:nonzero;"/>
                    <path d="M542.267,641.553L550.808,642.033L550.396,634.854L542.267,641.553Z" style="fill:rgb(239,56,42);fill-rule:nonzero;"/>
                    <path d="M570.964,613.656L581.017,620.033L581.017,613.893L570.964,613.656Z" style="fill:rgb(251,219,78);fill-rule:nonzero;"/>
                    <path d="M558.411,637.182L550.396,634.854L555.362,627.451L558.411,637.182Z" style="fill:rgb(238,39,43);fill-rule:nonzero;"/>
                    <path d="M558.411,637.182L550.808,642.033L550.396,634.854L558.411,637.182Z" style="fill:rgb(241,88,35);fill-rule:nonzero;"/>
                    <path d="M581.017,620.033L569.657,618.561L570.964,613.656L581.017,620.033Z" style="fill:rgb(255,200,6);fill-rule:nonzero;"/>
                    <path d="M574.786,633.016L570.962,638.977L565.991,633.588L574.786,633.016Z" style="fill:rgb(241,94,39);fill-rule:nonzero;"/>
                    <path d="M558.411,637.182L570.962,638.977L565.991,633.588L558.411,637.182Z" style="fill:rgb(239,56,42);fill-rule:nonzero;"/>
                    <path d="M567.44,628.344L565.991,633.588L558.411,637.182L567.44,628.344Z" style="fill:rgb(244,117,32);fill-rule:nonzero;"/>
                    <path d="M574.786,633.016L565.991,633.588L567.44,628.344L574.786,633.016Z" style="fill:rgb(238,39,43);fill-rule:nonzero;"/>
                    <path d="M569.657,618.561L563.669,612.221L570.964,613.656L569.657,618.561Z" style="fill:rgb(251,219,78);fill-rule:nonzero;"/>
                    <path d="M562.737,616.965L563.669,612.221L569.657,618.561L562.737,616.965Z" style="fill:rgb(251,173,23);fill-rule:nonzero;"/>
                    <path d="M557.054,611.928L562.737,616.965L563.669,612.221L557.054,611.928Z" style="fill:rgb(252,194,16);fill-rule:nonzero;"/>
                    <path d="M561.399,622.42L557.054,611.928L555.362,627.451L561.399,622.42Z" style="fill:rgb(251,219,78);fill-rule:nonzero;"/>
                    <path d="M562.737,616.965L561.399,622.42L557.054,611.928L562.737,616.965Z" style="fill:rgb(251,173,23);fill-rule:nonzero;"/>
                    <path d="M543.042,629.818L540.974,635.842L539.503,628.346L543.042,629.818Z" style="fill:rgb(241,88,35);fill-rule:nonzero;"/>
                    <path d="M540.974,635.842L534.518,637.522L536.198,633.467L540.974,635.842Z" style="fill:rgb(241,88,35);fill-rule:nonzero;"/>
                    <path d="M536.198,633.467L540.974,635.842L539.503,628.346L536.198,633.467Z" style="fill:rgb(239,56,42);fill-rule:nonzero;"/>
                    <path d="M580.239,646.947L581.017,639.641L570.962,638.977L580.239,646.947Z" style="fill:rgb(140,26,27);fill-rule:nonzero;"/>
                    <path d="M574.786,633.016L581.017,639.641L570.962,638.977L574.786,633.016Z" style="fill:rgb(244,117,32);fill-rule:nonzero;"/>
                    <path d="M574.438,628.252L581.017,639.641L574.786,633.016L574.438,628.252Z" style="fill:rgb(238,39,43);fill-rule:nonzero;"/>
                    <path d="M574.438,628.252L579.337,633.48L581.017,639.641L574.438,628.252Z" style="fill:rgb(239,56,42);fill-rule:nonzero;"/>
                    <path d="M569.657,623.639L567.44,628.344L561.399,622.42L569.657,623.639Z" style="fill:rgb(251,219,78);fill-rule:nonzero;"/>
                    <path d="M566.851,620.881L569.657,623.639L561.399,622.42L566.851,620.881Z" style="fill:rgb(252,194,16);fill-rule:nonzero;"/>
                    <path d="M569.657,623.639L572.96,620.881L569.657,618.561L569.657,623.639Z" style="fill:rgb(251,173,23);fill-rule:nonzero;"/>
                    <path d="M566.851,620.881L569.657,623.639L569.657,618.561L566.851,620.881Z" style="fill:rgb(251,242,125);fill-rule:nonzero;"/>
                    <path d="M574.438,628.252L572.96,620.881L569.657,623.639L574.438,628.252Z" style="fill:rgb(255,200,6);fill-rule:nonzero;"/>
                    <path d="M581.017,620.033L572.96,620.881L579.337,623.182L581.017,620.033Z" style="fill:rgb(251,242,125);fill-rule:nonzero;"/>
                    <path d="M569.657,618.561L572.96,620.881L581.017,620.033L569.657,618.561Z" style="fill:rgb(252,180,20);fill-rule:nonzero;"/>
                    <path d="M574.438,628.252L579.337,623.182L572.96,620.881L574.438,628.252Z" style="fill:rgb(251,219,78);fill-rule:nonzero;"/>
                    <path d="M573.284,601.811L572.528,608.318L565.442,600.201L573.284,601.811Z" style="fill:rgb(255,200,6);fill-rule:nonzero;"/>
                    <path d="M548.87,600.201L559.895,605.207L565.444,600.201L548.87,600.201Z" style="fill:rgb(251,219,78);fill-rule:nonzero;"/>
                    <path d="M573.284,601.811L572.528,608.318L578.46,606.924L573.284,601.811Z" style="fill:rgb(251,219,78);fill-rule:nonzero;"/>
                    <path d="M541.401,622.07L550.358,620.416L550.396,620.391L550.36,620.417L541.401,622.07ZM572.541,608.327L572.54,608.326L578.46,606.924L572.528,608.318L573.284,601.811L572.528,608.318L578.46,606.924L572.541,608.327Z" style="fill:rgb(3,4,4);"/>
                    <path d="M538.325,652.408L534.518,645.584L546.212,648.535L538.325,652.408Z" style="fill:rgb(11,80,114);fill-rule:nonzero;"/>
                    <path d="M534.518,645.584L534.518,637.522L542.267,641.553L534.518,645.584Z" style="fill:rgb(50,177,230);fill-rule:nonzero;"/>
                    <path d="M546.212,648.535L534.518,645.584L542.267,641.553L546.212,648.535Z" style="fill:rgb(9,106,151);fill-rule:nonzero;"/>
                    <path d="M542.267,641.553L534.518,637.522L540.974,635.842L542.267,641.553Z" style="fill:rgb(11,140,196);fill-rule:nonzero;"/>
                    <path d="M540.974,635.842L543.042,629.818L550.396,634.854L540.974,635.842Z" style="fill:rgb(11,140,196);fill-rule:nonzero;"/>
                    <path d="M542.267,641.553L540.974,635.842L550.396,634.854L542.267,641.553Z" style="fill:rgb(50,177,230);fill-rule:nonzero;"/>
                    <path d="M546.212,648.535L550.808,642.033L556.052,648.402L546.212,648.535Z" style="fill:rgb(9,106,151);fill-rule:nonzero;"/>
                    <path d="M544.61,655.672L538.325,652.408L546.212,648.535L544.61,655.672Z" style="fill:rgb(9,106,151);fill-rule:nonzero;"/>
                    <path d="M548.817,656.488L546.212,648.535L556.052,648.402L548.817,656.488Z" style="fill:rgb(12,118,170);fill-rule:nonzero;"/>
                    <path d="M548.817,656.488L544.61,655.672L546.212,648.535L548.817,656.488Z" style="fill:rgb(11,80,114);fill-rule:nonzero;"/>
                    <path d="M556.052,648.402L550.808,642.033L558.411,637.182L556.052,648.402Z" style="fill:rgb(11,140,196);fill-rule:nonzero;"/>
                    <path d="M565.323,656.488L548.817,656.488L556.052,648.402L565.323,656.488Z" style="fill:rgb(9,106,151);fill-rule:nonzero;"/>
                    <path d="M556.052,648.402L558.411,637.182L566.265,642.35L556.052,648.402Z" style="fill:rgb(12,118,170);fill-rule:nonzero;"/>
                    <path d="M550.396,634.854L543.042,629.818L555.362,627.451L550.396,634.854Z" style="fill:rgb(26,160,216);fill-rule:nonzero;"/>
                    <path d="M566.265,642.35L558.411,637.182L570.962,638.977L566.265,642.35Z" style="fill:rgb(38,168,224);fill-rule:nonzero;"/>
                    <path d="M558.411,637.182L555.362,627.451L567.44,628.344L558.411,637.182Z" style="fill:rgb(13,143,199);fill-rule:nonzero;"/>
                    <path d="M565.323,656.488L556.052,648.402L566.265,642.35L565.323,656.488Z" style="fill:rgb(12,86,123);fill-rule:nonzero;"/>
                    <path d="M567.44,628.344L555.362,627.451L561.399,622.42L567.44,628.344Z" style="fill:rgb(76,192,238);fill-rule:nonzero;"/>
                    <path d="M543.042,629.818L550.259,620.566L550.431,620.441L555.362,627.451L543.042,629.818ZM550.378,620.413L550.396,620.391L550.408,620.408L550.378,620.413Z" style="fill:rgb(50,177,230);fill-rule:nonzero;"/>
                    <path d="M536.198,623.201L534.518,614.756L545.157,611.623L536.198,623.201Z" style="fill:rgb(106,203,244);fill-rule:nonzero;"/>
                    <path d="M543.042,629.818L539.503,628.346L550.259,620.566L543.042,629.818ZM550.36,620.417L550.396,620.391L550.378,620.413L550.36,620.417Z" style="fill:rgb(19,134,190);fill-rule:nonzero;"/>
                    <path d="M539.503,628.346L536.198,623.201L541.401,622.07L539.503,628.346Z" style="fill:rgb(50,177,230);fill-rule:nonzero;"/>
                    <path d="M537.022,606.924L542.595,601.811L549.679,605.932L537.022,606.924Z" style="fill:rgb(127,212,247);fill-rule:nonzero;"/>
                    <path d="M534.518,614.756L537.022,606.924L545.157,611.623L534.518,614.756Z" style="fill:rgb(173,225,250);fill-rule:nonzero;"/>
                    <path d="M581.008,613.887L572.541,608.327L578.46,606.924L581.008,613.887Z" style="fill:rgb(113,207,246);fill-rule:nonzero;"/>
                    <path d="M561.399,622.42L562.737,616.965L566.851,620.881L561.399,622.42Z" style="fill:rgb(28,163,219);fill-rule:nonzero;"/>
                    <path d="M545.157,611.623L537.022,606.924L549.679,605.932L545.157,611.623Z" style="fill:rgb(106,203,244);fill-rule:nonzero;"/>
                    <path d="M550.396,620.391L545.157,611.623L557.054,611.928L550.396,620.391Z" style="fill:rgb(78,192,238);fill-rule:nonzero;"/>
                    <path d="M557.054,611.928L545.157,611.623L549.679,605.932L557.054,611.928Z" style="fill:rgb(127,212,247);fill-rule:nonzero;"/>
                    <path d="M563.669,612.221L557.054,611.928L559.895,605.207L563.669,612.221Z" style="fill:rgb(173,225,250);fill-rule:nonzero;"/>
                    <path d="M557.054,611.928L549.679,605.932L559.895,605.207L557.054,611.928Z" style="fill:rgb(106,203,244);fill-rule:nonzero;"/>
                    <path d="M549.679,605.932L548.87,600.201L559.895,605.207L549.679,605.932Z" style="fill:rgb(127,212,247);fill-rule:nonzero;"/>
                    <path d="M549.679,605.932L542.595,601.811L548.87,600.201L549.679,605.932Z" style="fill:rgb(173,225,250);fill-rule:nonzero;"/>
                    <path d="M572.528,608.318L559.895,605.207L565.443,600.202L572.528,608.318Z" style="fill:rgb(206,237,252);fill-rule:nonzero;"/>
                    <path d="M539.503,628.346L541.401,622.07L550.36,620.417L550.378,620.413L550.408,620.408L550.431,620.441L550.259,620.566L539.503,628.346Z" style="fill:rgb(76,192,238);fill-rule:nonzero;"/>
                    <path d="M536.198,623.201L545.157,611.623L541.401,622.07L536.198,623.201Z" style="fill:rgb(76,192,238);fill-rule:nonzero;"/>
                    <path d="M541.401,622.07L545.157,611.623L550.396,620.391L541.401,622.07Z" style="fill:rgb(173,225,250);fill-rule:nonzero;"/>
                    <path d="M555.362,627.451L550.431,620.441L550.408,620.408L550.396,620.391L557.054,611.928L555.362,627.451Z" style="fill:rgb(127,212,247);fill-rule:nonzero;"/>
                    <path d="M574.438,654.795L570.964,649.281L580.239,646.947L574.438,654.795Z" style="fill:rgb(12,118,170);fill-rule:nonzero;"/>
                    <path d="M565.323,656.488L570.964,649.281L574.438,654.795L565.323,656.488Z" style="fill:rgb(11,80,114);fill-rule:nonzero;"/>
                    <path d="M570.964,649.281L566.265,642.35L580.239,646.947L570.964,649.281Z" style="fill:rgb(13,89,127);fill-rule:nonzero;"/>
                    <path d="M574.786,633.016L567.44,628.344L574.438,628.252L574.786,633.016Z" style="fill:rgb(27,153,209);fill-rule:nonzero;"/>
                    <path d="M567.44,628.344L569.657,623.639L574.438,628.252L567.44,628.344Z" style="fill:rgb(48,174,228);fill-rule:nonzero;"/>
                    <path d="M580.239,646.947L566.265,642.35L570.962,638.977L580.239,646.947Z" style="fill:rgb(11,140,196);fill-rule:nonzero;"/>
                    <path d="M565.323,656.488L566.265,642.35L570.964,649.281L565.323,656.488Z" style="fill:rgb(7,103,147);fill-rule:nonzero;"/>
                    <path d="M581.017,613.893L570.964,613.656L572.528,608.318L572.54,608.326L572.541,608.327L581.008,613.887L581.009,613.889L581.017,613.893Z" style="fill:rgb(78,192,238);fill-rule:nonzero;"/>
                    <path d="M570.964,613.656L559.895,605.207L572.528,608.318L570.964,613.656Z" style="fill:rgb(132,213,247);fill-rule:nonzero;"/>
                    <path d="M566.851,620.881L562.737,616.965L569.657,618.561L566.851,620.881Z" style="fill:rgb(78,192,238);fill-rule:nonzero;"/>
                    <path d="M570.964,613.656L563.669,612.221L559.895,605.207L570.964,613.656Z" style="fill:rgb(106,203,244);fill-rule:nonzero;"/>
                    <path d="M546.212,648.535L542.267,641.553L550.808,642.033L546.212,648.535Z" style="fill:rgb(13,89,127);fill-rule:nonzero;"/>
                    <path d="M550.808,642.033L542.267,641.553L550.396,634.854L550.808,642.033Z" style="fill:rgb(11,140,196);fill-rule:nonzero;"/>
                    <path d="M581.017,620.033L570.964,613.656L581.017,613.893L581.017,620.033Z" style="fill:rgb(173,225,250);fill-rule:nonzero;"/>
                    <path d="M558.411,637.182L550.396,634.854L555.362,627.451L558.411,637.182Z" style="fill:rgb(19,130,186);fill-rule:nonzero;"/>
                    <path d="M550.808,642.033L550.396,634.854L558.411,637.182L550.808,642.033Z" style="fill:rgb(26,160,216);fill-rule:nonzero;"/>
                    <path d="M581.017,620.033L569.657,618.561L570.964,613.656L581.017,620.033Z" style="fill:rgb(132,213,247);fill-rule:nonzero;"/>
                    <path d="M570.962,638.977L565.991,633.588L574.786,633.016L570.962,638.977Z" style="fill:rgb(30,164,220);fill-rule:nonzero;"/>
                    <path d="M570.962,638.977L558.411,637.182L565.991,633.588L570.962,638.977Z" style="fill:rgb(11,140,196);fill-rule:nonzero;"/>
                    <path d="M558.411,637.182L567.44,628.344L565.991,633.588L558.411,637.182Z" style="fill:rgb(50,177,230);fill-rule:nonzero;"/>
                    <path d="M565.991,633.588L567.44,628.344L574.786,633.016L565.991,633.588Z" style="fill:rgb(19,130,186);fill-rule:nonzero;"/>
                    <path d="M569.657,618.561L563.669,612.221L570.964,613.656L569.657,618.561Z" style="fill:rgb(173,225,250);fill-rule:nonzero;"/>
                    <path d="M569.657,618.561L562.737,616.965L563.669,612.221L569.657,618.561Z" style="fill:rgb(106,203,244);fill-rule:nonzero;"/>
                    <path d="M562.737,616.965L557.054,611.928L563.669,612.221L562.737,616.965Z" style="fill:rgb(127,212,247);fill-rule:nonzero;"/>
                    <path d="M555.362,627.451L557.054,611.928L561.399,622.42L555.362,627.451Z" style="fill:rgb(173,225,250);fill-rule:nonzero;"/>
                    <path d="M561.399,622.42L557.054,611.928L562.737,616.965L561.399,622.42Z" style="fill:rgb(106,203,244);fill-rule:nonzero;"/>
                    <path d="M540.974,635.842L539.503,628.346L543.042,629.818L540.974,635.842Z" style="fill:rgb(26,160,216);fill-rule:nonzero;"/>
                    <path d="M534.518,637.522L536.198,633.467L540.974,635.842L534.518,637.522Z" style="fill:rgb(26,160,216);fill-rule:nonzero;"/>
                    <path d="M540.974,635.842L536.198,633.467L539.503,628.346L540.974,635.842Z" style="fill:rgb(11,140,196);fill-rule:nonzero;"/>
                    <path d="M580.239,646.947L570.962,638.977L581.017,639.641L580.239,646.947Z" style="fill:rgb(11,80,114);fill-rule:nonzero;"/>
                    <path d="M581.017,639.641L570.962,638.977L574.786,633.016L581.017,639.641Z" style="fill:rgb(50,177,230);fill-rule:nonzero;"/>
                    <path d="M581.017,639.641L574.786,633.016L574.438,628.252L581.017,639.641Z" style="fill:rgb(19,130,186);fill-rule:nonzero;"/>
                    <path d="M581.017,639.641L574.438,628.252L579.337,633.48L581.017,639.641Z" style="fill:rgb(11,140,196);fill-rule:nonzero;"/>
                    <path d="M567.44,628.344L561.399,622.42L569.657,623.639L567.44,628.344Z" style="fill:rgb(173,225,250);fill-rule:nonzero;"/>
                    <path d="M569.657,623.639L561.399,622.42L566.851,620.881L569.657,623.639Z" style="fill:rgb(127,212,247);fill-rule:nonzero;"/>
                    <path d="M569.657,623.639L569.657,618.561L572.96,620.881L569.657,623.639Z" style="fill:rgb(106,203,244);fill-rule:nonzero;"/>
                    <path d="M569.657,623.639L566.851,620.881L569.657,618.561L569.657,623.639Z" style="fill:rgb(206,237,252);fill-rule:nonzero;"/>
                    <path d="M574.438,628.252L569.657,623.639L572.96,620.881L574.438,628.252Z" style="fill:rgb(132,213,247);fill-rule:nonzero;"/>
                    <path d="M579.337,623.182L572.96,620.881L581.017,620.033L579.337,623.182Z" style="fill:rgb(206,237,252);fill-rule:nonzero;"/>
                    <path d="M572.96,620.881L569.657,618.561L581.017,620.033L572.96,620.881Z" style="fill:rgb(113,207,246);fill-rule:nonzero;"/>
                    <path d="M574.438,628.252L572.96,620.881L579.337,623.182L574.438,628.252Z" style="fill:rgb(173,225,250);fill-rule:nonzero;"/>
                    <path d="M572.528,608.318L565.443,600.202L565.444,600.201L573.284,601.811L572.528,608.318Z" style="fill:rgb(132,213,247);fill-rule:nonzero;"/>
                    <path d="M559.895,605.207L548.87,600.201L565.444,600.201L565.443,600.202L559.895,605.207Z" style="fill:rgb(173,225,250);fill-rule:nonzero;"/>
                    <path d="M572.528,608.318L573.284,601.811L578.46,606.924L572.528,608.318Z" style="fill:rgb(173,225,250);fill-rule:nonzero;"/>
                </g>
            </g>
        </g>
    </g>
</svg>
