<?xml version="1.0" encoding="UTF-8" standalone="no"?>
<!DOCTYPE svg PUBLIC "-//W3C//DTD SVG 1.1//EN" "http://www.w3.org/Graphics/SVG/1.1/DTD/svg11.dtd">
<svg width="100%" height="100%" viewBox="0 0 195 236" version="1.1" xmlns="http://www.w3.org/2000/svg" xmlns:xlink="http://www.w3.org/1999/xlink" xml:space="preserve" xmlns:serif="http://www.serif.com/" style="fill-rule:evenodd;clip-rule:evenodd;stroke-linejoin:round;stroke-miterlimit:2;">
    <g transform="matrix(1,0,0,1,-2281,0)">
        <g id="アートボード11" transform="matrix(1,0,0,1,-203.132,-2500)">
            <rect x="2484.13" y="2500" width="194.829" height="235.438" style="fill:none;"/>
            <clipPath id="_clip1">
                <rect x="2484.13" y="2500" width="194.829" height="235.438"/>
            </clipPath>
            <g clip-path="url(#_clip1)">
                <g transform="matrix(4.16667,0,0,4.16667,0.131695,0)">
                    <path d="M638.681,604.279L630.796,608.154L642.487,611.105L638.681,604.279Z" style="fill:rgb(251,242,125);fill-rule:nonzero;"/>
                    <path d="M642.487,619.168L634.737,615.137L642.487,611.105L642.487,619.168Z" style="fill:rgb(252,194,16);fill-rule:nonzero;"/>
                    <path d="M630.796,608.154L634.737,615.137L642.487,611.105L630.796,608.154Z" style="fill:rgb(251,219,78);fill-rule:nonzero;"/>
                    <path d="M639.696,624.9L634.737,615.137L642.487,619.168L639.696,624.9Z" style="fill:rgb(250,217,9);fill-rule:nonzero;"/>
                    <path d="M633.962,628.549L626.61,621.836L639.696,624.9L633.962,628.549Z" style="fill:rgb(251,173,23);fill-rule:nonzero;"/>
                    <path d="M634.737,615.137L626.61,621.836L639.696,624.9L634.737,615.137Z" style="fill:rgb(252,194,16);fill-rule:nonzero;"/>
                    <path d="M620.954,608.285L630.796,608.154L626.198,614.656L620.954,608.285Z" style="fill:rgb(252,194,16);fill-rule:nonzero;"/>
                    <path d="M632.395,601.018L638.681,604.279L630.796,608.154L632.395,601.018Z" style="fill:rgb(252,194,16);fill-rule:nonzero;"/>
                    <path d="M620.954,608.285L625.671,600.201L630.796,608.154L620.954,608.285Z" style="fill:rgb(251,173,23);fill-rule:nonzero;"/>
                    <path d="M632.395,601.018L625.671,600.201L630.796,608.154L632.395,601.018Z" style="fill:rgb(250,217,9);fill-rule:nonzero;"/>
                    <path d="M618.593,619.508L620.954,608.285L626.198,614.656L618.593,619.508Z" style="fill:rgb(251,173,23);fill-rule:nonzero;"/>
                    <path d="M611.681,600.201L625.671,600.201L620.954,608.285L611.681,600.201Z" style="fill:rgb(251,219,78);fill-rule:nonzero;"/>
                    <path d="M610.743,614.34L620.954,608.285L618.593,619.508L610.743,614.34Z" style="fill:rgb(251,242,125);fill-rule:nonzero;"/>
                    <path d="M633.962,628.549L621.644,629.238L626.61,621.836L633.962,628.549Z" style="fill:rgb(247,145,29);fill-rule:nonzero;"/>
                    <path d="M610.743,614.34L606.042,617.713L618.593,619.508L610.743,614.34Z" style="fill:rgb(252,194,16);fill-rule:nonzero;"/>
                    <path d="M609.565,628.344L618.593,619.508L621.644,629.238L609.565,628.344Z" style="fill:rgb(251,219,78);fill-rule:nonzero;"/>
                    <path d="M610.743,614.34L611.681,600.201L620.954,608.285L610.743,614.34Z" style="fill:rgb(255,200,6);fill-rule:nonzero;"/>
                    <path d="M609.565,628.344L615.604,634.27L621.644,629.238L609.565,628.344Z" style="fill:rgb(252,194,16);fill-rule:nonzero;"/>
                    <path d="M633.962,628.549L626.61,636.299L621.644,629.238L633.962,628.549Z" style="fill:rgb(241,88,35);fill-rule:nonzero;"/>
                    <path d="M642.487,641.934L631.849,645.066L642.487,635.166L642.487,641.934Z" style="fill:rgb(219,33,40);fill-rule:nonzero;"/>
                    <path d="M626.61,636.299L638.138,630.926L633.962,628.549L626.61,636.299Z" style="fill:rgb(244,117,32);fill-rule:nonzero;"/>
                    <path d="M635.604,636.299L638.138,630.926L642.487,635.166L635.604,636.299Z" style="fill:rgb(239,57,36);fill-rule:nonzero;"/>
                    <path d="M635.251,654.877L627.327,650.758L639.983,649.764L635.251,654.877Z" style="fill:rgb(185,33,39);fill-rule:nonzero;"/>
                    <path d="M631.849,645.066L639.983,649.764L642.487,641.934L631.849,645.066Z" style="fill:rgb(239,57,36);fill-rule:nonzero;"/>
                    <path d="M602.706,656.475L604.046,649.609L595.991,648.809L602.706,656.475Z" style="fill:rgb(140,26,27);fill-rule:nonzero;"/>
                    <path d="M615.604,634.27L614.268,639.725L612.317,635.809L615.604,634.27Z" style="fill:rgb(140,26,27);fill-rule:nonzero;"/>
                    <path d="M627.327,650.758L631.849,645.066L639.983,649.764L627.327,650.758Z" style="fill:rgb(196,32,38);fill-rule:nonzero;"/>
                    <path d="M619.954,644.76L631.849,645.066L626.61,636.299L619.954,644.76Z" style="fill:rgb(239,56,42);fill-rule:nonzero;"/>
                    <path d="M627.327,650.758L619.954,644.76L631.849,645.066L627.327,650.758Z" style="fill:rgb(140,26,27);fill-rule:nonzero;"/>
                    <path d="M613.337,644.469L614.268,656.486L619.954,644.76L613.337,644.469Z" style="fill:rgb(239,57,36);fill-rule:nonzero;"/>
                    <path d="M614.268,656.486L627.327,650.758L619.954,644.76L614.268,656.486Z" style="fill:rgb(185,33,39);fill-rule:nonzero;"/>
                    <path d="M628.138,656.486L627.327,650.758L614.268,656.486L628.138,656.486Z" style="fill:rgb(140,26,27);fill-rule:nonzero;"/>
                    <path d="M628.138,656.486L635.251,654.877L627.327,650.758L628.138,656.486Z" style="fill:rgb(239,57,36);fill-rule:nonzero;"/>
                    <path d="M602.706,656.486L604.046,649.621L614.268,656.486L602.706,656.486Z" style="fill:rgb(176,31,38);fill-rule:nonzero;"/>
                    <path d="M626.503,636.299L635.604,636.299L638.138,630.926L626.503,636.299Z" style="fill:rgb(241,88,35);fill-rule:nonzero;"/>
                    <path d="M631.849,645.066L635.604,636.299L642.487,635.166L631.849,645.066Z" style="fill:rgb(185,33,39);fill-rule:nonzero;"/>
                    <path d="M626.61,636.299L635.604,636.299L631.849,645.066L626.61,636.299Z" style="fill:rgb(244,117,32);fill-rule:nonzero;"/>
                    <path d="M619.954,644.76L621.644,629.238L626.61,636.299L619.954,644.76Z" style="fill:rgb(239,61,35);fill-rule:nonzero;"/>
                    <path d="M602.706,602.502L606.042,607.406L596.765,609.74L602.706,602.502Z" style="fill:rgb(251,242,125);fill-rule:nonzero;"/>
                    <path d="M611.681,600.201L602.706,602.502L606.042,607.406L611.681,600.201Z" style="fill:rgb(252,194,16);fill-rule:nonzero;"/>
                    <path d="M596.765,609.74L610.743,614.34L606.042,607.406L596.765,609.74Z" style="fill:rgb(252,194,16);fill-rule:nonzero;"/>
                    <path d="M601.016,630.926L609.565,628.344L602.22,623.672L601.016,630.926Z" style="fill:rgb(247,145,29);fill-rule:nonzero;"/>
                    <path d="M607.35,633.051L601.016,630.926L609.565,628.344L607.35,633.051Z" style="fill:rgb(240,77,34);fill-rule:nonzero;"/>
                    <path d="M596.765,609.74L610.743,614.34L606.042,617.713L596.765,609.74Z" style="fill:rgb(250,217,9);fill-rule:nonzero;"/>
                    <path d="M606.042,607.406L611.681,600.201L610.743,614.34L606.042,607.406Z" style="fill:rgb(252,180,20);fill-rule:nonzero;"/>
                    <path d="M604.046,649.621L606.042,643.033L595.991,648.82L604.046,649.621Z" style="fill:rgb(239,57,36);fill-rule:nonzero;"/>
                    <path d="M604.046,649.621L614.268,656.486L606.042,643.033L604.046,649.621Z" style="fill:rgb(219,33,40);fill-rule:nonzero;"/>
                    <path d="M607.35,638.129L612.317,635.809L614.268,639.725L607.35,638.129Z" style="fill:rgb(185,33,39);fill-rule:nonzero;"/>
                    <path d="M614.268,656.486L613.337,644.469L606.042,643.033L614.268,656.486Z" style="fill:rgb(185,33,39);fill-rule:nonzero;"/>
                    <path d="M626.198,614.656L630.796,608.154L634.737,615.137L626.198,614.656Z" style="fill:rgb(251,173,23);fill-rule:nonzero;"/>
                    <path d="M634.737,615.137L626.198,614.656L626.61,621.836L634.737,615.137Z" style="fill:rgb(251,219,78);fill-rule:nonzero;"/>
                    <path d="M606.042,643.033L595.991,638.129L595.991,648.82L606.042,643.033Z" style="fill:rgb(176,31,38);fill-rule:nonzero;"/>
                    <path d="M618.593,619.508L626.61,621.836L621.644,629.238L618.593,619.508Z" style="fill:rgb(251,173,23);fill-rule:nonzero;"/>
                    <path d="M618.593,619.508L626.198,614.656L626.61,621.836L618.593,619.508Z" style="fill:rgb(247,145,29);fill-rule:nonzero;"/>
                    <path d="M595.991,638.129L607.35,638.129L606.042,643.033L595.991,638.129Z" style="fill:rgb(140,26,27);fill-rule:nonzero;"/>
                    <path d="M602.22,623.672L606.042,617.713L611.015,623.102L602.22,623.672Z" style="fill:rgb(251,219,78);fill-rule:nonzero;"/>
                    <path d="M618.593,619.508L606.042,617.713L611.015,623.102L618.593,619.508Z" style="fill:rgb(251,173,23);fill-rule:nonzero;"/>
                    <path d="M609.565,628.344L611.015,623.102L618.593,619.508L609.565,628.344Z" style="fill:rgb(252,180,20);fill-rule:nonzero;"/>
                    <path d="M602.22,623.672L611.015,623.102L609.565,628.344L602.22,623.672Z" style="fill:rgb(252,194,16);fill-rule:nonzero;"/>
                    <path d="M607.35,638.129L613.337,644.469L606.042,643.033L607.35,638.129Z" style="fill:rgb(219,33,40);fill-rule:nonzero;"/>
                    <path d="M614.268,639.725L613.337,644.469L607.35,638.129L614.268,639.725Z" style="fill:rgb(239,57,36);fill-rule:nonzero;"/>
                    <path d="M619.954,644.76L614.268,639.725L613.337,644.469L619.954,644.76Z" style="fill:rgb(185,33,39);fill-rule:nonzero;"/>
                    <path d="M615.604,634.27L619.954,644.76L621.644,629.238L615.604,634.27Z" style="fill:rgb(219,33,40);fill-rule:nonzero;"/>
                    <path d="M614.268,639.725L615.604,634.27L619.954,644.76L614.268,639.725Z" style="fill:rgb(239,56,42);fill-rule:nonzero;"/>
                    <path d="M633.962,628.549L639.696,624.9L638.138,630.926L633.962,628.549Z" style="fill:rgb(251,219,78);fill-rule:nonzero;"/>
                    <path d="M639.696,624.9L642.487,619.168L642.487,624.9L639.696,624.9Z" style="fill:rgb(247,145,29);fill-rule:nonzero;"/>
                    <path d="M638.138,630.926L642.487,624.9L642.487,635.166L638.138,630.926Z" style="fill:rgb(247,143,30);fill-rule:nonzero;"/>
                    <path d="M642.487,624.9L639.696,624.9L638.138,630.926L642.487,624.9Z" style="fill:rgb(252,194,16);fill-rule:nonzero;"/>
                    <path d="M596.765,609.74L595.991,618.727L606.042,617.713L596.765,609.74Z" style="fill:rgb(253,201,79);fill-rule:nonzero;"/>
                    <path d="M602.22,623.672L595.991,618.727L606.042,617.713L602.22,623.672Z" style="fill:rgb(251,242,125);fill-rule:nonzero;"/>
                    <path d="M601.016,630.926L595.991,618.727L602.22,623.672L601.016,630.926Z" style="fill:rgb(251,173,23);fill-rule:nonzero;"/>
                    <path d="M601.016,630.926L596.952,625.537L595.991,618.727L601.016,630.926Z" style="fill:rgb(252,194,16);fill-rule:nonzero;"/>
                    <path d="M607.35,633.051L609.565,628.344L615.604,634.27L607.35,633.051Z" style="fill:rgb(247,143,30);fill-rule:nonzero;"/>
                    <path d="M612.317,635.809L607.35,633.051L615.604,634.27L612.317,635.809Z" style="fill:rgb(241,88,35);fill-rule:nonzero;"/>
                    <path d="M602.706,656.475L596.003,648.822L595.991,648.82L596.002,648.821L602.706,656.475L604.044,649.621L604.046,649.621L604.044,649.621L602.706,656.475Z" style="fill:rgb(3,4,4);fill-rule:nonzero;"/>
                    <path d="M642.487,611.105L630.796,608.154L638.681,604.279L642.487,611.105Z" style="fill:rgb(206,237,252);fill-rule:nonzero;"/>
                    <path d="M642.487,619.168L634.737,615.137L642.487,611.105L642.487,619.168Z" style="fill:rgb(127,212,247);fill-rule:nonzero;"/>
                    <path d="M634.737,615.137L630.796,608.154L642.487,611.105L634.737,615.137Z" style="fill:rgb(173,225,250);fill-rule:nonzero;"/>
                    <path d="M639.696,624.9L634.737,615.137L642.487,619.168L639.696,624.9Z" style="fill:rgb(153,219,249);fill-rule:nonzero;"/>
                    <path d="M633.962,628.549L626.61,621.836L639.696,624.9L633.962,628.549Z" style="fill:rgb(106,203,244);fill-rule:nonzero;"/>
                    <path d="M639.696,624.9L626.61,621.836L634.737,615.137L639.696,624.9Z" style="fill:rgb(127,212,247);fill-rule:nonzero;"/>
                    <path d="M626.198,614.656L620.954,608.285L630.796,608.154L626.198,614.656Z" style="fill:rgb(127,212,247);fill-rule:nonzero;"/>
                    <path d="M630.796,608.154L632.395,601.018L638.681,604.279L630.796,608.154Z" style="fill:rgb(127,212,247);fill-rule:nonzero;"/>
                    <path d="M620.954,608.285L625.671,600.201L630.796,608.154L620.954,608.285Z" style="fill:rgb(106,203,244);fill-rule:nonzero;"/>
                    <path d="M630.796,608.154L625.671,600.201L632.395,601.018L630.796,608.154Z" style="fill:rgb(153,219,249);fill-rule:nonzero;"/>
                    <path d="M618.593,619.508L620.954,608.285L626.198,614.656L618.593,619.508Z" style="fill:rgb(106,203,244);fill-rule:nonzero;"/>
                    <path d="M620.954,608.285L611.681,600.201L625.671,600.201L620.954,608.285Z" style="fill:rgb(173,225,250);fill-rule:nonzero;"/>
                    <path d="M618.593,619.508L610.743,614.34L620.954,608.285L618.593,619.508Z" style="fill:rgb(206,237,252);fill-rule:nonzero;"/>
                    <path d="M621.644,629.238L626.61,621.836L633.962,628.549L621.644,629.238Z" style="fill:rgb(78,192,238);fill-rule:nonzero;"/>
                    <path d="M618.593,619.508L606.042,617.713L610.743,614.34L618.593,619.508Z" style="fill:rgb(127,212,247);fill-rule:nonzero;"/>
                    <path d="M621.644,629.238L609.565,628.344L618.593,619.508L621.644,629.238Z" style="fill:rgb(173,225,250);fill-rule:nonzero;"/>
                    <path d="M610.743,614.34L611.681,600.201L620.954,608.285L610.743,614.34Z" style="fill:rgb(132,213,247);fill-rule:nonzero;"/>
                    <path d="M615.604,634.27L609.565,628.344L621.644,629.238L615.604,634.27Z" style="fill:rgb(127,212,247);fill-rule:nonzero;"/>
                    <path d="M626.584,636.262L621.644,629.238L633.962,628.549L626.694,636.211L626.584,636.262Z" style="fill:rgb(26,160,216);fill-rule:nonzero;"/>
                    <path d="M631.849,645.066L642.487,635.166L642.487,641.934L631.849,645.066Z" style="fill:rgb(12,118,170);fill-rule:nonzero;"/>
                    <path d="M626.694,636.211L633.962,628.549L638.138,630.926L626.694,636.211Z" style="fill:rgb(50,177,230);fill-rule:nonzero;"/>
                    <path d="M635.604,636.299L638.138,630.926L642.487,635.166L635.604,636.299Z" style="fill:rgb(11,140,196);fill-rule:nonzero;"/>
                    <path d="M635.251,654.877L627.327,650.758L639.983,649.764L635.251,654.877Z" style="fill:rgb(9,106,151);fill-rule:nonzero;"/>
                    <path d="M639.983,649.764L631.849,645.066L642.487,641.934L639.983,649.764Z" style="fill:rgb(11,140,196);fill-rule:nonzero;"/>
                    <path d="M602.706,656.475L596.002,648.821L604.044,649.621L602.706,656.475Z" style="fill:rgb(11,80,114);fill-rule:nonzero;"/>
                    <path d="M614.268,639.725L612.317,635.809L615.604,634.27L614.268,639.725Z" style="fill:rgb(11,80,114);fill-rule:nonzero;"/>
                    <path d="M627.327,650.758L631.849,645.066L639.983,649.764L627.327,650.758Z" style="fill:rgb(7,103,147);fill-rule:nonzero;"/>
                    <path d="M631.849,645.066L619.954,644.76L626.61,636.299L631.849,645.066Z" style="fill:rgb(11,140,196);fill-rule:nonzero;"/>
                    <path d="M627.327,650.758L619.954,644.76L631.849,645.066L627.327,650.758Z" style="fill:rgb(11,80,114);fill-rule:nonzero;"/>
                    <path d="M614.268,656.486L613.337,644.469L619.954,644.76L614.268,656.486Z" style="fill:rgb(11,140,196);fill-rule:nonzero;"/>
                    <path d="M614.268,656.486L619.954,644.76L627.327,650.758L614.268,656.486Z" style="fill:rgb(9,106,151);fill-rule:nonzero;"/>
                    <path d="M628.138,656.486L614.268,656.486L627.327,650.758L628.138,656.486Z" style="fill:rgb(11,80,114);fill-rule:nonzero;"/>
                    <path d="M628.138,656.486L627.327,650.758L635.251,654.877L628.138,656.486Z" style="fill:rgb(11,140,196);fill-rule:nonzero;"/>
                    <path d="M614.268,656.486L602.706,656.486L604.046,649.621L614.268,656.486Z" style="fill:rgb(7,101,145);fill-rule:nonzero;"/>
                    <path d="M635.604,636.299L626.61,636.299L626.584,636.262L626.694,636.211L638.138,630.926L635.604,636.299Z" style="fill:rgb(26,160,216);fill-rule:nonzero;"/>
                    <path d="M631.849,645.066L635.604,636.299L642.487,635.166L631.849,645.066Z" style="fill:rgb(9,106,151);fill-rule:nonzero;"/>
                    <path d="M631.849,645.066L626.61,636.299L635.604,636.299L631.849,645.066Z" style="fill:rgb(50,177,230);fill-rule:nonzero;"/>
                    <path d="M619.954,644.76L621.644,629.238L626.584,636.262L626.61,636.299L619.954,644.76Z" style="fill:rgb(13,143,199);fill-rule:nonzero;"/>
                    <path d="M596.765,609.74L602.706,602.502L606.042,607.406L596.765,609.74Z" style="fill:rgb(206,237,252);fill-rule:nonzero;"/>
                    <path d="M606.042,607.406L602.706,602.502L611.681,600.201L606.042,607.406Z" style="fill:rgb(127,212,247);fill-rule:nonzero;"/>
                    <path d="M610.743,614.34L596.765,609.74L606.042,607.406L610.743,614.34Z" style="fill:rgb(127,212,247);fill-rule:nonzero;"/>
                    <path d="M601.016,630.926L602.22,623.672L609.565,628.344L601.016,630.926Z" style="fill:rgb(78,192,238);fill-rule:nonzero;"/>
                    <path d="M607.35,633.051L601.016,630.926L609.565,628.344L607.35,633.051Z" style="fill:rgb(27,153,209);fill-rule:nonzero;"/>
                    <path d="M606.042,617.713L596.765,609.74L610.743,614.34L606.042,617.713Z" style="fill:rgb(153,219,249);fill-rule:nonzero;"/>
                    <path d="M610.743,614.34L606.042,607.406L611.681,600.201L610.743,614.34Z" style="fill:rgb(113,207,246);fill-rule:nonzero;"/>
                    <path d="M604.046,649.621L604.044,649.621L596.002,648.821L595.991,648.82L606.042,643.033L604.046,649.621Z" style="fill:rgb(11,140,196);fill-rule:nonzero;"/>
                    <path d="M614.268,656.486L604.046,649.621L606.042,643.033L614.268,656.486Z" style="fill:rgb(12,118,170);fill-rule:nonzero;"/>
                    <path d="M614.268,639.725L607.35,638.129L612.317,635.809L614.268,639.725Z" style="fill:rgb(9,106,151);fill-rule:nonzero;"/>
                    <path d="M614.268,656.486L606.042,643.033L613.337,644.469L614.268,656.486Z" style="fill:rgb(9,106,151);fill-rule:nonzero;"/>
                    <path d="M634.737,615.137L626.198,614.656L630.796,608.154L634.737,615.137Z" style="fill:rgb(106,203,244);fill-rule:nonzero;"/>
                    <path d="M626.61,621.836L626.198,614.656L634.737,615.137L626.61,621.836Z" style="fill:rgb(173,225,250);fill-rule:nonzero;"/>
                    <path d="M595.991,648.82L595.991,638.129L606.042,643.033L595.991,648.82Z" style="fill:rgb(7,101,145);fill-rule:nonzero;"/>
                    <path d="M621.644,629.238L618.593,619.508L626.61,621.836L621.644,629.238Z" style="fill:rgb(106,203,244);fill-rule:nonzero;"/>
                    <path d="M626.61,621.836L618.593,619.508L626.198,614.656L626.61,621.836Z" style="fill:rgb(78,192,238);fill-rule:nonzero;"/>
                    <path d="M606.042,643.033L595.991,638.129L607.35,638.129L606.042,643.033Z" style="fill:rgb(11,80,114);fill-rule:nonzero;"/>
                    <path d="M602.22,623.672L606.042,617.713L611.015,623.102L602.22,623.672Z" style="fill:rgb(173,225,250);fill-rule:nonzero;"/>
                    <path d="M611.015,623.102L606.042,617.713L618.593,619.508L611.015,623.102Z" style="fill:rgb(106,203,244);fill-rule:nonzero;"/>
                    <path d="M609.565,628.344L611.015,623.102L618.593,619.508L609.565,628.344Z" style="fill:rgb(113,207,246);fill-rule:nonzero;"/>
                    <path d="M609.565,628.344L602.22,623.672L611.015,623.102L609.565,628.344Z" style="fill:rgb(127,212,247);fill-rule:nonzero;"/>
                    <path d="M613.337,644.469L606.042,643.033L607.35,638.129L613.337,644.469Z" style="fill:rgb(12,118,170);fill-rule:nonzero;"/>
                    <path d="M613.337,644.469L607.35,638.129L614.268,639.725L613.337,644.469Z" style="fill:rgb(11,140,196);fill-rule:nonzero;"/>
                    <path d="M619.954,644.76L613.337,644.469L614.268,639.725L619.954,644.76Z" style="fill:rgb(9,106,151);fill-rule:nonzero;"/>
                    <path d="M619.954,644.76L615.604,634.27L621.644,629.238L619.954,644.76Z" style="fill:rgb(12,118,170);fill-rule:nonzero;"/>
                    <path d="M619.954,644.76L614.268,639.725L615.604,634.27L619.954,644.76Z" style="fill:rgb(11,140,196);fill-rule:nonzero;"/>
                    <path d="M638.138,630.926L633.962,628.549L639.696,624.9L638.138,630.926Z" style="fill:rgb(173,225,250);fill-rule:nonzero;"/>
                    <path d="M642.487,624.9L639.696,624.9L642.487,619.168L642.487,624.9Z" style="fill:rgb(78,192,238);fill-rule:nonzero;"/>
                    <path d="M642.487,635.166L638.138,630.926L642.487,624.9L642.487,635.166Z" style="fill:rgb(76,192,238);fill-rule:nonzero;"/>
                    <path d="M638.138,630.926L639.696,624.9L642.487,624.9L638.138,630.926Z" style="fill:rgb(127,212,247);fill-rule:nonzero;"/>
                    <path d="M595.991,618.727L596.765,609.74L606.042,617.713L595.991,618.727Z" style="fill:rgb(150,218,248);fill-rule:nonzero;"/>
                    <path d="M602.22,623.672L595.991,618.727L606.042,617.713L602.22,623.672Z" style="fill:rgb(206,237,252);fill-rule:nonzero;"/>
                    <path d="M601.016,630.926L595.991,618.727L602.22,623.672L601.016,630.926Z" style="fill:rgb(106,203,244);fill-rule:nonzero;"/>
                    <path d="M601.016,630.926L596.952,625.537L595.991,618.727L601.016,630.926Z" style="fill:rgb(127,212,247);fill-rule:nonzero;"/>
                    <path d="M615.604,634.27L607.35,633.051L609.565,628.344L615.604,634.27Z" style="fill:rgb(76,192,238);fill-rule:nonzero;"/>
                    <path d="M612.317,635.809L607.35,633.051L615.604,634.27L612.317,635.809Z" style="fill:rgb(26,160,216);fill-rule:nonzero;"/>
                </g>
            </g>
        </g>
    </g>
</svg>
